<?xml version="1.0" encoding="utf-8"?>

<svg version="1.1" id="Layer_1" xmlns="http://www.w3.org/2000/svg" xmlns:xlink="http://www.w3.org/1999/xlink" x="0px" y="0px"
	 width="600px" height="410px" viewBox="0 0 600 410" style="enable-background:new 0 0 600 410;" xml:space="preserve">
<style type="text/css">
	.st0{fill:#292F33;}
	.st1{fill:#111518;}
	.st2{fill:#363F43;}
	.st3{opacity:0.17;fill:#FFFFFF;}
</style>
<g>
	<path class="st0" d="M298,358.2c-2.8-0.6-29-7.1-82-58.3c-54.9-53-54.9-178.2-54.9-183.5l0-6.6L300,52V41.2l-7.7,3.2L163.4,97.9
		l-12.3,5.1l-0.1,13.3c0,1.4-0.1,33.6,6.5,72.6c9.2,54.4,26.5,94.1,51.4,118.2c53.9,52.1,81.9,59.9,86.9,60.9l4,0.8v-10.2L298,358.2
		z"/>
	<path class="st1" d="M304,368c5.1-1,33-8.9,86.9-60.9c24.9-24,42.2-63.8,51.4-118.2c6.6-39,6.5-71.2,6.5-72.6l-0.1-13.3l-12.3-5.1
		L307.7,44.4l-7.7-3.2h0V52l0,0l138.9,57.6l0,6.6c0,5.3,0,130.5-54.9,183.5c-53,51.2-79.2,57.7-82,58.3l-2,0.4l0,0v10.2h0L304,368z"
		/>
	<path class="st2" d="M292.9,243.6l-33.5-29.3c-4.8-4.2-5.3-11.4-1.1-16.2c4.2-4.8,11.4-5.3,16.2-1.1l25.5,22.3l0,0V62.2
		l-128.9,53.5c0,0-0.6,125.6,51.9,176.3c52.4,50.7,77,55.7,77,55.7V246.5C297.5,246.4,294.9,245.4,292.9,243.6z"/>
	<path class="st0" d="M428.9,115.8L300,62.2v157.1l53.1-52.1c4.5-4.4,11.8-4.4,16.3,0.2s4.4,11.8-0.2,16.3l-60.7,59.6
		c-2.2,2.2-5.1,3.3-8.1,3.3c-0.1,0-0.3,0-0.4,0v101.3c0,0,24.6-5.1,77-55.7C429.5,241.4,428.9,115.8,428.9,115.8z"/>
	<path class="st3" d="M300,107.8L193.1,244c3,7.5,6.3,14.8,10.1,21.7L300,142.3V107.8z"/>
	<polygon class="st3" points="300,142.3 347.5,82 327,73.5 300,107.8 	"/>
	<path class="st3" d="M300,62.3l-35,14.5l-87.1,110.9c2.8,15.9,6.8,32.8,12.5,48.9L300,97V62.3z"/>
	<polygon class="st3" points="300,97 320.6,70.8 300,62.3 	"/>
</g>
</svg>