<?xml version="1.0" encoding="UTF-8" standalone="no"?>
<svg
   xmlns:dc="http://purl.org/dc/elements/1.1/"
   xmlns:cc="http://creativecommons.org/ns#"
   xmlns:rdf="http://www.w3.org/1999/02/22-rdf-syntax-ns#"
   xmlns:svg="http://www.w3.org/2000/svg"
   xmlns="http://www.w3.org/2000/svg"
   xmlns:xlink="http://www.w3.org/1999/xlink"
   xmlns:sodipodi="http://sodipodi.sourceforge.net/DTD/sodipodi-0.dtd"
   xmlns:inkscape="http://www.inkscape.org/namespaces/inkscape"
   inkscape:version="1.0 (4035a4fb49, 2020-05-01)"
   sodipodi:docname="no throttled transfer speed.svg"
   xml:space="preserve"
   style="enable-background:new 0 0 600 410;"
   viewBox="0 0 600 410"
   height="410px"
   width="600px"
   y="0px"
   x="0px"
   id="Layer_1"
   version="1.1"><metadata
   id="metadata39"><rdf:RDF><cc:Work
       rdf:about=""><dc:format>image/svg+xml</dc:format><dc:type
         rdf:resource="http://purl.org/dc/dcmitype/StillImage" /><dc:title></dc:title></cc:Work></rdf:RDF></metadata><defs
   id="defs37"><radialGradient
     r="180"
     cy="-451.6102"
     cx="299.1"
     gradientTransform="matrix(1,0,0,-1,0,-258.1102)"
     gradientUnits="userSpaceOnUse"
     id="radialGradient65"
     xlink:href="#SVGID_1_"
     inkscape:collect="always" /><radialGradient
     r="180"
     cy="-451.6102"
     cx="299.1"
     gradientTransform="matrix(1,0,0,-1,0,-258.1102)"
     gradientUnits="userSpaceOnUse"
     id="radialGradient67"
     xlink:href="#SVGID_1_"
     inkscape:collect="always" /><radialGradient
     r="180"
     cy="-451.6102"
     cx="299.1"
     gradientTransform="matrix(1,0,0,-1,0,-258.1102)"
     gradientUnits="userSpaceOnUse"
     id="radialGradient69"
     xlink:href="#SVGID_1_"
     inkscape:collect="always" /><radialGradient
     r="180"
     cy="-451.6102"
     cx="299.1"
     gradientTransform="matrix(1,0,0,-1,0,-258.1102)"
     gradientUnits="userSpaceOnUse"
     id="radialGradient71"
     xlink:href="#SVGID_1_"
     inkscape:collect="always" /></defs><sodipodi:namedview
   inkscape:current-layer="g128"
   inkscape:window-maximized="0"
   inkscape:window-y="209"
   inkscape:window-x="454"
   inkscape:cy="177.77185"
   inkscape:cx="217.92251"
   inkscape:zoom="1.3399674"
   showgrid="false"
   id="namedview35"
   inkscape:window-height="872"
   inkscape:window-width="1497"
   inkscape:pageshadow="2"
   inkscape:pageopacity="0"
   guidetolerance="10"
   gridtolerance="10"
   objecttolerance="10"
   borderopacity="1"
   bordercolor="#666666"
   pagecolor="#ffffff" />
<style
   id="style2"
   type="text/css">
	.st0{opacity:0.34;fill:url(#SVGID_1_);enable-background:new    ;}
	.st1{fill:#FFFFFF;}
	.st2{fill:#55ACEE;}
	.st3{fill:url(#SVGID_2_);}
	.st4{font-family:'RobotoCondensed-Bold';}
	.st5{font-size:39.6574px;}
</style>
<radialGradient
   gradientUnits="userSpaceOnUse"
   gradientTransform="matrix(1 0 0 -1 0 -258.1102)"
   r="180"
   cy="-451.6102"
   cx="299.1"
   id="SVGID_1_">
	<stop
   id="stop4"
   style="stop-color:#000000"
   offset="0" />
	<stop
   id="stop6"
   style="stop-color:#000000;stop-opacity:9.929878e-02"
   offset="0.9007" />
	<stop
   id="stop8"
   style="stop-color:#000000;stop-opacity:0"
   offset="1" />
</radialGradient>
<circle
   id="circle11"
   r="180"
   cy="193.5"
   cx="299.1"
   class="st0" />
<circle
   id="circle13"
   r="162.9"
   cy="193.5"
   cx="299.1"
   class="st1" />
<circle
   r="53.400002"
   id="circle15"
   cy="209.2"
   cx="300.10001"
   class="st2" />
<g
   id="g24">
	
		<linearGradient
   gradientTransform="matrix(1 0 0 1 0 -1530.1104)"
   y2="1646.0603"
   x2="457.2998"
   y1="1646.0603"
   x1="143.1001"
   gradientUnits="userSpaceOnUse"
   id="SVGID_2_">
		<stop
   id="stop17"
   style="stop-color:#E1E8ED"
   offset="0" />
		<stop
   id="stop19"
   style="stop-color:#55ACEE"
   offset="1" />
	</linearGradient>
	<path
   id="path22"
   d="M457.3,194.5h-52c0-58-47.1-105.1-105.1-105.1c-58,0-105.1,47.1-105.1,105.1h-52   c0-86.6,70.5-157.1,157.1-157.1C386.8,37.4,457.3,107.9,457.3,194.5z"
   class="st3" />
</g>
<path
   id="path26"
   d="m 369.16722,194.86736 -14.90672,-0.76803 c 2.96391,6.03865 4.698,12.51035 5.22121,19.09945 l 12.44793,-8.40826 13.21373,-9.02758 z"
   class="st2" />


<g
   transform="translate(-0.31196665,-15.24525)"
   id="g130"><g
     id="g116"><path
       style="fill:url(#radialGradient65)"
       class="st0"
       d="m 300,252.4 h -29.3 c 0.8,2.8 3.3,4.9 6.3,4.9 h 23 22.9 c 3.1,0 5.6,-2.1 6.3,-4.9 z"
       id="path112" /><path
       style="fill:url(#radialGradient67)"
       class="st0"
       d="m 270.6,217.8 v 32.1 h 29.5 29.4 v -32.1 c 0,-2.2 -1.8,-4 -4,-4 h -4.2 v -9.2 c 0,-7.1 -3.8,-13.7 -10.1,-17 -3.8,-2 -7.5,-2.9 -11.1,-2.9 -11.7,0 -21.3,9.5 -21.3,21.2 h 0.1 v 7.8 h -0.1 -4.2 c -2.2,0 -4.1,1.8 -4,4.1 z m 24.2,13.6 c 0,-2.9 2.3,-5.2 5.2,-5.2 1,0 2.2,0.4 3.3,1.1 0.3,0.2 0.6,0.5 0.8,0.8 2.1,3.1 0.9,6.3 -1.4,7.7 v 5.1 h -2.7 -2.8 v -5.1 c -1.4,-0.8 -2.4,-2.4 -2.4,-4.4 z m -6.7,-17.7 0.1,-9.3 c 0.7,-5.9 5.8,-10.5 11.9,-10.5 2.3,0 4.8,0.7 7.3,2.3 2.8,1.8 4.5,4.9 4.5,8.3 v 9.2 H 300 Z"
       id="path114" /></g><g
     id="g128"><path
       class="st26"
       d="m 299.9,252.5 v 4.9 h 22.9 c 3.1,0 5.6,-2.1 6.3,-4.9 z"
       id="path120" /><path
       class="st26"
       d="m 299.9,241.1 0.1,8.8 h 29.4 v -32.1 c 0,-2.2 -1.8,-4 -4,-4 h -4.2 v -9.2 c 0,-7.1 -3.8,-13.7 -10.1,-17 -3.8,-2 -7.5,-2.9 -11.1,-2.9 v 9.3 c 2.3,0 4.8,0.7 7.3,2.3 2.8,1.8 4.5,4.9 4.5,8.3 v 9.2 h -11.9 v 12.6 c 1,0 2.2,0.4 3.3,1.1 0.3,0.2 0.6,0.5 0.8,0.8 2.1,3.1 0.9,6.3 -1.4,7.7 v 5.1 z"
       id="path122" /><path
       style="fill:url(#radialGradient69)"
       class="st0"
       d="m 277,257.4 h 23 v -4.9 h -29.3 c 0.7,2.8 3.3,4.8 6.3,4.9 z"
       id="path124" /><path
       style="fill:url(#radialGradient71)"
       class="st0"
       d="m 300.1,194 v -9.3 c -11.7,0 -21.3,9.5 -21.3,21.2 h 0.1 v 7.8 h -0.1 -4.2 c -2.2,0 -4,1.8 -4,4 v 32.1 h 29.5 V 241 h -2.8 v -5.1 c -1.5,-0.9 -2.5,-2.5 -2.5,-4.4 0,-2.9 2.3,-5.2 5.2,-5.2 v -12.6 h -12 v -9.2 c 0.8,-5.9 5.9,-10.5 12.1,-10.5 z"
       id="path126" /></g></g><rect
   y="189.1115"
   x="274.44699"
   height="9.3308392"
   width="16.791454"
   id="rect88"
   style="fill:#55acee;fill-opacity:1;fill-rule:evenodd;stroke-width:1.25015" /></svg>
