<?xml version="1.0" encoding="utf-8"?>

<svg version="1.1" id="Layer_1" xmlns="http://www.w3.org/2000/svg" xmlns:xlink="http://www.w3.org/1999/xlink" x="0px" y="0px"
	 width="600px" height="410px" viewBox="0 0 600 410" style="enable-background:new 0 0 600 410;" xml:space="preserve">
<style type="text/css">
	.st0{opacity:6.000000e-02;}
	.st1{opacity:0;}
	.st2{fill:#0D185E;}
	.st3{opacity:4.761905e-02;}
	.st4{opacity:9.523810e-02;}
	.st5{opacity:0.1429;}
	.st6{opacity:0.1905;}
	.st7{opacity:0.2381;}
	.st8{opacity:0.2857;}
	.st9{opacity:0.3333;}
	.st10{opacity:0.381;}
	.st11{opacity:0.4286;}
	.st12{opacity:0.4762;}
	.st13{opacity:0.5238;}
	.st14{opacity:0.5714;}
	.st15{opacity:0.619;}
	.st16{opacity:0.6667;}
	.st17{opacity:0.7143;}
	.st18{opacity:0.7619;}
	.st19{opacity:0.8095;}
	.st20{opacity:0.8571;}
	.st21{opacity:0.9048;}
	.st22{opacity:0.9524;}
	.st23{fill:#FFFFFF;}
	.st24{fill:#55ACEE;}
	.st25{fill:#E2E8ED;}
	.st26{fill:#BCD8BA;}
	.st27{fill:#292F33;}
	.st28{fill:#81C5EF;}
	.st29{fill:none;}
	.st30{fill:#E58CA8;}
</style>
<g class="st0">
	<g class="st1">
		<g>
			<g>
				<path class="st2" d="M407,383.7H201.6c-4,0-7.3-3.3-7.3-7.3V36.8c0-4,3.3-7.3,7.3-7.3H407c4,0,7.3,3.3,7.3,7.3v339.5
					C414.3,380.4,411,383.7,407,383.7z"/>
			</g>
		</g>
	</g>
	<g class="st3">
		<path class="st2" d="M406.8,383.5H201.4c-4,0-7.3-3.3-7.3-7.3V36.6c0-4,3.3-7.3,7.3-7.3h205.4c4,0,7.3,3.3,7.3,7.3v339.5
			C414.1,380.2,410.8,383.5,406.8,383.5z"/>
	</g>
	<g class="st4">
		<path class="st2" d="M406.6,383.2H201.2c-4,0-7.3-3.3-7.3-7.3V36.4c0-4,3.3-7.3,7.3-7.3h205.4c4,0,7.3,3.3,7.3,7.3v339.5
			C413.9,380,410.6,383.2,406.6,383.2z"/>
	</g>
	<g class="st5">
		<path class="st2" d="M406.4,383H201c-4,0-7.3-3.3-7.3-7.3V36.1c0-4,3.3-7.3,7.3-7.3h205.4c4,0,7.3,3.3,7.3,7.3v339.5
			C413.7,379.7,410.4,383,406.4,383z"/>
	</g>
	<g class="st6">
		<path class="st2" d="M403.9,380.8H198.5c-4,0-7.3-3.3-7.3-7.3V33.9c0-4,3.3-7.3,7.3-7.3h205.4c4,0,7.3,3.3,7.3,7.3v339.5
			C411.2,377.5,407.9,380.8,403.9,380.8z"/>
	</g>
	<g class="st7">
		<path class="st2" d="M404,381.6H198.6c-4,0-7.3-3.3-7.3-7.3V34.7c0-4,3.3-7.3,7.3-7.3H404c4,0,7.3,3.3,7.3,7.3v339.5
			C411.3,378.3,408,381.6,404,381.6z"/>
	</g>
	<g class="st8">
		<path class="st2" d="M405.8,382.3H200.4c-4,0-7.3-3.3-7.3-7.3V35.5c0-4,3.3-7.3,7.3-7.3h205.4c4,0,7.3,3.3,7.3,7.3V375
			C413.1,379.1,409.8,382.3,405.8,382.3z"/>
	</g>
	<g class="st9">
		<path class="st2" d="M404.8,381.7H199.2c-4,0-7.3-3.3-7.3-7.3V33.2c0-4,3.3-7.3,7.3-7.3h205.6c4,0,7.3,3.3,7.3,7.3v341
			C412.1,378.4,408.8,381.7,404.8,381.7z"/>
	</g>
	<g class="st10">
		<path class="st2" d="M405.4,381.9H200c-4,0-7.3-3.3-7.3-7.3V35c0-4,3.3-7.3,7.3-7.3h205.4c4,0,7.3,3.3,7.3,7.3v339.5
			C412.7,378.6,409.4,381.9,405.4,381.9z"/>
	</g>
	<g class="st11">
		<path class="st2" d="M405.1,381.7H199.7c-4,0-7.3-3.3-7.3-7.3V34.8c0-4,3.3-7.3,7.3-7.3h205.4c4,0,7.3,3.3,7.3,7.3v339.5
			C412.4,378.4,409.1,381.7,405.1,381.7z"/>
	</g>
	<g class="st12">
		<path class="st2" d="M404.9,381.5H199.5c-4,0-7.3-3.3-7.3-7.3V34.6c0-4,3.3-7.3,7.3-7.3h205.4c4,0,7.3,3.3,7.3,7.3v339.5
			C412.2,378.2,408.9,381.5,404.9,381.5z"/>
	</g>
	<g class="st13">
		<path class="st2" d="M404.7,381.2H199.3c-4,0-7.3-3.3-7.3-7.3V34.3c0-4,3.3-7.3,7.3-7.3h205.4c4,0,7.3,3.3,7.3,7.3v339.5
			C412,377.9,408.7,381.2,404.7,381.2z"/>
	</g>
	<g class="st14">
		<path class="st2" d="M404.5,381H199.1c-4,0-7.3-3.3-7.3-7.3V34.1c0-4,3.3-7.3,7.3-7.3h205.4c4,0,7.3,3.3,7.3,7.3v339.5
			C411.8,377.7,408.5,381,404.5,381z"/>
	</g>
	<g class="st15">
		<path class="st2" d="M404.3,380.8H198.9c-4,0-7.3-3.3-7.3-7.3V33.9c0-4,3.3-7.3,7.3-7.3h205.4c4,0,7.3,3.3,7.3,7.3v339.5
			C411.6,377.5,408.3,380.8,404.3,380.8z"/>
	</g>
	<g class="st16">
		<path class="st2" d="M404.1,380.6H198.7c-4,0-7.3-3.3-7.3-7.3V33.7c0-4,3.3-7.3,7.3-7.3h205.4c4,0,7.3,3.3,7.3,7.3v339.5
			C411.4,377.3,408.1,380.6,404.1,380.6z"/>
	</g>
	<g class="st17">
		<path class="st2" d="M403.9,380.3H198.5c-4,0-7.3-3.3-7.3-7.3V33.5c0-4,3.3-7.3,7.3-7.3h205.4c4,0,7.3,3.3,7.3,7.3V373
			C411.2,377.1,407.9,380.3,403.9,380.3z"/>
	</g>
	<g class="st18">
		<path class="st2" d="M403.7,380.1H198.3c-4,0-7.3-3.3-7.3-7.3V33.2c0-4,3.3-7.3,7.3-7.3h205.4c4,0,7.3,3.3,7.3,7.3v339.5
			C411,376.8,407.7,380.1,403.7,380.1z"/>
	</g>
	<g class="st19">
		<path class="st2" d="M403.4,379.9H198c-4,0-7.3-3.3-7.3-7.3V33c0-4,3.3-7.3,7.3-7.3h205.4c4,0,7.3,3.3,7.3,7.3v339.5
			C410.7,376.6,407.4,379.9,403.4,379.9z"/>
	</g>
	<g class="st20">
		<path class="st2" d="M403.2,379.7H197.8c-4,0-7.3-3.3-7.3-7.3V32.8c0-4,3.3-7.3,7.3-7.3h205.4c4,0,7.3,3.3,7.3,7.3v339.5
			C410.5,376.4,407.2,379.7,403.2,379.7z"/>
	</g>
	<g class="st21">
		<path class="st2" d="M403,379.4H197.6c-4,0-7.3-3.3-7.3-7.3V32.6c0-4,3.3-7.3,7.3-7.3H403c4,0,7.3,3.3,7.3,7.3v339.5
			C410.3,376.2,407,379.4,403,379.4z"/>
	</g>
	<g class="st22">
		<path class="st2" d="M402.8,379.2H197.4c-4,0-7.3-3.3-7.3-7.3V32.3c0-4,3.3-7.3,7.3-7.3h205.4c4,0,7.3,3.3,7.3,7.3v339.5
			C410.1,375.9,406.8,379.2,402.8,379.2z"/>
	</g>
	<g>
		<g>
			<g>
				<path class="st2" d="M402.6,379H197.2c-4,0-7.3-3.3-7.3-7.3V32.1c0-4,3.3-7.3,7.3-7.3h205.4c4,0,7.3,3.3,7.3,7.3v339.5
					C409.9,375.7,406.6,379,402.6,379z"/>
			</g>
		</g>
	</g>
</g>
<g>
	<g>
		<g>
			<path class="st23" d="M402.7,379.4H197.3c-4,0-7.3-3.3-7.3-7.3V30.9c0-4,3.3-7.3,7.3-7.3h205.4c4,0,7.3,3.3,7.3,7.3V372
				C410,376.1,406.7,379.4,402.7,379.4z"/>
		</g>
	</g>
</g>
<path class="st24" d="M190,351.7h220v20.4c0,4-3.3,7.3-7.3,7.3H197.3c-4,0-7.3-3.3-7.3-7.3V351.7z"/>
<path class="st24" d="M410,78.9H190v-48c0-4,3.3-7.3,7.3-7.3h205.4c4,0,7.3,3.3,7.3,7.3V78.9z"/>
<path class="st25" d="M390.4,107.6h-97.8c-0.9,0-1.6-0.7-1.6-1.6v-5c0-0.9,0.7-1.6,1.6-1.6h97.8c0.9,0,1.6,0.7,1.6,1.6v5
	C391.9,106.9,391.2,107.6,390.4,107.6z"/>
<path class="st25" d="M390.4,122.4h-97.8c-0.9,0-1.6-0.7-1.6-1.6v-5c0-0.9,0.7-1.6,1.6-1.6h97.8c0.9,0,1.6,0.7,1.6,1.6v5
	C391.9,121.7,391.2,122.4,390.4,122.4z"/>
<path class="st25" d="M390.4,137.3h-97.8c-0.9,0-1.6-0.7-1.6-1.6v-5c0-0.9,0.7-1.6,1.6-1.6h97.8c0.9,0,1.6,0.7,1.6,1.6v5
	C391.9,136.6,391.2,137.3,390.4,137.3z"/>
<path class="st25" d="M390.4,152.1h-97.8c-0.9,0-1.6-0.7-1.6-1.6v-5c0-0.9,0.7-1.6,1.6-1.6h97.8c0.9,0,1.6,0.7,1.6,1.6v5
	C391.9,151.4,391.2,152.1,390.4,152.1z"/>
<path class="st25" d="M287,248.9h-35.8c-0.9,0-1.6-0.7-1.6-1.6V244c0-0.9,0.7-1.6,1.6-1.6H287c0.9,0,1.6,0.7,1.6,1.6v3.3
	C288.6,248.2,287.9,248.9,287,248.9z"/>
<path class="st25" d="M287,258.6h-35.8c-0.9,0-1.6-0.7-1.6-1.6v-3.3c0-0.9,0.7-1.6,1.6-1.6H287c0.9,0,1.6,0.7,1.6,1.6v3.3
	C288.6,257.9,287.9,258.6,287,258.6z"/>
<path class="st25" d="M287,267.7h-72.1c-0.9,0-1.6-0.7-1.6-1.6V266c0-0.9,0.7-1.6,1.6-1.6H287c0.9,0,1.6,0.7,1.6,1.6v0.1
	C288.6,267,287.9,267.7,287,267.7z"/>
<path class="st25" d="M287,274.9h-72.1c-0.9,0-1.6-0.7-1.6-1.6v-0.1c0-0.9,0.7-1.6,1.6-1.6H287c0.9,0,1.6,0.7,1.6,1.6v0.1
	C288.6,274.2,287.9,274.9,287,274.9z"/>
<path class="st25" d="M287,282h-72.1c-0.9,0-1.6-0.7-1.6-1.6v-0.1c0-0.9,0.7-1.6,1.6-1.6H287c0.9,0,1.6,0.7,1.6,1.6v0.1
	C288.6,281.3,287.9,282,287,282z"/>
<path class="st25" d="M261.7,231.3h-53.4c-2.2,0-4-1.8-4-4v-48.7c0-2.2,1.8-4,4-4h53.4c2.2,0,4,1.8,4,4v48.7
	C265.7,229.5,263.9,231.3,261.7,231.3z"/>
<path class="st25" d="M326.7,231.3h-53.4c-2.2,0-4-1.8-4-4v-48.7c0-2.2,1.8-4,4-4h53.4c2.2,0,4,1.8,4,4v48.7
	C330.7,229.5,328.9,231.3,326.7,231.3z"/>
<path class="st25" d="M282.1,153.8h-73.7c-2.2,0-4-1.8-4-4v-48.7c0-2.2,1.8-4,4-4h73.7c2.2,0,4,1.8,4,4v48.7
	C286.1,152,284.3,153.8,282.1,153.8z"/>
<path class="st25" d="M391.8,231.3h-53.4c-2.2,0-4-1.8-4-4v-48.7c0-2.2,1.8-4,4-4h53.4c2.2,0,4,1.8,4,4v48.7
	C395.8,229.5,394,231.3,391.8,231.3z"/>
<circle class="st24" cx="225.5" cy="250.3" r="8.3"/>
<path class="st25" d="M287,304.9h-35.8c-0.9,0-1.6-0.7-1.6-1.6V300c0-0.9,0.7-1.6,1.6-1.6H287c0.9,0,1.6,0.7,1.6,1.6v3.3
	C288.6,304.2,287.9,304.9,287,304.9z"/>
<path class="st25" d="M287,314.6h-35.8c-0.9,0-1.6-0.7-1.6-1.6v-3.3c0-0.9,0.7-1.6,1.6-1.6H287c0.9,0,1.6,0.7,1.6,1.6v3.3
	C288.6,313.9,287.9,314.6,287,314.6z"/>
<path class="st25" d="M287,323.8h-72.1c-0.9,0-1.6-0.7-1.6-1.6v-0.1c0-0.9,0.7-1.6,1.6-1.6H287c0.9,0,1.6,0.7,1.6,1.6v0.1
	C288.6,323.1,287.9,323.8,287,323.8z"/>
<path class="st25" d="M287,330.9h-72.1c-0.9,0-1.6-0.7-1.6-1.6v-0.1c0-0.9,0.7-1.6,1.6-1.6H287c0.9,0,1.6,0.7,1.6,1.6v0.1
	C288.6,330.2,287.9,330.9,287,330.9z"/>
<path class="st25" d="M287,338h-72.1c-0.9,0-1.6-0.7-1.6-1.6v-0.1c0-0.9,0.7-1.6,1.6-1.6H287c0.9,0,1.6,0.7,1.6,1.6v0.1
	C288.6,337.3,287.9,338,287,338z"/>
<circle class="st24" cx="225.5" cy="306.3" r="8.3"/>
<path class="st25" d="M390.4,248.9h-35.8c-0.9,0-1.6-0.7-1.6-1.6V244c0-0.9,0.7-1.6,1.6-1.6h35.8c0.9,0,1.6,0.7,1.6,1.6v3.3
	C391.9,248.2,391.2,248.9,390.4,248.9z"/>
<path class="st25" d="M390.4,258.6h-35.8c-0.9,0-1.6-0.7-1.6-1.6v-3.3c0-0.9,0.7-1.6,1.6-1.6h35.8c0.9,0,1.6,0.7,1.6,1.6v3.3
	C391.9,257.9,391.2,258.6,390.4,258.6z"/>
<path class="st25" d="M390.4,267.7h-72.1c-0.9,0-1.6-0.7-1.6-1.6V266c0-0.9,0.7-1.6,1.6-1.6h72.1c0.9,0,1.6,0.7,1.6,1.6v0.1
	C391.9,267,391.2,267.7,390.4,267.7z"/>
<path class="st25" d="M390.4,274.9h-72.1c-0.9,0-1.6-0.7-1.6-1.6v-0.1c0-0.9,0.7-1.6,1.6-1.6h72.1c0.9,0,1.6,0.7,1.6,1.6v0.1
	C391.9,274.2,391.2,274.9,390.4,274.9z"/>
<path class="st25" d="M390.4,282h-72.1c-0.9,0-1.6-0.7-1.6-1.6v-0.1c0-0.9,0.7-1.6,1.6-1.6h72.1c0.9,0,1.6,0.7,1.6,1.6v0.1
	C391.9,281.3,391.2,282,390.4,282z"/>
<circle class="st24" cx="328.9" cy="250.3" r="8.3"/>
<path class="st25" d="M390.4,304.9h-35.8c-0.9,0-1.6-0.7-1.6-1.6V300c0-0.9,0.7-1.6,1.6-1.6h35.8c0.9,0,1.6,0.7,1.6,1.6v3.3
	C391.9,304.2,391.2,304.9,390.4,304.9z"/>
<path class="st25" d="M390.4,314.6h-35.8c-0.9,0-1.6-0.7-1.6-1.6v-3.3c0-0.9,0.7-1.6,1.6-1.6h35.8c0.9,0,1.6,0.7,1.6,1.6v3.3
	C391.9,313.9,391.2,314.6,390.4,314.6z"/>
<path class="st25" d="M390.4,323.8h-72.1c-0.9,0-1.6-0.7-1.6-1.6v-0.1c0-0.9,0.7-1.6,1.6-1.6h72.1c0.9,0,1.6,0.7,1.6,1.6v0.1
	C391.9,323.1,391.2,323.8,390.4,323.8z"/>
<path class="st25" d="M390.4,330.9h-72.1c-0.9,0-1.6-0.7-1.6-1.6v-0.1c0-0.9,0.7-1.6,1.6-1.6h72.1c0.9,0,1.6,0.7,1.6,1.6v0.1
	C391.9,330.2,391.2,330.9,390.4,330.9z"/>
<path class="st25" d="M390.4,338h-72.1c-0.9,0-1.6-0.7-1.6-1.6v-0.1c0-0.9,0.7-1.6,1.6-1.6h72.1c0.9,0,1.6,0.7,1.6,1.6v0.1
	C391.9,337.3,391.2,338,390.4,338z"/>
<circle class="st24" cx="328.9" cy="306.3" r="8.3"/>
<g>
	<g>
		<g>
			<g>
				<g>
					<path class="st23" d="M390.6,346.5H239c-4,0-7.3-3.3-7.3-7.3V305c0-4,3.3-7.3,7.3-7.3h151.6c4,0,7.3,3.3,7.3,7.3v34.2
						C397.9,343.3,394.6,346.5,390.6,346.5z"/>
				</g>
				<g>
					<path class="st26" d="M390.6,347.5H239c-4.6,0-8.3-3.7-8.3-8.3V305c0-4.6,3.7-8.3,8.3-8.3h151.6c4.6,0,8.3,3.7,8.3,8.3v34.2
						C398.9,343.8,395.1,347.5,390.6,347.5z M239,298.8c-3.5,0-6.3,2.8-6.3,6.3v34.2c0,3.5,2.8,6.3,6.3,6.3h151.6
						c3.5,0,6.3-2.8,6.3-6.3v-34.2c0-3.5-2.8-6.3-6.3-6.3H239z"/>
				</g>
			</g>
		</g>
	</g>
</g>
<g>
	<path class="st26" d="M385.5,312.5h-77.4c-1.7,0-3-1.3-3-3s1.3-3,3-3h77.4c1.7,0,3,1.3,3,3S387.1,312.5,385.5,312.5z"/>
</g>
<g>
	<path class="st26" d="M385.5,321.8h-42.7c-1.1,0-2-0.9-2-2s0.9-2,2-2h42.7c1.1,0,2,0.9,2,2S386.6,321.8,385.5,321.8z"/>
</g>
<g>
	<path class="st26" d="M385.5,328h-41.3c-1.1,0-2-0.9-2-2s0.9-2,2-2h41.3c1.1,0,2,0.9,2,2S386.6,328,385.5,328z"/>
</g>
<g>
	<path class="st26" d="M385.5,334.2h-41.3c-1.1,0-2-0.9-2-2s0.9-2,2-2h41.3c1.1,0,2,0.9,2,2S386.6,334.2,385.5,334.2z"/>
</g>
<g>
	<g>
		<g>
			<g>
				<path class="st27" d="M243.3,325.8c0.3,1.3,1.4,2.3,2.8,2.5l-1.4-5.7c0-0.1,0-0.2,0-0.3C243.5,323,243,324.4,243.3,325.8z"/>
				<path class="st27" d="M255.4,329.4l-5.3,1.4l3.9,6.8c0.6,1,1.8,1.5,2.9,1.3c0.8-0.2,1.5-0.8,1.8-1.6c0.3-0.7,0.3-1.6-0.2-2.3
					L255.4,329.4z"/>
				<path class="st27" d="M244,322.4L244,322.4L244,322.4L244,322.4z"/>
				<path class="st27" d="M270.5,315l-0.3,0.1l1.9,7.3l0.3-0.1c2-0.5,3.3-2.6,2.7-4.6C274.6,315.7,272.6,314.5,270.5,315z"/>
				<path class="st27" d="M245.2,322.4l1.5,5.8c0.4,1.5,2,2.4,3.5,2l7.4-1.9l-2.8-11l-7.4,1.9C245.9,319.5,244.9,320.9,245.2,322.4z
					"/>
				<polygon class="st27" points="257,328.6 273.7,330.8 267.7,307.2 254.1,317.1 				"/>
			</g>
		</g>
	</g>
	<g>
		<path class="st27" d="M279.2,317.4c-0.2,0-0.4-0.2-0.5-0.4c-0.1-0.3,0.1-0.5,0.4-0.6l13.4-3.4c0.3-0.1,0.5,0.1,0.6,0.4
			s-0.1,0.5-0.4,0.6l-13.4,3.4C279.2,317.4,279.2,317.4,279.2,317.4z"/>
	</g>
	<g>
		<path class="st27" d="M277.9,312.6c-0.2,0-0.3-0.1-0.4-0.2c-0.2-0.2-0.1-0.5,0.1-0.7l10.2-6.7c0.2-0.2,0.5-0.1,0.7,0.1
			s0.1,0.5-0.1,0.7l-10.2,6.7C278.1,312.6,278,312.6,277.9,312.6z"/>
	</g>
	<g>
		<path class="st27" d="M292.6,323.2C292.5,323.2,292.5,323.2,292.6,323.2l-12.2-0.9c-0.3,0-0.5-0.3-0.5-0.5c0-0.3,0.3-0.5,0.5-0.5
			l12.2,0.9c0.3,0,0.5,0.3,0.5,0.5C293,323,292.8,323.2,292.6,323.2z"/>
	</g>
</g>
<g>
	<g>
		<g>
			<g>
				<g>
					<g>
						<path class="st23" d="M430.1,119.8H278.5c-4,0-7.3-3.3-7.3-7.3V78.3c0-4,3.3-7.3,7.3-7.3h151.6c4,0,7.3,3.3,7.3,7.3v34.2
							C437.4,116.5,434.1,119.8,430.1,119.8z"/>
					</g>
					<g>
						<path class="st26" d="M430.1,120.8H278.5c-4.6,0-8.3-3.7-8.3-8.3V78.3c0-4.6,3.7-8.3,8.3-8.3h151.6c4.6,0,8.3,3.7,8.3,8.3
							v34.2C438.4,117.1,434.7,120.8,430.1,120.8z M278.5,72c-3.5,0-6.3,2.8-6.3,6.3v34.2c0,3.5,2.8,6.3,6.3,6.3h151.6
							c3.5,0,6.3-2.8,6.3-6.3V78.3c0-3.5-2.8-6.3-6.3-6.3H278.5z"/>
					</g>
				</g>
			</g>
			<g>
				<path class="st26" d="M425,85.8h-77.4c-1.7,0-3-1.3-3-3s1.3-3,3-3H425c1.7,0,3,1.3,3,3S426.6,85.8,425,85.8z"/>
			</g>
			<g>
				<path class="st26" d="M425,95h-42.7c-1.1,0-2-0.9-2-2s0.9-2,2-2H425c1.1,0,2,0.9,2,2S426.1,95,425,95z"/>
			</g>
			<g>
				<path class="st26" d="M425,101.2h-41.3c-1.1,0-2-0.9-2-2s0.9-2,2-2H425c1.1,0,2,0.9,2,2S426.1,101.2,425,101.2z"/>
			</g>
			<g>
				<path class="st26" d="M425,107.5h-41.3c-1.1,0-2-0.9-2-2s0.9-2,2-2H425c1.1,0,2,0.9,2,2S426.1,107.5,425,107.5z"/>
			</g>
			<g>
				<g>
					<g>
						<g>
							<g>
								<path class="st27" d="M282.9,99c0.3,1.3,1.4,2.3,2.8,2.5l-1.4-5.7c0-0.1,0-0.2,0-0.3C283,96.3,282.5,97.7,282.9,99z"/>
							</g>
							<g>
								<path class="st27" d="M294.9,102.7l-5.3,1.4l3.9,6.8c0.6,1,1.8,1.5,2.9,1.3c0.8-0.2,1.5-0.8,1.8-1.6
									c0.3-0.7,0.3-1.6-0.2-2.3L294.9,102.7z"/>
							</g>
							<g>
								<path class="st27" d="M283.5,95.6L283.5,95.6L283.5,95.6L283.5,95.6z"/>
							</g>
							<g>
								<path class="st27" d="M310.1,88.2l-0.3,0.1l1.9,7.3l0.3-0.1c2-0.5,3.3-2.6,2.7-4.6C314.2,89,312.1,87.7,310.1,88.2z"/>
							</g>
							<g>
								<path class="st27" d="M284.8,95.7l1.5,5.8c0.4,1.5,2,2.4,3.5,2l7.4-1.9l-2.8-11l-7.4,1.9C285.4,92.8,284.4,94.2,284.8,95.7z
									"/>
							</g>
							<g>
								<polygon class="st27" points="296.5,101.9 313.2,104.1 307.2,80.5 293.6,90.4 								"/>
							</g>
						</g>
					</g>
				</g>
				<g>
					<path class="st27" d="M318.7,90.7c-0.2,0-0.4-0.2-0.5-0.4c-0.1-0.3,0.1-0.5,0.4-0.6l13.4-3.4c0.3-0.1,0.5,0.1,0.6,0.4
						s-0.1,0.5-0.4,0.6l-13.4,3.4C318.8,90.7,318.7,90.7,318.7,90.7z"/>
				</g>
				<g>
					<path class="st27" d="M317.4,85.8c-0.2,0-0.3-0.1-0.4-0.2c-0.2-0.2-0.1-0.5,0.1-0.7l10.2-6.7c0.2-0.2,0.5-0.1,0.7,0.1
						s0.1,0.5-0.1,0.7l-10.2,6.7C317.6,85.8,317.5,85.8,317.4,85.8z"/>
				</g>
				<g>
					<path class="st27" d="M332.1,96.5L332.1,96.5l-12.2-0.9c-0.3,0-0.5-0.3-0.5-0.5c0-0.3,0.3-0.5,0.5-0.5l12.2,0.9
						c0.3,0,0.5,0.3,0.5,0.5C332.6,96.3,332.3,96.5,332.1,96.5z"/>
				</g>
			</g>
		</g>
	</g>
</g>
<polygon class="st28" points="284.4,39.9 268.9,66.7 299.9,66.7 "/>
<polygon class="st28" points="307.7,26.3 284.4,66.7 331.1,66.7 "/>
<circle class="st28" cx="325.1" cy="34.8" r="6"/>
<g>
	<line class="st29" x1="279.2" y1="114.3" x2="429.9" y2="76.6"/>
	<rect x="276.9" y="92.9" transform="matrix(0.97 -0.2429 0.2429 0.97 -12.5538 88.9775)" class="st30" width="155.3" height="5"/>
</g>
<g>
	<line class="st29" x1="429.9" y1="114.3" x2="279.2" y2="76.6"/>
	<rect x="352.2" y="17.8" transform="matrix(0.243 -0.97 0.97 0.243 175.8983 416.2607)" class="st30" width="5" height="155.3"/>
</g>
<g>
	<line class="st29" x1="241" y1="340.8" x2="391.6" y2="303.1"/>
	<rect x="238.6" y="319.4" transform="matrix(0.97 -0.243 0.243 0.97 -68.7422 86.4976)" class="st30" width="155.3" height="5"/>
</g>
<g>
	<line class="st29" x1="391.6" y1="340.8" x2="241" y2="303.1"/>
	<rect x="313.7" y="244.3" transform="matrix(0.243 -0.97 0.97 0.243 -72.8991 550.456)" class="st30" width="5" height="155.3"/>
</g>
</svg>
