<?xml version="1.0" encoding="utf-8"?>

<svg version="1.1" id="Layer_1" xmlns="http://www.w3.org/2000/svg" xmlns:xlink="http://www.w3.org/1999/xlink" x="0px" y="0px"
	 width="600px" height="410px" viewBox="0 0 600 410" style="enable-background:new 0 0 600 410;" xml:space="preserve">
<style type="text/css">
	.st0{fill:#383838;}
	.st1{fill:#FFFFFF;}
	.st2{opacity:0.1;}
	.st3{fill:#383838;fill-opacity:0;}
	.st4{opacity:4.761905e-02;fill:#383838;enable-background:new    ;}
	.st5{opacity:9.523810e-02;fill:#383838;enable-background:new    ;}
	.st6{opacity:0.1429;fill:#383838;enable-background:new    ;}
	.st7{opacity:0.1905;fill:#383838;enable-background:new    ;}
	.st8{opacity:0.2381;fill:#383838;enable-background:new    ;}
	.st9{opacity:0.2857;fill:#383838;enable-background:new    ;}
	.st10{opacity:0.3333;fill:#383838;enable-background:new    ;}
	.st11{opacity:0.381;fill:#383838;enable-background:new    ;}
	.st12{opacity:0.4286;fill:#383838;enable-background:new    ;}
	.st13{opacity:0.4762;fill:#383838;enable-background:new    ;}
	.st14{opacity:0.5238;fill:#383838;enable-background:new    ;}
	.st15{opacity:0.5714;fill:#383838;enable-background:new    ;}
	.st16{opacity:0.619;fill:#383838;enable-background:new    ;}
	.st17{opacity:0.6667;fill:#383838;enable-background:new    ;}
	.st18{opacity:0.7143;fill:#383838;enable-background:new    ;}
	.st19{opacity:0.7619;fill:#383838;enable-background:new    ;}
	.st20{opacity:0.8095;fill:#383838;enable-background:new    ;}
	.st21{opacity:0.8571;fill:#383838;enable-background:new    ;}
	.st22{opacity:0.9048;fill:#383838;enable-background:new    ;}
	.st23{opacity:0.9524;fill:#383838;enable-background:new    ;}
	.st24{fill:#55ACEE;}
	.st25{fill:#E2E8ED;}
	.st26{fill:#101111;}
	.st27{fill:#81C5EF;}
	.st28{fill:#383E43;}
	.st29{fill:#292F33;}
	.st30{opacity:0.12;}
	.st31{opacity:0;}
	.st32{fill:#0D185E;}
	.st33{opacity:9.090909e-02;}
	.st34{opacity:0.1818;}
	.st35{opacity:0.2727;}
	.st36{opacity:0.3636;}
	.st37{opacity:0.4545;}
	.st38{opacity:0.5455;}
	.st39{opacity:0.6364;}
	.st40{opacity:0.7273;}
	.st41{opacity:0.8182;}
	.st42{opacity:0.9091;}
	.st43{fill:#FAFEFF;}
	.st44{opacity:0.15;}
</style>
<g>
	<path class="st0" d="M71.8,349h107.5c2,0,3.7-1.8,3.7-4v-69.5c0-2.2-1.7-4-3.7-4l-64,0.3c-1,0-1.9-0.4-2.6-1.2l-6.6-7.1
		c-0.7-0.7-1.6-1.2-2.6-1.2H71.8c-2,0-3.7,1.8-3.7,4V345C68.1,347.2,69.8,349,71.8,349z"/>
	<path class="st1" d="M173.2,329.5H78.7c-3.7,0-6.7-3-6.7-6.7v-42.6c0-3.7,3-6.7,6.7-6.7h94.5c3.7,0,6.7,3,6.7,6.7v42.6
		C179.9,326.6,176.9,329.5,173.2,329.5z"/>
	<g class="st2">
		<path class="st3" d="M173.4,330.1H78.8c-3.7,0-6.7-3-6.7-6.7v-42.6c0-3.7,3-6.7,6.7-6.7h94.5c3.7,0,6.7,3,6.7,6.7v42.6
			C180,327.1,177,330.1,173.4,330.1z"/>
		<path class="st4" d="M173.5,330.1H78.9c-3.7,0-6.7-3-6.7-6.7v-42.6c0-3.7,3-6.7,6.7-6.7h94.5c3.7,0,6.7,3,6.7,6.7v42.6
			C180.1,327.2,177.1,330.1,173.5,330.1z"/>
		<path class="st5" d="M173.5,330.2H79c-3.7,0-6.7-3-6.7-6.7V281c0-3.7,3-6.7,6.7-6.7h94.5c3.7,0,6.7,3,6.7,6.7v42.6
			C180.2,327.2,177.2,330.2,173.5,330.2z"/>
		<path class="st6" d="M173.6,330.3H79.1c-3.7,0-6.7-3-6.7-6.7V281c0-3.7,3-6.7,6.7-6.7h94.5c3.7,0,6.7,3,6.7,6.7v42.6
			C180.3,327.3,177.3,330.3,173.6,330.3z"/>
		<path class="st7" d="M173.7,330.4H79.2c-3.7,0-6.7-3-6.7-6.7v-42.6c0-3.7,3-6.7,6.7-6.7h94.5c3.7,0,6.7,3,6.7,6.7v42.6
			C180.4,327.4,177.4,330.4,173.7,330.4z"/>
		<path class="st8" d="M173.8,330.5H79.3c-3.7,0-6.7-3-6.7-6.7v-42.6c0-3.7,3-6.7,6.7-6.7h94.5c3.7,0,6.7,3,6.7,6.7v42.6
			C180.5,327.5,177.5,330.5,173.8,330.5z"/>
		<path class="st9" d="M173.9,330.5H79.4c-3.7,0-6.7-3-6.7-6.7v-42.6c0-3.7,3-6.7,6.7-6.7h94.5c3.7,0,6.7,3,6.7,6.7v42.6
			C180.6,327.6,177.6,330.5,173.9,330.5z"/>
		<path class="st10" d="M174,330.6H79.5c-3.7,0-6.7-3-6.7-6.7v-42.6c0-3.7,3-6.7,6.7-6.7H174c3.7,0,6.7,3,6.7,6.7V324
			C180.7,327.6,177.7,330.6,174,330.6z"/>
		<path class="st11" d="M174.1,330.7H79.6c-3.7,0-6.7-3-6.7-6.7v-42.6c0-3.7,3-6.7,6.7-6.7h94.5c3.7,0,6.7,3,6.7,6.7V324
			C180.8,327.7,177.8,330.7,174.1,330.7z"/>
		<path class="st12" d="M174.2,330.8H79.7c-3.7,0-6.7-3-6.7-6.7v-42.6c0-3.7,3-6.7,6.7-6.7h94.5c3.7,0,6.7,3,6.7,6.7v42.6
			C180.9,327.8,177.9,330.8,174.2,330.8z"/>
		<path class="st13" d="M174.3,330.9H79.8c-3.7,0-6.7-3-6.7-6.7v-42.6c0-3.7,3-6.7,6.7-6.7h94.5c3.7,0,6.7,3,6.7,6.7v42.6
			C181,327.9,178,330.9,174.3,330.9z"/>
		<path class="st14" d="M174.4,331H79.9c-3.7,0-6.7-3-6.7-6.7v-42.6c0-3.7,3-6.7,6.7-6.7h94.5c3.7,0,6.7,3,6.7,6.7v42.6
			C181.1,328,178.1,331,174.4,331z"/>
		<path class="st15" d="M174.5,331H80c-3.7,0-6.7-3-6.7-6.7v-42.6c0-3.7,3-6.7,6.7-6.7h94.5c3.7,0,6.7,3,6.7,6.7v42.6
			C181.2,328.1,178.2,331,174.5,331z"/>
		<path class="st16" d="M174.6,331.1H80.1c-3.7,0-6.7-3-6.7-6.7v-42.6c0-3.7,3-6.7,6.7-6.7h94.5c3.7,0,6.7,3,6.7,6.7v42.6
			C181.3,328.1,178.3,331.1,174.6,331.1z"/>
		<path class="st17" d="M174.7,331.2H80.2c-3.7,0-6.7-3-6.7-6.7V282c0-3.7,3-6.7,6.7-6.7h94.5c3.7,0,6.7,3,6.7,6.7v42.6
			C181.4,328.2,178.4,331.2,174.7,331.2z"/>
		<path class="st18" d="M174.8,331.3H80.3c-3.7,0-6.7-3-6.7-6.7V282c0-3.7,3-6.7,6.7-6.7h94.5c3.7,0,6.7,3,6.7,6.7v42.6
			C181.5,328.3,178.5,331.3,174.8,331.3z"/>
		<path class="st19" d="M174.9,331.4H80.4c-3.7,0-6.7-3-6.7-6.7v-42.6c0-3.7,3-6.7,6.7-6.7h94.5c3.7,0,6.7,3,6.7,6.7v42.6
			C181.6,328.4,178.6,331.4,174.9,331.4z"/>
		<path class="st20" d="M175,331.4H80.5c-3.7,0-6.7-3-6.7-6.7v-42.6c0-3.7,3-6.7,6.7-6.7H175c3.7,0,6.7,3,6.7,6.7v42.6
			C181.6,328.5,178.7,331.4,175,331.4z"/>
		<path class="st21" d="M175.1,331.5H80.6c-3.7,0-6.7-3-6.7-6.7v-42.6c0-3.7,3-6.7,6.7-6.7h94.5c3.7,0,6.7,3,6.7,6.7v42.6
			C181.7,328.5,178.8,331.5,175.1,331.5z"/>
		<path class="st22" d="M175.2,331.6H80.7c-3.7,0-6.7-3-6.7-6.7v-42.6c0-3.7,3-6.7,6.7-6.7h94.5c3.7,0,6.7,3,6.7,6.7v42.6
			C181.8,328.6,178.9,331.6,175.2,331.6z"/>
		<path class="st23" d="M175.3,331.7H80.8c-3.7,0-6.7-3-6.7-6.7v-42.6c0-3.7,3-6.7,6.7-6.7h94.5c3.7,0,6.7,3,6.7,6.7V325
			C181.9,328.7,179,331.7,175.3,331.7z"/>
		<path class="st0" d="M175.4,331.8H80.9c-3.7,0-6.7-3-6.7-6.7v-42.6c0-3.7,3-6.7,6.7-6.7h94.5c3.7,0,6.7,3,6.7,6.7v42.6
			C182,328.8,179,331.8,175.4,331.8z"/>
	</g>
	<path class="st1" d="M174.9,331.8H80.4c-3.7,0-6.7-3-6.7-6.7v-42.6c0-3.7,3-6.7,6.7-6.7h94.5c3.7,0,6.7,3,6.7,6.7v42.6
		C181.6,328.8,178.6,331.8,174.9,331.8z"/>
	<g class="st2">
		<path class="st3" d="M175.2,332.3H80.7c-3.7,0-6.7-3-6.7-6.7V283c0-3.7,3-6.7,6.7-6.7h94.5c3.7,0,6.7,3,6.7,6.7v42.6
			C181.9,329.3,178.9,332.3,175.2,332.3z"/>
		<path class="st4" d="M175.3,332.4H80.8c-3.7,0-6.7-3-6.7-6.7v-42.6c0-3.7,3-6.7,6.7-6.7h94.5c3.7,0,6.7,3,6.7,6.7v42.6
			C182,329.4,179,332.4,175.3,332.4z"/>
		<path class="st5" d="M175.4,332.5H80.9c-3.7,0-6.7-3-6.7-6.7v-42.6c0-3.7,3-6.7,6.7-6.7h94.5c3.7,0,6.7,3,6.7,6.7v42.6
			C182.1,329.5,179.1,332.5,175.4,332.5z"/>
		<path class="st6" d="M175.5,332.6H81c-3.7,0-6.7-3-6.7-6.7v-42.6c0-3.7,3-6.7,6.7-6.7h94.5c3.7,0,6.7,3,6.7,6.7v42.6
			C182.2,329.6,179.2,332.6,175.5,332.6z"/>
		<path class="st7" d="M175.6,332.6H81.1c-3.7,0-6.7-3-6.7-6.7v-42.6c0-3.7,3-6.7,6.7-6.7h94.5c3.7,0,6.7,3,6.7,6.7V326
			C182.3,329.7,179.3,332.6,175.6,332.6z"/>
		<path class="st8" d="M175.7,332.7H81.2c-3.7,0-6.7-3-6.7-6.7v-42.6c0-3.7,3-6.7,6.7-6.7h94.5c3.7,0,6.7,3,6.7,6.7V326
			C182.4,329.7,179.4,332.7,175.7,332.7z"/>
		<path class="st9" d="M175.8,332.8H81.3c-3.7,0-6.7-3-6.7-6.7v-42.6c0-3.7,3-6.7,6.7-6.7h94.5c3.7,0,6.7,3,6.7,6.7v42.6
			C182.5,329.8,179.5,332.8,175.8,332.8z"/>
		<path class="st10" d="M175.9,332.9H81.4c-3.7,0-6.7-3-6.7-6.7v-42.6c0-3.7,3-6.7,6.7-6.7h94.5c3.7,0,6.7,3,6.7,6.7v42.6
			C182.5,329.9,179.6,332.9,175.9,332.9z"/>
		<path class="st11" d="M176,333H81.5c-3.7,0-6.7-3-6.7-6.7v-42.6c0-3.7,3-6.7,6.7-6.7H176c3.7,0,6.7,3,6.7,6.7v42.6
			C182.6,330,179.7,333,176,333z"/>
		<path class="st12" d="M176.1,333.1H81.6c-3.7,0-6.7-3-6.7-6.7v-42.6c0-3.7,3-6.7,6.7-6.7h94.5c3.7,0,6.7,3,6.7,6.7v42.6
			C182.7,330.1,179.8,333.1,176.1,333.1z"/>
		<path class="st13" d="M176.2,333.1H81.7c-3.7,0-6.7-3-6.7-6.7v-42.6c0-3.7,3-6.7,6.7-6.7h94.5c3.7,0,6.7,3,6.7,6.7v42.6
			C182.8,330.2,179.9,333.1,176.2,333.1z"/>
		<path class="st14" d="M176.3,333.2H81.8c-3.7,0-6.7-3-6.7-6.7V284c0-3.7,3-6.7,6.7-6.7h94.5c3.7,0,6.7,3,6.7,6.7v42.6
			C182.9,330.2,179.9,333.2,176.3,333.2z"/>
		<path class="st15" d="M176.4,333.3H81.8c-3.7,0-6.7-3-6.7-6.7V284c0-3.7,3-6.7,6.7-6.7h94.5c3.7,0,6.7,3,6.7,6.7v42.6
			C183,330.3,180,333.3,176.4,333.3z"/>
		<path class="st16" d="M176.5,333.4H81.9c-3.7,0-6.7-3-6.7-6.7v-42.6c0-3.7,3-6.7,6.7-6.7h94.5c3.7,0,6.7,3,6.7,6.7v42.6
			C183.1,330.4,180.1,333.4,176.5,333.4z"/>
		<path class="st17" d="M176.6,333.5H82c-3.7,0-6.7-3-6.7-6.7v-42.6c0-3.7,3-6.7,6.7-6.7h94.5c3.7,0,6.7,3,6.7,6.7v42.6
			C183.2,330.5,180.2,333.5,176.6,333.5z"/>
		<path class="st18" d="M176.6,333.5H82.1c-3.7,0-6.7-3-6.7-6.7v-42.6c0-3.7,3-6.7,6.7-6.7h94.5c3.7,0,6.7,3,6.7,6.7v42.6
			C183.3,330.6,180.3,333.5,176.6,333.5z"/>
		<path class="st19" d="M176.7,333.6H82.2c-3.7,0-6.7-3-6.7-6.7v-42.6c0-3.7,3-6.7,6.7-6.7h94.5c3.7,0,6.7,3,6.7,6.7V327
			C183.4,330.6,180.4,333.6,176.7,333.6z"/>
		<path class="st20" d="M176.8,333.7H82.3c-3.7,0-6.7-3-6.7-6.7v-42.6c0-3.7,3-6.7,6.7-6.7h94.5c3.7,0,6.7,3,6.7,6.7V327
			C183.5,330.7,180.5,333.7,176.8,333.7z"/>
		<path class="st21" d="M176.9,333.8H82.4c-3.7,0-6.7-3-6.7-6.7v-42.6c0-3.7,3-6.7,6.7-6.7h94.5c3.7,0,6.7,3,6.7,6.7v42.6
			C183.6,330.8,180.6,333.8,176.9,333.8z"/>
		<path class="st22" d="M177,333.9H82.5c-3.7,0-6.7-3-6.7-6.7v-42.6c0-3.7,3-6.7,6.7-6.7H177c3.7,0,6.7,3,6.7,6.7v42.6
			C183.7,330.9,180.7,333.9,177,333.9z"/>
		<path class="st23" d="M177.1,334H82.6c-3.7,0-6.7-3-6.7-6.7v-42.6c0-3.7,3-6.7,6.7-6.7h94.5c3.7,0,6.7,3,6.7,6.7v42.6
			C183.8,331,180.8,334,177.1,334z"/>
		<path class="st0" d="M177.2,334H82.7c-3.7,0-6.7-3-6.7-6.7v-42.6c0-3.7,3-6.7,6.7-6.7h94.5c3.7,0,6.7,3,6.7,6.7v42.6
			C183.9,331.1,180.9,334,177.2,334z"/>
	</g>
	<path class="st1" d="M177.2,334H82.7c-3.7,0-6.7-3-6.7-6.7v-42.6c0-3.7,3-6.7,6.7-6.7h94.5c3.7,0,6.7,3,6.7,6.7v42.6
		C183.9,331.1,180.9,334,177.2,334z"/>
	<g>
		<path class="st24" d="M185.1,362.5h-114c-2.2,0-3.9-1.8-3.9-4v-68.4c0-2.2,1.8-4,3.9-4h57.3c1,0,1.4-0.1,2.1-0.9l7-7
			c0.7-0.7,1.7-1.1,2.7-1.1h44.9c2.2,0,3.9,1.8,3.9,4v77.4C189,360.8,187.3,362.5,185.1,362.5z"/>
	</g>
</g>
<g>
	<g>
		<path class="st25" d="M557.6,202.1H435.8c-3.1,0-5.6-2.5-5.6-5.6v-81.1c0-3.1,2.5-5.6,5.6-5.6h121.8c3.1,0,5.6,2.5,5.6,5.6v81.1
			C563.2,199.6,560.7,202.1,557.6,202.1z"/>
		<path class="st24" d="M558.3,204.2H435.1c-3.9,0-7.1-3.2-7.1-7.1v-82.5c0-3.9,3.2-7.1,7.1-7.1h123.1c3.9,0,7.1,3.2,7.1,7.1v82.5
			C565.3,201.1,562.2,204.2,558.3,204.2z M435.1,111.8c-1.6,0-2.9,1.3-2.9,2.9v82.5c0,1.6,1.3,2.9,2.9,2.9h123.1
			c1.6,0,2.9-1.3,2.9-2.9v-82.5c0-1.6-1.3-2.9-2.9-2.9C558.2,111.8,435.1,111.8,435.1,111.8z"/>
	</g>
	<path class="st0" d="M484,146.9l-21.7,37.5c-0.9,1.6,0.2,3.7,2.1,3.7h43.3c1.9,0,3.1-2,2.1-3.7l-21.7-37.5
		C487.3,145.2,484.9,145.2,484,146.9z"/>
	<path class="st0" d="M515.7,134.9l-28.6,49.5c-0.9,1.6,0.2,3.7,2.1,3.7h57.1c1.9,0,3.1-2,2.1-3.7l-28.6-49.5
		C519,133.3,516.6,133.3,515.7,134.9z"/>
	<circle class="st0" cx="452.5" cy="137.8" r="13.6"/>
</g>
<path class="st24" d="M353.8,218l2.1,1.7l-2.5,4.4l-2.5-0.9c-2.1-0.8-4.3,1.4-3.5,3.5l0.9,2.5l-4.4,2.5l-1.7-2.1
	c-1.4-1.8-4.4-0.9-4.8,1.3l-0.4,2.7h-2.5v-11.9c6.3,0,11.4-5.1,11.4-11.4c0-6.3-5.1-11.4-11.4-11.4V187h2.5l0.4,2.7
	c0.4,2.2,3.3,3,4.8,1.3l1.7-2.1l4.4,2.5l-0.9,2.5c-0.8,2.1,1.4,4.3,3.5,3.5l2.5-0.9l2.5,4.4l-2.1,1.7c-1.7,1.4-1,4.4,1.3,4.8
	l2.7,0.4v5.1l-2.7,0.4C352.9,213.6,352.1,216.6,353.8,218L353.8,218z"/>
<path class="st26" d="M346.8,210.3c0,6.8-5.5,12.3-12.3,12.3v-5.5c3.8,0,6.8-3.1,6.8-6.8s-3.1-6.8-6.8-6.8V198
	C341.3,198,346.8,203.5,346.8,210.3z"/>
<path class="st27" d="M305.6,221.3l4-0.6v-7.4l-4-0.6c-3.3-0.6-4.4-4.9-1.9-7l3-2.5l-3.7-6.4l-3.7,1.4c-3.1,1.2-6.3-2-5.1-5.1
	l1.4-3.7l-6.4-3.7l-2.5,3c-2.1,2.6-6.4,1.4-7-1.9l-0.6-4h-7.4l-0.6,4c-0.6,3.3-4.9,4.4-7,1.9l-2.5-3l-6.4,3.7l1.4,3.7
	c1.2,3.1-2,6.3-5.1,5.1l-3.7-1.4l-3.7,6.4l3,2.5c2.5,2.1,1.4,6.4-1.9,7l-4,0.6v7.4l4,0.6c3.3,0.6,4.4,4.9,1.9,7l-3,2.5l3.7,6.4
	l3.7-1.4c3.1-1.2,6.3,2,5.1,5.1l-1.4,3.7l6.4,3.7l2.5-3c2.1-2.5,6.4-1.4,7,1.9l0.6,4h7.4l0.6-4c0.5-3.3,4.9-4.4,7-1.9l2.5,3l6.4-3.7
	l-1.4-3.7c-1.2-3.1,2-6.3,5.1-5.1l3.7,1.4l3.7-6.4l-3-2.5C301.2,226.2,302.4,221.9,305.6,221.3z M275.5,233.6
	c-9.2,0-16.7-7.5-16.7-16.7s7.5-16.7,16.7-16.7s16.7,7.5,16.7,16.7C292.1,226.2,284.7,233.6,275.5,233.6z"/>
<path class="st24" d="M303.8,228.3l3,2.5l-3.7,6.4l-3.7-1.4c-3.1-1.2-6.3,2-5.1,5.1l1.4,3.7l-6.4,3.7l-2.5-3c-2.1-2.6-6.4-1.4-7,1.9
	l-0.6,4h-3.7v-17.5c9.2,0,16.7-7.5,16.7-16.7s-7.5-16.7-16.7-16.7v-17.5h3.7l0.6,4c0.6,3.3,4.9,4.4,7,1.9l2.5-3l6.4,3.7l-1.4,3.7
	c-1.2,3.1,2,6.3,5.1,5.1l3.7-1.4l3.7,6.4l-3,2.5c-2.6,2.1-1.4,6.4,1.9,7l4,0.6v7.4l-4,0.6C302.4,221.9,301.2,226.2,303.8,228.3
	L303.8,228.3z"/>
<path class="st28" d="M275.5,199c-9.9,0-18,8.1-18,18s8.1,18,18,18s18-8.1,18-18S285.4,199,275.5,199z M275.5,227
	c-5.5,0-10-4.5-10-10s4.5-10,10-10s10,4.5,10,10S281,227,275.5,227z"/>
<path class="st26" d="M293.5,217c0,9.9-8.1,18-18,18v-8c5.5,0,10-4.5,10-10s-4.5-10-10-10v-8C285.4,199,293.5,207,293.5,217z"/>
<path class="st27" d="M332.5,254.3l1.9-0.3v-3.6l-1.9-0.3c-1.6-0.3-2.2-2.4-0.9-3.4l1.5-1.2l-1.8-3.1l-1.8,0.7
	c-1.5,0.6-3.1-1-2.5-2.5l0.7-1.8l-3.1-1.8l-1.2,1.5c-1,1.2-3.1,0.7-3.4-0.9l-0.3-1.9H316l-0.3,1.9c-0.3,1.6-2.4,2.2-3.4,0.9
	l-1.2-1.5l-3.1,1.8l0.7,1.8c0.6,1.5-1,3.1-2.5,2.5l-1.8-0.7l-1.8,3.1l1.5,1.2c1.2,1,0.7,3.1-0.9,3.4l-1.9,0.3v3.6l1.9,0.3
	c1.6,0.3,2.2,2.4,0.9,3.4l-1.5,1.2l1.8,3.1l1.8-0.7c1.5-0.6,3.1,1,2.5,2.5l-0.7,1.8l3.1,1.8l1.2-1.5c1-1.2,3.1-0.7,3.4,0.9l0.3,1.9
	h3.6l0.3-1.9c0.3-1.6,2.4-2.2,3.4-0.9l1.2,1.5l3.1-1.8l-0.7-1.8c-0.6-1.5,1-3.1,2.5-2.5l1.8,0.7l1.8-3.1l-1.5-1.2
	C330.4,256.7,330.9,254.6,332.5,254.3z M317.8,260.3c-4.5,0-8.1-3.7-8.1-8.1c0-4.5,3.7-8.1,8.1-8.1s8.1,3.7,8.1,8.1
	C326,256.7,322.3,260.3,317.8,260.3z"/>
<path class="st24" d="M331.6,257.7l1.5,1.2l-1.8,3.1l-1.8-0.7c-1.5-0.6-3.1,1-2.5,2.5l0.7,1.8l-3.1,1.8l-1.2-1.5
	c-1-1.3-3.1-0.7-3.4,0.9l-0.3,1.9h-1.8v-8.5c4.5,0,8.1-3.7,8.1-8.1c0-4.5-3.7-8.1-8.1-8.1v-8.5h1.8l0.3,1.9c0.3,1.6,2.4,2.2,3.4,0.9
	l1.2-1.5l3.1,1.8l-0.7,1.8c-0.6,1.5,1,3.1,2.5,2.5l1.8-0.7l1.8,3.1l-1.5,1.2c-1.2,1-0.7,3.1,0.9,3.4l1.9,0.3v3.6l-1.9,0.3
	C330.9,254.6,330.4,256.7,331.6,257.7L331.6,257.7z"/>
<path class="st28" d="M317.8,243.4c-4.8,0-8.8,3.9-8.8,8.8c0,4.8,3.9,8.8,8.8,8.8c4.8,0,8.8-3.9,8.8-8.8
	C326.6,247.3,322.7,243.4,317.8,243.4z M317.8,257.1c-2.7,0-4.9-2.2-4.9-4.9s2.2-4.9,4.9-4.9c2.7,0,4.9,2.2,4.9,4.9
	C322.7,254.9,320.5,257.1,317.8,257.1z"/>
<path class="st26" d="M326.6,252.2c0,4.8-3.9,8.8-8.8,8.8v-3.9c2.7,0,4.9-2.2,4.9-4.9s-2.2-4.9-4.9-4.9v-3.9
	C322.7,243.4,326.6,247.3,326.6,252.2z"/>
<path class="st27" d="M355.1,213.3l2.7-0.4v-5.1l-2.7-0.4c-2.2-0.4-3-3.3-1.3-4.8l2.1-1.7l-2.5-4.4l-2.5,0.9
	c-2.1,0.8-4.3-1.4-3.5-3.5l0.9-2.5l-4.4-2.5l-1.7,2.1c-1.4,1.7-4.4,1-4.8-1.3L337,187h-5.1l-0.4,2.7c-0.4,2.2-3.3,3-4.8,1.3
	l-1.7-2.1l-4.4,2.5l0.9,2.5c0.8,2.1-1.4,4.3-3.5,3.5l-2.5-0.9l-2.5,4.4l2.1,1.7c1.7,1.4,1,4.4-1.3,4.8l-2.7,0.4v5.1l2.7,0.4
	c2.2,0.4,3,3.3,1.3,4.8l-2.1,1.7l2.5,4.4l2.5-0.9c2.1-0.8,4.3,1.3,3.5,3.5l-0.9,2.5l4.4,2.5l1.7-2.1c1.4-1.7,4.4-1,4.8,1.3l0.4,2.7
	h5.1l0.4-2.7c0.4-2.2,3.3-3,4.8-1.3l1.7,2.1l4.4-2.5l-0.9-2.5c-0.8-2.1,1.3-4.3,3.5-3.5l2.5,0.9l2.5-4.4l-2.1-1.7
	C352.1,216.6,352.9,213.6,355.1,213.3z M334.5,221.7c-6.3,0-11.4-5.1-11.4-11.4c0-6.3,5.1-11.4,11.4-11.4s11.4,5.1,11.4,11.4
	C345.9,216.6,340.8,221.7,334.5,221.7z"/>
<path class="st28" d="M334.5,198c-6.8,0-12.3,5.5-12.3,12.3s5.5,12.3,12.3,12.3s12.3-5.5,12.3-12.3S341.3,198,334.5,198z
	 M334.5,217.1c-3.8,0-6.8-3.1-6.8-6.8s3.1-6.8,6.8-6.8c3.8,0,6.8,3.1,6.8,6.8S338.2,217.1,334.5,217.1z"/>
<g>
	<path class="st27" d="M300,291.6c-40.2,0-72.9-32.7-72.9-72.9s32.7-72.9,72.9-72.9s72.9,32.7,72.9,72.9S340.2,291.6,300,291.6z
		 M300,148.8c-38.5,0-69.9,31.3-69.9,69.9c0,38.5,31.3,69.9,69.9,69.9s69.9-31.3,69.9-69.9C369.9,180.2,338.5,148.8,300,148.8z"/>
</g>
<g>
	<path class="st0" d="M298.8,299.1c-0.8,0-1.5-0.7-1.5-1.5l0,0c0-0.8,0.7-1.5,1.5-1.5l0,0c0.8,0,1.5,0.7,1.5,1.5l0,0
		C300.3,298.5,299.6,299.1,298.8,299.1L298.8,299.1L298.8,299.1z M302.3,297.6c0-0.8,0.6-1.5,1.4-1.6l0,0c0.8,0,1.5,0.6,1.6,1.4l0,0
		c0,0.8-0.6,1.5-1.4,1.6l0,0h-0.1l0,0C303,299,302.3,298.4,302.3,297.6z M293.7,298.9c-0.8-0.1-1.4-0.8-1.4-1.6l0,0
		c0.1-0.8,0.8-1.5,1.6-1.4l0,0c0.8,0.1,1.4,0.8,1.4,1.6l0,0c-0.1,0.8-0.7,1.4-1.5,1.4l0,0C293.8,298.9,293.7,298.9,293.7,298.9z
		 M307.3,297.3c-0.1-0.8,0.5-1.6,1.3-1.7l0,0c0.8-0.1,1.6,0.5,1.7,1.3l0,0c0.1,0.8-0.5,1.6-1.3,1.7l0,0c-0.1,0-0.1,0-0.2,0l0,0
		C308,298.6,307.4,298.1,307.3,297.3z M288.6,298.3c-0.8-0.1-1.4-0.9-1.3-1.7l0,0c0.1-0.8,0.9-1.4,1.7-1.3l0,0
		c0.8,0.1,1.4,0.9,1.3,1.7l0,0c-0.1,0.8-0.8,1.3-1.5,1.3l0,0C288.8,298.3,288.7,298.3,288.6,298.3z M312.3,296.7
		c-0.1-0.8,0.4-1.6,1.2-1.7l0,0c0.8-0.2,1.6,0.4,1.7,1.2l0,0c0.2,0.8-0.4,1.6-1.2,1.7l0,0c-0.1,0-0.2,0-0.3,0l0,0
		C313,297.9,312.4,297.4,312.3,296.7z M283.6,297.5c-0.8-0.2-1.3-1-1.2-1.8l0,0c0.2-0.8,1-1.3,1.8-1.2l0,0c0.8,0.2,1.3,1,1.2,1.8
		l0,0c-0.1,0.7-0.8,1.2-1.5,1.2l0,0C283.8,297.5,283.7,297.5,283.6,297.5z M317.2,295.8c-0.2-0.8,0.3-1.6,1.1-1.8l0,0
		c0.8-0.2,1.6,0.3,1.8,1.1l0,0c0.2,0.8-0.3,1.6-1.1,1.8l0,0l0,0l0,0c-0.1,0-0.2,0-0.4,0l0,0C318,296.9,317.4,296.5,317.2,295.8z
		 M278.6,296.3c-0.8-0.2-1.3-1-1-1.8l0,0c0.2-0.8,1-1.3,1.8-1.1l0,0c0.8,0.2,1.3,1,1.1,1.8l0,0c-0.2,0.7-0.8,1.1-1.4,1.1l0,0
		C278.9,296.3,278.8,296.3,278.6,296.3z M322,294.5c-0.3-0.8,0.2-1.6,1-1.9l0,0c0.8-0.2,1.6,0.2,1.9,1l0,0c0.2,0.8-0.2,1.6-1,1.9
		l0,0c-0.2,0-0.3,0.1-0.5,0.1l0,0C322.8,295.6,322.2,295.2,322,294.5z M273.7,294.7c-0.8-0.3-1.2-1.1-0.9-1.9l0,0
		c0.3-0.8,1.1-1.2,1.9-0.9l0,0c0.8,0.3,1.2,1.1,0.9,1.9l0,0c-0.2,0.6-0.8,1-1.4,1l0,0C274.1,294.8,273.9,294.8,273.7,294.7z
		 M326.8,293c-0.3-0.8,0.1-1.6,0.9-1.9l0,0c0.8-0.3,1.6,0.1,1.9,0.9l0,0c0.3,0.8-0.1,1.6-0.9,1.9l0,0c-0.2,0.1-0.4,0.1-0.5,0.1l0,0
		C327.6,293.9,327,293.6,326.8,293z M269,292.9L269,292.9L269,292.9c-0.8-0.3-1.1-1.2-0.8-2l0,0c0.3-0.8,1.2-1.1,2-0.8l0,0
		c0.8,0.3,1.1,1.2,0.8,2l0,0c-0.2,0.6-0.8,0.9-1.4,0.9l0,0C269.3,293,269.2,293,269,292.9z M331.5,291.1c-0.3-0.8,0-1.7,0.7-2l0,0
		c0.8-0.3,1.6,0,2,0.7l0,0c0.3,0.8,0,1.6-0.7,2l0,0c-0.2,0.1-0.4,0.1-0.6,0.1l0,0C332.3,292,331.7,291.7,331.5,291.1z M264.3,290.8
		c-0.7-0.4-1-1.3-0.7-2l0,0c0.4-0.8,1.3-1,2-0.7l0,0c0.7,0.4,1,1.3,0.7,2l0,0c-0.3,0.5-0.8,0.8-1.3,0.8l0,0
		C264.8,291,264.5,290.9,264.3,290.8z M336,289c-0.4-0.7-0.1-1.6,0.6-2l0,0c0.7-0.4,1.6-0.1,2,0.6l0,0c0.4,0.7,0.1,1.6-0.6,2l0,0
		c-0.2,0.1-0.5,0.2-0.7,0.2l0,0C336.8,289.8,336.2,289.5,336,289z M259.8,288.4c-0.7-0.4-1-1.3-0.5-2l0,0c0.4-0.7,1.3-1,2-0.5l0,0
		c0.7,0.4,1,1.3,0.5,2l0,0c-0.3,0.5-0.8,0.8-1.3,0.8l0,0C260.3,288.6,260,288.5,259.8,288.4z M340.3,286.6c-0.4-0.7-0.2-1.6,0.5-2.1
		l0,0c0.7-0.4,1.6-0.2,2.1,0.5l0,0c0.4,0.7,0.2,1.6-0.5,2.1l0,0c-0.2,0.2-0.5,0.2-0.8,0.2l0,0C341.1,287.3,340.6,287,340.3,286.6z
		 M255.5,285.7L255.5,285.7L255.5,285.7c-0.7-0.5-0.9-1.4-0.4-2.1l0,0c0.5-0.7,1.4-0.9,2.1-0.4l0,0c0.7,0.5,0.9,1.4,0.4,2.1l0,0
		c-0.3,0.4-0.8,0.7-1.3,0.7l0,0C256,285.9,255.7,285.9,255.5,285.7z M344.6,283.9c-0.5-0.7-0.3-1.6,0.4-2.1l0,0
		c0.7-0.5,1.6-0.3,2.1,0.4l0,0c0.5,0.7,0.3,1.6-0.3,2.1l0,0c-0.3,0.2-0.6,0.3-0.9,0.3l0,0C345.3,284.5,344.9,284.3,344.6,283.9z
		 M251.3,282.7c-0.7-0.5-0.8-1.4-0.3-2.1l0,0c0.5-0.7,1.4-0.8,2.1-0.3l0,0c0.7,0.5,0.8,1.4,0.3,2.1l0,0c-0.3,0.4-0.7,0.6-1.2,0.6
		l0,0C251.9,283,251.6,282.9,251.3,282.7z M348.6,280.9c-0.5-0.6-0.4-1.6,0.2-2.1l0,0c0.6-0.5,1.6-0.4,2.1,0.2l0,0
		c0.5,0.7,0.4,1.6-0.2,2.1l0,0c-0.3,0.2-0.6,0.3-1,0.3l0,0C349.3,281.5,348.9,281.3,348.6,280.9z M247.4,279.5
		c-0.6-0.5-0.7-1.5-0.1-2.1l0,0c0.5-0.6,1.5-0.7,2.1-0.1l0,0c0.6,0.5,0.7,1.5,0.2,2.1l0,0c-0.3,0.3-0.7,0.5-1.1,0.5l0,0
		C248,279.9,247.6,279.8,247.4,279.5z M352.5,277.7c-0.6-0.6-0.5-1.6,0.1-2.1l0,0c0.6-0.6,1.6-0.5,2.1,0.1l0,0
		c0.6,0.6,0.5,1.6-0.1,2.1l0,0c-0.3,0.3-0.6,0.4-1,0.4l0,0C353.1,278.2,352.7,278,352.5,277.7z M243.6,276c-0.6-0.6-0.6-1.5,0-2.1
		l0,0c0.6-0.6,1.5-0.6,2.1,0l0,0c0.6,0.6,0.6,1.5,0,2.1l0,0c-0.3,0.3-0.7,0.4-1.1,0.4l0,0C244.3,276.5,243.9,276.3,243.6,276z
		 M356.1,274.3c-0.6-0.6-0.6-1.5,0-2.1l0,0c0.6-0.6,1.5-0.6,2.1,0l0,0c0.6,0.6,0.6,1.5,0.1,2.1l0,0c-0.3,0.3-0.7,0.5-1.1,0.5l0,0
		C356.8,274.7,356.4,274.5,356.1,274.3z M240.1,272.4c-0.6-0.6-0.5-1.6,0.1-2.1l0,0c0.6-0.6,1.6-0.5,2.1,0.1l0,0
		c0.5,0.6,0.5,1.6-0.1,2.1l0,0c-0.3,0.3-0.6,0.4-1,0.4l0,0C240.8,272.8,240.4,272.7,240.1,272.4z M359.5,270.6
		c-0.6-0.5-0.7-1.5-0.2-2.1l0,0c0.5-0.6,1.5-0.7,2.1-0.2l0,0c0.6,0.5,0.7,1.5,0.2,2.1l0,0l0,0l0,0c-0.3,0.4-0.7,0.5-1.1,0.5l0,0
		C360.1,270.9,359.8,270.8,359.5,270.6z M236.8,268.5L236.8,268.5L236.8,268.5c-0.5-0.7-0.4-1.6,0.3-2.1l0,0
		c0.6-0.5,1.6-0.4,2.1,0.3l0,0c0.5,0.6,0.4,1.6-0.3,2.1l0,0c-0.3,0.2-0.6,0.3-0.9,0.3l0,0C237.5,269,237.1,268.8,236.8,268.5z
		 M362.7,266.7c-0.7-0.5-0.8-1.4-0.3-2.1l0,0c0.5-0.7,1.4-0.8,2.1-0.3l0,0c0.7,0.5,0.8,1.4,0.3,2.1l0,0c-0.3,0.4-0.8,0.6-1.2,0.6
		l0,0C363.3,267,362.9,266.9,362.7,266.7z M233.8,264.3L233.8,264.3L233.8,264.3c-0.5-0.7-0.3-1.6,0.4-2.1l0,0
		c0.7-0.5,1.6-0.3,2.1,0.4l0,0c0.5,0.7,0.3,1.6-0.4,2.1l0,0c-0.3,0.2-0.6,0.3-0.9,0.3l0,0C234.5,265,234.1,264.8,233.8,264.3z
		 M365.6,262.6c-0.7-0.5-0.9-1.4-0.5-2.1l0,0c0.5-0.7,1.4-0.9,2.1-0.5l0,0c0.7,0.5,0.9,1.4,0.5,2.1l0,0l0,0l0,0
		c-0.3,0.4-0.8,0.7-1.3,0.7l0,0C366.1,262.9,365.8,262.8,365.6,262.6z M231,260.1c-0.4-0.7-0.2-1.6,0.5-2l0,0
		c0.7-0.4,1.6-0.2,2.1,0.5l0,0c0.4,0.7,0.2,1.6-0.5,2.1l0,0c-0.2,0.1-0.5,0.2-0.8,0.2l0,0C231.8,260.8,231.3,260.5,231,260.1z
		 M368.3,258.4c-0.7-0.4-1-1.3-0.6-2l0,0c0.4-0.7,1.3-1,2-0.6l0,0c0.7,0.4,1,1.3,0.6,2l0,0l0,0l0,0c-0.3,0.5-0.8,0.8-1.3,0.8l0,0
		C368.7,258.6,368.5,258.5,368.3,258.4z M228.5,255.6c-0.4-0.7-0.1-1.6,0.6-2l0,0c0.7-0.4,1.6-0.1,2,0.6l0,0c0.4,0.7,0.1,1.7-0.6,2
		l0,0c-0.2,0.1-0.5,0.2-0.7,0.2l0,0C229.3,256.4,228.8,256.1,228.5,255.6z M370.6,254c-0.8-0.4-1.1-1.3-0.7-2l0,0
		c0.4-0.8,1.3-1.1,2-0.7l0,0c0.8,0.4,1.1,1.3,0.7,2l0,0l0,0l0,0c-0.3,0.5-0.8,0.9-1.4,0.9l0,0C371.1,254.1,370.8,254.1,370.6,254z
		 M226.3,251c-0.3-0.8,0-1.6,0.8-2l0,0c0.8-0.3,1.6,0,2,0.8l0,0c0.3,0.8,0,1.6-0.8,2l0,0c-0.2,0.1-0.4,0.1-0.6,0.1l0,0
		C227.1,251.9,226.6,251.6,226.3,251z M372.7,249.4c-0.8-0.3-1.1-1.2-0.8-2l0,0c0.3-0.8,1.2-1.1,2-0.8l0,0c0.8,0.3,1.2,1.2,0.8,2
		l0,0c-0.2,0.6-0.8,0.9-1.4,0.9l0,0C373.1,249.5,372.9,249.5,372.7,249.4z M224.4,246.3L224.4,246.3L224.4,246.3
		c-0.3-0.8,0.1-1.6,0.9-1.9l0,0c0.8-0.3,1.6,0.1,1.9,0.9l0,0c0.3,0.8-0.1,1.6-0.9,1.9l0,0c-0.2,0.1-0.3,0.1-0.5,0.1l0,0
		C225.2,247.3,224.6,246.9,224.4,246.3z M374.5,244.8c-0.8-0.3-1.2-1.1-1-1.9l0,0c0.3-0.8,1.1-1.2,1.9-1l0,0c0.8,0.3,1.2,1.1,1,1.9
		l0,0l0,0l0,0c-0.2,0.6-0.8,1-1.4,1l0,0C374.8,244.8,374.7,244.8,374.5,244.8z M222.8,241.4L222.8,241.4L222.8,241.4
		c-0.2-0.8,0.2-1.6,1-1.9l0,0c0.8-0.2,1.6,0.2,1.9,1l0,0c0.2,0.8-0.2,1.6-1,1.9l0,0c-0.1,0-0.3,0.1-0.4,0.1l0,0
		C223.6,242.5,223,242.1,222.8,241.4z M376,240c-0.8-0.2-1.3-1-1.1-1.8l0,0c0.2-0.8,1-1.3,1.8-1.1l0,0c0.8,0.2,1.3,1,1.1,1.8l0,0
		l0,0l0,0c-0.2,0.7-0.8,1.1-1.5,1.1l0,0C376.3,240,376.2,240,376,240z M221.5,236.5L221.5,236.5L221.5,236.5
		c-0.2-0.8,0.3-1.6,1.1-1.8l0,0c0.8-0.2,1.6,0.3,1.8,1.1l0,0c0.2,0.8-0.3,1.6-1.1,1.8l0,0c-0.1,0-0.2,0-0.3,0l0,0
		C222.3,237.7,221.7,237.2,221.5,236.5z M377.2,235.1c-0.8-0.1-1.3-0.9-1.2-1.8l0,0c0.2-0.8,0.9-1.3,1.8-1.2l0,0
		c0.8,0.1,1.3,0.9,1.2,1.8l0,0l0,0l0,0c-0.1,0.7-0.8,1.2-1.5,1.2l0,0C377.4,235.1,377.3,235.1,377.2,235.1z M220.6,231.5
		L220.6,231.5L220.6,231.5c-0.1-0.8,0.4-1.6,1.3-1.7l0,0c0.8-0.1,1.6,0.4,1.7,1.3l0,0c0.1,0.8-0.4,1.6-1.3,1.7l0,0
		c-0.1,0-0.2,0-0.2,0l0,0C221.3,232.8,220.7,232.2,220.6,231.5z M378.1,230.2c-0.8-0.1-1.4-0.9-1.3-1.7l0,0c0.1-0.8,0.9-1.4,1.7-1.3
		l0,0c0.8,0.1,1.4,0.8,1.3,1.7l0,0l0,0l0,0c-0.1,0.8-0.7,1.3-1.5,1.3l0,0C378.2,230.2,378.2,230.2,378.1,230.2z M219.9,226.4
		c-0.1-0.8,0.5-1.5,1.4-1.6l0,0c0.8-0.1,1.6,0.5,1.6,1.3l0,0c0.1,0.8-0.5,1.6-1.4,1.6l0,0h-0.1l0,0
		C220.7,227.8,220,227.2,219.9,226.4z M378.7,225.2c-0.8-0.1-1.5-0.8-1.4-1.6l0,0c0-0.8,0.8-1.5,1.6-1.4l0,0
		c0.8,0.1,1.4,0.8,1.4,1.6l0,0C380.2,224.6,379.6,225.2,378.7,225.2L378.7,225.2L378.7,225.2z M219.6,221.3L219.6,221.3L219.6,221.3
		c0-0.8,0.6-1.5,1.5-1.5l0,0c0.8,0,1.5,0.6,1.5,1.5l0,0c0,0.8-0.6,1.5-1.5,1.5l0,0l0,0l0,0C220.3,222.8,219.6,222.1,219.6,221.3z
		 M377.4,218.7L377.4,218.7C377.4,218.7,377.4,218.6,377.4,218.7L377.4,218.7c0-0.1,0-0.2,0-0.2l0,0c0-0.8,0.7-1.5,1.5-1.5l0,0
		c0.8,0,1.5,0.7,1.5,1.5l0,0v0.1l0,0v0.1l0,0c0,0.8-0.7,1.5-1.5,1.5l0,0C378.1,220.2,377.4,219.5,377.4,218.7z M221.1,217.8
		c-0.8,0-1.5-0.7-1.5-1.5l0,0c0-0.8,0.7-1.5,1.5-1.5l0,0c0.8,0,1.5,0.7,1.5,1.5l0,0C222.6,217.1,221.9,217.8,221.1,217.8
		L221.1,217.8L221.1,217.8z M377.3,213.6c0-0.8,0.6-1.5,1.4-1.6l0,0c0.8,0,1.5,0.6,1.6,1.4l0,0l0,0l0,0c0,0.8-0.6,1.5-1.4,1.6l0,0
		h-0.1l0,0C378,215,377.3,214.4,377.3,213.6z M221.3,212.8c-0.8-0.1-1.4-0.8-1.4-1.6l0,0l0,0l0,0c0.1-0.8,0.8-1.4,1.6-1.4l0,0
		c0.8,0.1,1.4,0.8,1.4,1.6l0,0c-0.1,0.8-0.7,1.4-1.5,1.4l0,0C221.4,212.8,221.3,212.8,221.3,212.8z M376.8,208.7L376.8,208.7
		c-0.1-0.8,0.5-1.6,1.3-1.7l0,0c0.8-0.1,1.6,0.5,1.7,1.3l0,0l0,0l0,0c0.1,0.8-0.5,1.6-1.3,1.7l0,0c-0.1,0-0.1,0-0.2,0l0,0
		C377.5,210,376.9,209.5,376.8,208.7z M221.8,207.8c-0.8-0.1-1.4-0.9-1.3-1.7l0,0c0.1-0.8,0.9-1.4,1.7-1.3l0,0
		c0.8,0.1,1.4,0.9,1.3,1.7l0,0c-0.1,0.7-0.8,1.3-1.5,1.3l0,0C222,207.8,221.9,207.8,221.8,207.8z M376,203.9
		c-0.2-0.8,0.4-1.6,1.2-1.8l0,0c0.8-0.2,1.6,0.4,1.8,1.2l0,0c0.2,0.8-0.4,1.6-1.2,1.8l0,0c-0.1,0-0.2,0-0.3,0l0,0
		C376.8,205.1,376.1,204.6,376,203.9z M222.6,202.9c-0.8-0.2-1.3-1-1.1-1.8l0,0l0,0l0,0c0.2-0.8,1-1.3,1.8-1.1l0,0
		c0.8,0.2,1.3,1,1.1,1.8l0,0c-0.2,0.7-0.8,1.2-1.5,1.2l0,0C222.9,202.9,222.8,202.9,222.6,202.9z M374.9,199.1L374.9,199.1
		c-0.2-0.8,0.3-1.6,1.1-1.8l0,0c0.8-0.2,1.6,0.3,1.8,1.1l0,0c0.2,0.8-0.3,1.6-1.1,1.8l0,0c-0.1,0-0.3,0-0.4,0l0,0
		C375.7,200.2,375.1,199.8,374.9,199.1z M223.8,198c-0.8-0.2-1.3-1.1-1-1.9l0,0c0.2-0.8,1.1-1.3,1.9-1l0,0c0.8,0.2,1.3,1.1,1,1.9
		l0,0c-0.2,0.7-0.8,1.1-1.4,1.1l0,0C224.1,198,223.9,198,223.8,198z M373.5,194.4L373.5,194.4c-0.3-0.8,0.2-1.6,0.9-1.9l0,0
		c0.8-0.3,1.6,0.2,1.9,1l0,0l0,0l0,0c0.3,0.8-0.2,1.6-1,1.9l0,0c-0.2,0-0.3,0.1-0.5,0.1l0,0C374.3,195.4,373.7,195,373.5,194.4z
		 M225.3,193.2c-0.8-0.3-1.2-1.1-0.9-1.9l0,0c0.3-0.8,1.1-1.2,1.9-0.9l0,0c0.8,0.3,1.2,1.1,0.9,1.9l0,0c-0.2,0.6-0.8,1-1.4,1l0,0
		C225.6,193.3,225.4,193.3,225.3,193.2z M371.8,189.8c-0.3-0.8,0.1-1.6,0.8-1.9l0,0c0.8-0.3,1.6,0.1,2,0.8l0,0
		c0.3,0.8-0.1,1.6-0.8,2l0,0c-0.2,0.1-0.4,0.1-0.6,0.1l0,0C372.6,190.7,372.1,190.3,371.8,189.8z M227,188.5c-0.8-0.3-1.1-1.2-0.8-2
		l0,0c0.3-0.8,1.2-1.1,2-0.8l0,0c0.8,0.3,1.1,1.2,0.8,2l0,0c-0.3,0.6-0.8,0.9-1.4,0.9l0,0C227.4,188.6,227.2,188.6,227,188.5z
		 M369.9,185.3c-0.4-0.8,0-1.6,0.7-2l0,0c0.7-0.4,1.6,0,2,0.7l0,0c0.4,0.8,0,1.6-0.7,2l0,0c-0.2,0.1-0.4,0.1-0.6,0.1l0,0
		C370.6,186.1,370.1,185.8,369.9,185.3z M229.1,183.9c-0.7-0.4-1-1.3-0.6-2l0,0l0,0l0,0c0.4-0.7,1.3-1,2-0.6l0,0
		c0.7,0.4,1,1.3,0.6,2l0,0c-0.3,0.5-0.8,0.8-1.3,0.8l0,0C229.5,184.1,229.3,184.1,229.1,183.9z M367.6,180.9c-0.4-0.7-0.1-1.6,0.6-2
		l0,0c0.7-0.4,1.6-0.1,2,0.6l0,0c0.4,0.7,0.1,1.6-0.6,2l0,0c-0.2,0.1-0.5,0.2-0.7,0.2l0,0C368.4,181.7,367.9,181.4,367.6,180.9z
		 M231.4,179.5c-0.7-0.4-0.9-1.4-0.5-2.1l0,0c0.4-0.7,1.4-0.9,2.1-0.5l0,0c0.7,0.4,0.9,1.4,0.5,2.1l0,0c-0.3,0.5-0.8,0.7-1.3,0.7
		l0,0C232,179.7,231.7,179.7,231.4,179.5z M365.1,176.7L365.1,176.7c-0.4-0.7-0.3-1.6,0.4-2.1l0,0c0.7-0.4,1.6-0.3,2.1,0.4l0,0
		c0.5,0.7,0.3,1.6-0.5,2.1l0,0c-0.3,0.2-0.5,0.2-0.8,0.2l0,0C365.8,177.4,365.3,177.1,365.1,176.7z M234.1,175.3
		c-0.7-0.5-0.9-1.4-0.4-2.1l0,0c0.5-0.7,1.4-0.8,2.1-0.4l0,0c0.7,0.5,0.9,1.4,0.4,2.1l0,0c-0.3,0.4-0.8,0.6-1.2,0.6l0,0
		C234.6,175.5,234.3,175.4,234.1,175.3z M362.3,172.7c-0.5-0.7-0.3-1.6,0.3-2.1l0,0c0.7-0.5,1.6-0.4,2.1,0.3l0,0l0,0l0,0
		c0.5,0.7,0.4,1.6-0.3,2.1l0,0c-0.3,0.2-0.6,0.3-0.9,0.3l0,0C363,173.3,362.6,173.1,362.3,172.7z M237,171.2
		c-0.6-0.5-0.8-1.5-0.3-2.1l0,0l0,0l0,0c0.5-0.6,1.5-0.8,2.1-0.3l0,0c0.7,0.5,0.8,1.5,0.3,2.1l0,0c-0.3,0.4-0.7,0.6-1.2,0.6l0,0
		C237.6,171.5,237.3,171.4,237,171.2z M359.2,168.8L359.2,168.8c-0.5-0.6-0.5-1.6,0.2-2.1l0,0c0.6-0.5,1.6-0.5,2.1,0.2l0,0
		c0.5,0.6,0.5,1.6-0.2,2.1l0,0c-0.3,0.2-0.6,0.3-1,0.3l0,0C360,169.3,359.5,169.2,359.2,168.8z M240.1,167.3
		c-0.6-0.6-0.7-1.5-0.1-2.1l0,0c0.5-0.6,1.5-0.7,2.1-0.1l0,0c0.6,0.5,0.7,1.5,0.1,2.1l0,0c-0.3,0.3-0.7,0.5-1.1,0.5l0,0
		C240.8,167.6,240.4,167.5,240.1,167.3z M355.9,165.2c-0.6-0.6-0.5-1.6,0.1-2.1l0,0c0.6-0.6,1.5-0.6,2.1,0l0,0
		c0.6,0.6,0.6,1.5,0,2.1l0,0c-0.3,0.3-0.7,0.4-1,0.4l0,0C356.6,165.6,356.2,165.5,355.9,165.2z M243.5,163.6c-0.6-0.6-0.6-1.5,0-2.1
		l0,0c0.6-0.6,1.5-0.6,2.1,0l0,0c0.6,0.6,0.6,1.5,0,2.1l0,0c-0.3,0.3-0.7,0.4-1,0.4l0,0C244.2,164,243.8,163.9,243.5,163.6z
		 M352.4,161.7L352.4,161.7c-0.6-0.6-0.6-1.5-0.1-2.1l0,0c0.6-0.6,1.5-0.6,2.1-0.1l0,0c0.6,0.6,0.6,1.5,0.1,2.1l0,0
		c-0.3,0.3-0.7,0.5-1.1,0.5l0,0C353.1,162.1,352.7,162,352.4,161.7z M247.1,160.1c-0.5-0.6-0.5-1.6,0.1-2.1l0,0
		c0.6-0.5,1.6-0.5,2.1,0.1l0,0c0.6,0.6,0.5,1.6-0.1,2.1l0,0c-0.3,0.3-0.6,0.4-1,0.4l0,0C247.8,160.6,247.4,160.4,247.1,160.1z
		 M348.7,158.5c-0.7-0.5-0.7-1.5-0.2-2.1l0,0c0.5-0.6,1.5-0.7,2.1-0.2l0,0c0.6,0.5,0.7,1.5,0.2,2.1l0,0c-0.3,0.4-0.7,0.6-1.2,0.6
		l0,0C349.3,158.8,349,158.7,348.7,158.5z M250.9,156.8c-0.5-0.6-0.4-1.6,0.3-2.1l0,0l0,0l0,0c0.7-0.5,1.6-0.4,2.1,0.3l0,0
		c0.5,0.7,0.4,1.6-0.3,2.1l0,0c-0.3,0.2-0.6,0.3-0.9,0.3l0,0C251.7,157.4,251.2,157.2,250.9,156.8z M344.8,155.5
		c-0.7-0.5-0.8-1.4-0.3-2.1l0,0c0.5-0.7,1.4-0.8,2.1-0.4l0,0c0.7,0.5,0.8,1.4,0.4,2.1l0,0c-0.3,0.4-0.8,0.6-1.2,0.6l0,0
		C345.4,155.8,345.1,155.7,344.8,155.5z M254.9,153.9c-0.5-0.7-0.3-1.6,0.4-2.1l0,0l0,0l0,0c0.7-0.5,1.6-0.3,2.1,0.4l0,0
		c0.5,0.7,0.3,1.6-0.4,2.1l0,0c-0.3,0.2-0.5,0.3-0.8,0.3l0,0C255.7,154.5,255.2,154.3,254.9,153.9z M340.7,152.8
		c-0.7-0.4-0.9-1.4-0.5-2.1l0,0c0.4-0.7,1.4-0.9,2.1-0.5l0,0c0.7,0.4,0.9,1.4,0.5,2.1l0,0c-0.3,0.5-0.8,0.7-1.3,0.7l0,0
		C341.2,153,341,153,340.7,152.8z M259.1,151.1c-0.4-0.7-0.2-1.6,0.5-2l0,0c0.7-0.4,1.6-0.2,2.1,0.5l0,0c0.4,0.7,0.2,1.6-0.5,2l0,0
		c-0.2,0.1-0.5,0.2-0.8,0.2l0,0C259.9,151.9,259.4,151.6,259.1,151.1z M336.5,150.4c-0.7-0.4-1-1.3-0.6-2l0,0c0.4-0.7,1.3-1,2-0.6
		l0,0c0.7,0.4,1,1.3,0.6,2l0,0c-0.3,0.5-0.8,0.8-1.3,0.8l0,0C336.9,150.5,336.7,150.5,336.5,150.4z M263.5,148.7
		c-0.4-0.7-0.1-1.6,0.7-2l0,0c0.7-0.4,1.6-0.1,2,0.7l0,0c0.4,0.7,0.1,1.6-0.7,2l0,0c-0.2,0.1-0.4,0.1-0.7,0.1l0,0
		C264.3,149.5,263.8,149.2,263.5,148.7z M332,148.2L332,148.2c-0.8-0.4-1.1-1.2-0.7-2l0,0c0.3-0.8,1.2-1.1,2-0.7l0,0l0,0l0,0
		c0.8,0.3,1.1,1.2,0.8,2l0,0c-0.3,0.6-0.8,0.9-1.4,0.9l0,0C332.5,148.3,332.2,148.3,332,148.2z M268,146.5c-0.3-0.8,0-1.6,0.8-2l0,0
		c0.8-0.3,1.6,0,2,0.8l0,0c0.3,0.8,0,1.6-0.8,2l0,0c-0.2,0.1-0.4,0.1-0.6,0.1l0,0C268.8,147.4,268.2,147.1,268,146.5z M327.5,146.3
		L327.5,146.3c-0.8-0.3-1.2-1.2-0.9-1.9l0,0c0.3-0.8,1.2-1.2,1.9-0.9l0,0c0.8,0.3,1.2,1.2,0.9,1.9l0,0c-0.2,0.6-0.8,1-1.4,1l0,0
		C327.9,146.4,327.7,146.4,327.5,146.3z M272.6,144.6c-0.3-0.8,0.1-1.6,0.9-1.9l0,0c0.8-0.3,1.6,0.1,1.9,0.9l0,0
		c0.3,0.8-0.1,1.6-0.9,1.9l0,0c-0.2,0.1-0.3,0.1-0.5,0.1l0,0C273.4,145.6,272.8,145.2,272.6,144.6z M322.8,144.7
		c-0.8-0.2-1.2-1.1-1-1.9l0,0c0.2-0.8,1.1-1.2,1.9-1l0,0c0.8,0.2,1.2,1.1,1,1.9l0,0c-0.2,0.6-0.8,1.1-1.4,1.1l0,0
		C323.1,144.8,323,144.7,322.8,144.7z M277.4,143c-0.2-0.8,0.2-1.6,1-1.9l0,0c0.8-0.2,1.6,0.3,1.9,1l0,0c0.2,0.8-0.3,1.6-1,1.8l0,0
		c-0.1,0-0.3,0.1-0.4,0.1l0,0C278.2,144.1,277.6,143.7,277.4,143z M318.1,143.4c-0.8-0.2-1.3-1-1.1-1.8l0,0c0.2-0.8,1-1.3,1.8-1.1
		l0,0c0.8,0.2,1.3,1,1.1,1.8l0,0c-0.2,0.7-0.8,1.1-1.5,1.1l0,0C318.3,143.4,318.2,143.4,318.1,143.4z M282.2,141.8
		c-0.2-0.8,0.3-1.6,1.2-1.8l0,0c0.8-0.2,1.6,0.3,1.8,1.1l0,0c0.2,0.8-0.3,1.6-1.2,1.8l0,0c-0.1,0-0.2,0-0.3,0l0,0
		C283,142.9,282.4,142.5,282.2,141.8z M313.3,142.4c-0.8-0.1-1.4-0.9-1.2-1.7l0,0c0.1-0.8,0.9-1.4,1.7-1.2l0,0
		c0.8,0.1,1.4,0.9,1.2,1.7l0,0c-0.1,0.7-0.8,1.3-1.5,1.3l0,0C313.5,142.4,313.4,142.4,313.3,142.4z M287.1,140.8
		c-0.1-0.8,0.5-1.6,1.3-1.7l0,0l0,0l0,0c0.8-0.1,1.6,0.5,1.7,1.3l0,0c0.1,0.8-0.5,1.6-1.3,1.7l0,0c-0.1,0-0.1,0-0.2,0l0,0
		C287.9,142.1,287.3,141.5,287.1,140.8z M308.4,141.7L308.4,141.7c-0.8-0.1-1.4-0.8-1.3-1.6l0,0c0.1-0.8,0.8-1.4,1.7-1.3l0,0
		c0.8,0.1,1.4,0.8,1.3,1.6l0,0c-0.1,0.8-0.7,1.3-1.5,1.3l0,0C308.5,141.7,308.5,141.7,308.4,141.7z M292.1,140.1
		c-0.1-0.8,0.6-1.5,1.4-1.6l0,0c0.8-0.1,1.5,0.5,1.6,1.4l0,0c0.1,0.8-0.5,1.5-1.4,1.6l0,0h-0.1l0,0
		C292.8,141.5,292.2,140.9,292.1,140.1z M303.5,141.3L303.5,141.3c-0.8,0-1.5-0.7-1.4-1.6l0,0c0-0.8,0.7-1.5,1.6-1.4l0,0
		c0.8,0,1.5,0.7,1.4,1.6l0,0C305.1,140.7,304.4,141.3,303.5,141.3L303.5,141.3C303.6,141.3,303.6,141.3,303.5,141.3z M297.1,139.8
		c0-0.8,0.7-1.5,1.5-1.5l0,0l0,0l0,0c0.8,0,1.5,0.6,1.5,1.5l0,0c0,0.8-0.6,1.5-1.5,1.5l0,0l0,0l0,0
		C297.8,141.3,297.1,140.6,297.1,139.8z"/>
</g>
<g>
	<path class="st27" d="M354.9,353.6v0.3l-1.4,37.2h-67.9c-2.1,0-4-1.3-4.9-3.2c-0.7-1.5-2-2.8-3.5-3.5c-1.9-0.9-3.2-2.8-3.2-4.9
		v-10.2c0-2.3,1.4-4.3,3.5-5c4.2-1.5,7.2-5.4,7.2-10.1c0-0.1,0-0.1,0-0.2c-0.1-4.9-3.5-9-8.1-10.2c-1.6-0.4-2.7-1.8-2.7-3.4v-12.9
		c0-1.5,0.9-2.8,2.3-3.3c2.2-0.7,3.9-2.5,4.7-4.7c0.5-1.4,1.8-2.3,3.3-2.3h69.2L354.9,353.6z"/>
	<path class="st24" d="M354.9,354l-1.4,37.2h-69.8c-1.2,0-2.3-0.8-2.7-2c-0.7-2.4-2.6-4.4-5.1-5.1c-1.2-0.3-2-1.4-2-2.7v-14
		c0-1.3,0.9-2.4,2.2-2.7c4.9-1,8.6-5.3,8.6-10.5c0-0.1,0-0.1,0-0.2L354.9,354L354.9,354z"/>
	<path class="st28" d="M366.8,354c0,0.1,0,0.1,0,0.2c0,5.2,3.7,9.6,8.7,10.5c1.2,0.2,2,1.3,2,2.5v14.4c0,1.1-0.8,2.1-1.9,2.4
		c-2.6,0.7-4.6,2.7-5.3,5.3c-0.3,1.1-1.3,1.9-2.4,1.9h-14.5v-74H368c1.1,0,2.1,0.8,2.4,1.9c0.7,2.6,2.7,4.6,5.3,5.3
		c1.1,0.3,1.9,1.3,1.9,2.4v14.4c0,1.2-0.9,2.2-2,2.5C370.6,344.6,366.9,348.8,366.8,354z"/>
	<path class="st28" d="M309,342.9v15.8c-1.6-0.7-3.4-1.1-5.4-0.9c-5.1,0.5-9.1,4.6-9.5,9.6c-0.5,6.1,4.4,11.3,10.4,11.3
		c5.8,0,10.5-4.9,10.5-10.6v-24.7l18.6-5.6v13.6c-1.3-0.6-2.8-1-4.4-1c-3.1,0-6,1.4-7.9,3.6c-1.7,2-2.7,4.5-2.6,7.4
		c0.2,5.4,4.6,9.8,10,10c6,0.2,10.9-4.5,10.9-10.5v-26.1c0-2.6-2.5-4.4-4.9-3.7l-22,6.6C310.5,338.4,309,340.5,309,342.9z"/>
	<g>
		<g>
			<g>
				<path class="st29" d="M309,358.8c-1.3-0.6-2.8-1-4.4-1c-5.8,0-10.5,4.7-10.5,10.5s4.7,10.5,10.5,10.5s10.5-4.7,10.5-10.5V354
					H309V358.8z"/>
				<path class="st29" d="M321.4,354c-1.6,1.8-2.6,4.2-2.6,6.9c0,5.8,4.7,10.5,10.5,10.5s10.5-4.7,10.5-10.5V354H321.4z"/>
			</g>
		</g>
	</g>
	<path class="st29" d="M353.5,353.8v37.4H368c1.1,0,2.1-0.8,2.4-1.9c0.7-2.6,2.7-4.6,5.3-5.3c1.1-0.3,1.9-1.3,1.9-2.4v-14.4
		c0-1.2-0.9-2.2-2-2.5c-4.9-0.9-8.6-5.2-8.7-10.3c0-0.1,0-0.1,0-0.2s0-0.3,0-0.4L353.5,353.8L353.5,353.8z"/>
</g>
<g>
	<g>
		<g class="st30">
			<g class="st31">
				<path class="st32" d="M178.6,208.4H81.5c-3.1,0-5.7-2.6-5.7-5.7V60.6c0-3.1,2.6-5.7,5.7-5.7h97.1c3.1,0,5.7,2.6,5.7,5.7v142.1
					C184.5,205.8,182,208.4,178.6,208.4z"/>
			</g>
			<g class="st33">
				<path class="st32" d="M178.5,208.4H81.3c-3.1,0-5.7-2.6-5.7-5.7V60.6c0-3.1,2.6-5.7,5.7-5.7h97.1c3.1,0,5.7,2.6,5.7,5.7v142.1
					C184.3,205.8,181.8,208.4,178.5,208.4z"/>
			</g>
			<g class="st34">
				<path class="st32" d="M178.5,208.6H81.3c-3.1,0-5.7-2.6-5.7-5.7V60.8c0-3.1,2.6-5.7,5.7-5.7h97.1c3.1,0,5.7,2.6,5.7,5.7v142.1
					C184.3,206,181.8,208.6,178.5,208.6z"/>
			</g>
			<g class="st35">
				<path class="st32" d="M178.5,208.6H81.3c-3.1,0-5.7-2.6-5.7-5.7V60.8c0-3.1,2.6-5.7,5.7-5.7h97.1c3.1,0,5.7,2.6,5.7,5.7v142.1
					C184.3,206,181.8,208.6,178.5,208.6z"/>
			</g>
			<g class="st36">
				<path class="st32" d="M178.3,208.8H81.2c-3.1,0-5.7-2.6-5.7-5.7V61c0-3.1,2.6-5.7,5.7-5.7h97.1c3.1,0,5.7,2.6,5.7,5.7v142.1
					C184.2,206.2,181.6,208.8,178.3,208.8z"/>
			</g>
			<g class="st37">
				<path class="st32" d="M178.3,208.8H81.2c-3.1,0-5.7-2.6-5.7-5.7V61c0-3.1,2.6-5.7,5.7-5.7h97.1c3.1,0,5.7,2.6,5.7,5.7v142.1
					C184.2,206.2,181.6,208.8,178.3,208.8z"/>
			</g>
			<g class="st38">
				<path class="st32" d="M178.1,208.8H81c-3.1,0-5.7-2.6-5.7-5.7V61c0-3.1,2.6-5.7,5.7-5.7h97.1c3.1,0,5.7,2.6,5.7,5.7v142.1
					C184,206.2,181.4,208.8,178.1,208.8z"/>
			</g>
			<g class="st39">
				<path class="st32" d="M178.1,209H81c-3.1,0-5.7-2.6-5.7-5.7V61.2c0-3.1,2.6-5.7,5.7-5.7h97.1c3.1,0,5.7,2.6,5.7,5.7v142.1
					C184,206.4,181.4,209,178.1,209z"/>
			</g>
			<g class="st40">
				<path class="st32" d="M177.9,209H80.8c-3.1,0-5.7-2.6-5.7-5.7V61.2c0-3.1,2.6-5.7,5.7-5.7h97.1c3.1,0,5.7,2.6,5.7,5.7v142.1
					C183.8,206.4,181.2,209,177.9,209z"/>
			</g>
			<g class="st41">
				<path class="st32" d="M177.9,209.2H80.8c-3.1,0-5.7-2.6-5.7-5.7V61.4c0-3.1,2.6-5.7,5.7-5.7h97.1c3.1,0,5.7,2.6,5.7,5.7v142.1
					C183.8,206.6,181.2,209.2,177.9,209.2z"/>
			</g>
			<g class="st42">
				<path class="st32" d="M177.9,209.2H80.8c-3.1,0-5.7-2.6-5.7-5.7V61.4c0-3.1,2.6-5.7,5.7-5.7h97.1c3.1,0,5.7,2.6,5.7,5.7v142.1
					C183.8,206.6,181.2,209.2,177.9,209.2z"/>
			</g>
			<g>
				<path class="st32" d="M177.7,209.2H80.6c-3.1,0-5.7-2.6-5.7-5.7V61.4c0-3.1,2.6-5.7,5.7-5.7h97.1c3.1,0,5.7,2.6,5.7,5.7v142.1
					C183.6,206.6,181,209.2,177.7,209.2z"/>
			</g>
		</g>
		<g>
			<path class="st43" d="M177.9,209.3H80.8c-3.1,0-5.7-2.6-5.7-5.7V61.6c0-3.1,2.6-5.7,5.7-5.7h97.1c3.1,0,5.7,2.6,5.7,5.7v142.1
				C183.8,206.8,181.2,209.3,177.9,209.3z"/>
		</g>
	</g>
	<g>
		<g class="st30">
			<g class="st31">
				<path class="st32" d="M177.2,210.1H80.1c-3.1,0-5.7-2.6-5.7-5.7V62.3c0-3.1,2.6-5.7,5.7-5.7h97.1c3.1,0,5.7,2.6,5.7,5.7v142.1
					C183.1,207.5,180.5,210.1,177.2,210.1z"/>
			</g>
			<g class="st33">
				<path class="st32" d="M177,210.1H79.9c-3.1,0-5.7-2.6-5.7-5.7V62.3c0-3.1,2.6-5.7,5.7-5.7H177c3.1,0,5.7,2.6,5.7,5.7v142.1
					C182.9,207.5,180.3,210.1,177,210.1z"/>
			</g>
			<g class="st34">
				<path class="st32" d="M177,210.3H79.9c-3.1,0-5.7-2.6-5.7-5.7V62.5c0-3.1,2.6-5.7,5.7-5.7H177c3.1,0,5.7,2.6,5.7,5.7v142.1
					C182.9,207.7,180.3,210.3,177,210.3z"/>
			</g>
			<g class="st35">
				<path class="st32" d="M176.8,210.3H79.7c-3.1,0-5.7-2.6-5.7-5.7V62.5c0-3.1,2.6-5.7,5.7-5.7h97.1c3.1,0,5.7,2.6,5.7,5.7v142.1
					C182.7,207.7,180.1,210.3,176.8,210.3z"/>
			</g>
			<g class="st36">
				<path class="st32" d="M176.8,210.3H79.7c-3.1,0-5.7-2.6-5.7-5.7V62.5c0-3.1,2.6-5.7,5.7-5.7h97.1c3.1,0,5.7,2.6,5.7,5.7v142.1
					C182.7,207.7,180.1,210.3,176.8,210.3z"/>
			</g>
			<g class="st37">
				<path class="st32" d="M176.8,210.4H79.7c-3.1,0-5.7-2.6-5.7-5.7V62.7c0-3.1,2.6-5.7,5.7-5.7h97.1c3.1,0,5.7,2.6,5.7,5.7v142.1
					C182.7,207.9,180.1,210.4,176.8,210.4z"/>
			</g>
			<g class="st38">
				<path class="st32" d="M176.6,210.4H79.5c-3.1,0-5.7-2.6-5.7-5.7V62.7c0-3.1,2.6-5.7,5.7-5.7h97.1c3.1,0,5.7,2.6,5.7,5.7v142.1
					C182.5,207.9,179.9,210.4,176.6,210.4z"/>
			</g>
			<g class="st39">
				<path class="st32" d="M176.6,210.6H79.5c-3.1,0-5.7-2.6-5.7-5.7V62.8c0-3.1,2.6-5.7,5.7-5.7h97.1c3.1,0,5.7,2.6,5.7,5.7v142.1
					C182.5,208.1,179.9,210.6,176.6,210.6z"/>
			</g>
			<g class="st40">
				<path class="st32" d="M176.4,210.6H79.3c-3.1,0-5.7-2.6-5.7-5.7V62.8c0-3.1,2.6-5.7,5.7-5.7h97.1c3.1,0,5.7,2.6,5.7,5.7v142.1
					C182.3,208.1,179.7,210.6,176.4,210.6z"/>
			</g>
			<g class="st41">
				<path class="st32" d="M176.4,210.6H79.3c-3.1,0-5.7-2.6-5.7-5.7V62.8c0-3.1,2.6-5.7,5.7-5.7h97.1c3.1,0,5.7,2.6,5.7,5.7v142.1
					C182.3,208.1,179.7,210.6,176.4,210.6z"/>
			</g>
			<g class="st42">
				<path class="st32" d="M176.4,210.8H79.3c-3.1,0-5.7-2.6-5.7-5.7V63c0-3.1,2.6-5.7,5.7-5.7h97.1c3.1,0,5.7,2.6,5.7,5.7v142.1
					C182.3,208.2,179.7,210.8,176.4,210.8z"/>
			</g>
			<g>
				<path class="st32" d="M176.2,210.8H79.1c-3.1,0-5.7-2.6-5.7-5.7V63c0-3.1,2.6-5.7,5.7-5.7h97.1c3.1,0,5.7,2.6,5.7,5.7v142.1
					C182.1,208.2,179.6,210.8,176.2,210.8z"/>
			</g>
		</g>
		<g>
			<path class="st43" d="M176.2,211H79.1c-3.1,0-5.7-2.6-5.7-5.7V63.2c0-3.1,2.6-5.7,5.7-5.7h97.1c3.1,0,5.7,2.6,5.7,5.7v142.1
				C182.1,208.4,179.6,211,176.2,211z"/>
		</g>
	</g>
	<g>
		<g class="st30">
			<g class="st31">
				<path class="st32" d="M175.5,211.7H78.4c-3.1,0-5.7-2.6-5.7-5.7V64c0-3.1,2.6-5.7,5.7-5.7h97.1c3.1,0,5.7,2.6,5.7,5.7V206
					C181.4,209.2,178.8,211.7,175.5,211.7z"/>
			</g>
			<g class="st33">
				<path class="st32" d="M175.5,211.7H78.4c-3.1,0-5.7-2.6-5.7-5.7V64c0-3.1,2.6-5.7,5.7-5.7h97.1c3.1,0,5.7,2.6,5.7,5.7V206
					C181.4,209.2,178.8,211.7,175.5,211.7z"/>
			</g>
			<g class="st34">
				<path class="st32" d="M175.3,211.7H78.2c-3.1,0-5.7-2.6-5.7-5.7V64c0-3.1,2.6-5.7,5.7-5.7h97.1c3.1,0,5.7,2.6,5.7,5.7V206
					C181.2,209.2,178.6,211.7,175.3,211.7z"/>
			</g>
			<g class="st35">
				<path class="st32" d="M175.3,211.9H78.2c-3.1,0-5.7-2.6-5.7-5.7V64.1c0-3.1,2.6-5.7,5.7-5.7h97.1c3.1,0,5.7,2.6,5.7,5.7v142.1
					C181.2,209.3,178.6,211.9,175.3,211.9z"/>
			</g>
			<g class="st36">
				<path class="st32" d="M175.1,211.9H78c-3.1,0-5.7-2.6-5.7-5.7V64.1c0-3.1,2.6-5.7,5.7-5.7h97.1c3.1,0,5.7,2.6,5.7,5.7v142.1
					C181,209.3,178.5,211.9,175.1,211.9z"/>
			</g>
			<g class="st37">
				<path class="st32" d="M175.1,212.1H78c-3.1,0-5.7-2.6-5.7-5.7V64.3c0-3.1,2.6-5.7,5.7-5.7h97.1c3.1,0,5.7,2.6,5.7,5.7v142.1
					C181,209.5,178.5,212.1,175.1,212.1z"/>
			</g>
			<g class="st38">
				<path class="st32" d="M175.1,212.1H78c-3.1,0-5.7-2.6-5.7-5.7V64.3c0-3.1,2.6-5.7,5.7-5.7h97.1c3.1,0,5.7,2.6,5.7,5.7v142.1
					C181,209.5,178.5,212.1,175.1,212.1z"/>
			</g>
			<g class="st39">
				<path class="st32" d="M174.9,212.1H77.8c-3.1,0-5.7-2.6-5.7-5.7V64.3c0-3.1,2.6-5.7,5.7-5.7h97.1c3.1,0,5.7,2.6,5.7,5.7v142.1
					C180.8,209.5,178.3,212.1,174.9,212.1z"/>
			</g>
			<g class="st40">
				<path class="st32" d="M174.9,212.3H77.8c-3.1,0-5.7-2.6-5.7-5.7V64.5c0-3.1,2.6-5.7,5.7-5.7h97.1c3.1,0,5.7,2.6,5.7,5.7v142.1
					C180.8,209.7,178.3,212.3,174.9,212.3z"/>
			</g>
			<g class="st41">
				<path class="st32" d="M174.8,212.3H77.7c-3.1,0-5.7-2.6-5.7-5.7V64.5c0-3.1,2.6-5.7,5.7-5.7h97.1c3.1,0,5.7,2.6,5.7,5.7v142.1
					C180.7,209.7,178.1,212.3,174.8,212.3z"/>
			</g>
			<g class="st42">
				<path class="st32" d="M174.8,212.5H77.7c-3.1,0-5.7-2.6-5.7-5.7V64.7c0-3.1,2.6-5.7,5.7-5.7h97.1c3.1,0,5.7,2.6,5.7,5.7v142.1
					C180.7,209.9,178.1,212.5,174.8,212.5z"/>
			</g>
			<g>
				<path class="st32" d="M174.8,212.5H77.7c-3.1,0-5.7-2.6-5.7-5.7V64.7c0-3.1,2.6-5.7,5.7-5.7h97.1c3.1,0,5.7,2.6,5.7,5.7v142.1
					C180.7,209.9,178.1,212.5,174.8,212.5z"/>
			</g>
		</g>
		<g>
			<path class="st43" d="M174.8,212.5H77.7c-3.1,0-5.7-2.6-5.7-5.7V64.7c0-3.1,2.6-5.7,5.7-5.7h97.1c3.1,0,5.7,2.6,5.7,5.7v142.1
				C180.7,209.9,178.1,212.5,174.8,212.5z"/>
		</g>
	</g>
	<path class="st25" d="M88.7,172.1h-3.3c-2,0-3.5-1.7-3.5-3.5v-3.3c0-2,1.7-3.5,3.5-3.5h3.3c2,0,3.5,1.7,3.5,3.5v3.3
		C92.4,170.6,90.7,172.1,88.7,172.1z"/>
	<path class="st25" d="M88.7,185.8h-3.3c-2,0-3.5-1.7-3.5-3.5v-3.3c0-2,1.7-3.5,3.5-3.5h3.3c2,0,3.5,1.7,3.5,3.5v3.3
		C92.4,184.3,90.7,185.8,88.7,185.8z"/>
	<path class="st24" d="M110.6,100.6h-5.9c-1.3,0-2.2-0.9-2.2-2.2V70.6c0-1.3,0.9-2.2,2.2-2.2h6.1c1.3,0,2.2,0.9,2.2,2.2v27.8
		C112.9,99.7,111.9,100.6,110.6,100.6z"/>
	<path class="st24" d="M97,100.6h-6.1c-1.3,0-2.2-0.9-2.2-2.2V81.8c0-1.3,0.9-2.2,2.2-2.2H97c1.3,0,2.2,0.9,2.2,2.2v16.6
		C99.2,99.7,98.1,100.6,97,100.6z"/>
	<path class="st24" d="M83.2,100.6h-6.1c-1.3,0-2.2-0.9-2.2-2.2V84.8c0-1.3,0.9-2.2,2.2-2.2h6.1c1.3,0,2.2,0.9,2.2,2.2v13.6
		C85.4,99.7,84.5,100.6,83.2,100.6z"/>
	<g>
		<path class="st0" d="M170.7,70.6h-49.2c0,0-0.2,0-0.2-0.2v-3.9c0,0,0-0.2,0.2-0.2h49.2c0,0,0.2,0,0.2,0.2L170.7,70.6
			C170.9,70.6,170.9,70.6,170.7,70.6z"/>
	</g>
	<g>
		<path class="st25" d="M170.7,81.8h-49.2c0,0-0.2,0-0.2-0.2v-3.9c0,0,0-0.2,0.2-0.2h49.2c0,0,0.2,0,0.2,0.2L170.7,81.8
			C170.9,81.6,170.9,81.8,170.7,81.8z"/>
	</g>
	<g>
		<path class="st25" d="M170.7,92.9h-49.2c0,0-0.2,0-0.2-0.2v-3.9c0,0,0-0.2,0.2-0.2h49.2c0,0,0.2,0,0.2,0.2L170.7,92.9
			C170.9,92.9,170.9,92.9,170.7,92.9z"/>
	</g>
	<path class="st25" d="M170.2,113.3H76.4c-0.4,0-0.7-0.4-0.7-0.7v-3.3c0-0.4,0.4-0.7,0.7-0.7h93.8c0.4,0,0.7,0.4,0.7,0.7v3.3
		C170.9,113,170.5,113.3,170.2,113.3z"/>
	<path class="st25" d="M170.2,122.2H76.4c-0.4,0-0.7-0.4-0.7-0.7v-3.3c0-0.4,0.4-0.7,0.7-0.7h93.8c0.4,0,0.7,0.4,0.7,0.7v3.3
		C170.9,121.8,170.5,122.2,170.2,122.2z"/>
	<path class="st25" d="M170.2,131H76.4c-0.4,0-0.7-0.4-0.7-0.7v-3.5c0-0.4,0.4-0.7,0.7-0.7h93.8c0.4,0,0.7,0.4,0.7,0.7v3.3
		C170.9,130.7,170.5,131,170.2,131z"/>
	<path class="st25" d="M170.2,139.9H76.4c-0.4,0-0.7-0.4-0.7-0.7v-3.3c0-0.4,0.4-0.7,0.7-0.7h93.8c0.4,0,0.7,0.4,0.7,0.7v3.3
		C170.9,139.5,170.5,139.9,170.2,139.9z"/>
	<path class="st25" d="M170.2,148.7H76.4c-0.4,0-0.7-0.4-0.7-0.7v-3.3c0-0.4,0.4-0.7,0.7-0.7h93.8c0.4,0,0.7,0.4,0.7,0.7v3.3
		C170.9,148.3,170.5,148.7,170.2,148.7z"/>
	<path class="st25" d="M170.2,157.6H76.4c-0.4,0-0.7-0.4-0.7-0.7v-3.3c0-0.4,0.4-0.7,0.7-0.7h93.8c0.4,0,0.7,0.4,0.7,0.7v3.3
		C170.9,157.2,170.5,157.6,170.2,157.6z"/>
	<path class="st25" d="M170.2,168.3H98.7c-0.4,0-0.7-0.4-0.7-0.7v-3.3c0-0.4,0.4-0.7,0.7-0.7h71.5c0.4,0,0.7,0.4,0.7,0.7v3.3
		C170.9,167.9,170.5,168.3,170.2,168.3z"/>
	<path class="st25" d="M170.2,181.7H98.7c-0.4,0-0.7-0.4-0.7-0.7v-3.3c0-0.4,0.4-0.7,0.7-0.7h71.5c0.4,0,0.7,0.4,0.7,0.7v3.3
		C170.9,181.3,170.5,181.7,170.2,181.7z"/>
	<path class="st25" d="M170.2,196.1H98.7c-0.4,0-0.7-0.4-0.7-0.7V192c0-0.4,0.4-0.7,0.7-0.7h71.5c0.4,0,0.7,0.4,0.7,0.7v3.3
		C170.9,195.7,170.5,196.1,170.2,196.1z"/>
	<g>
		<path class="st24" d="M87.1,171.8c-0.6,0-1.3-0.2-1.8-0.7l-3.5-2.9c-1.1-0.9-1.3-2.8-0.4-3.9c0.9-1.1,2.8-1.3,3.9-0.4l1.5,1.3
			l5.2-4.8c1.1-1.1,2.9-0.9,3.9,0.2c1.1,1.1,0.9,2.9-0.2,3.9l-7,6.4C88.3,171.4,87.6,171.8,87.1,171.8z"/>
	</g>
	<g>
		<path class="st24" d="M87.1,185.2c-0.6,0-1.3-0.2-1.8-0.7l-3.5-2.9c-1.1-0.9-1.3-2.8-0.4-3.9c0.9-1.1,2.8-1.3,3.9-0.4l1.5,1.3
			l5.2-4.8c1.1-1.1,2.9-0.9,3.9,0.2c1.1,1.1,0.9,2.9-0.2,3.9l-7,6.4C88.3,185,87.6,185.2,87.1,185.2z"/>
	</g>
	<path class="st25" d="M88.7,200.1h-3.3c-2,0-3.5-1.7-3.5-3.5v-3.3c0-2,1.7-3.5,3.5-3.5h3.3c2,0,3.5,1.7,3.5,3.5v3.3
		C92.4,198.5,90.7,200.1,88.7,200.1z"/>
	<g>
		<path class="st24" d="M87.1,199.6c-0.6,0-1.3-0.2-1.8-0.7l-3.5-2.9c-1.1-0.9-1.3-2.8-0.4-3.9c0.9-1.1,2.8-1.3,3.9-0.4l1.5,1.3
			l5.2-4.8c1.1-1.1,2.9-0.9,3.9,0.2c1.1,1.1,0.9,2.9-0.2,3.9l-7,6.4C88.3,199.2,87.6,199.6,87.1,199.6z"/>
	</g>
</g>
<g>
	<g class="st44">
		<g class="st31">
			<g>
				<path class="st32" d="M357.8,102.9h-90.6c-7.7,0-14-6.2-14-14V37.1c0-7.7,6.2-14,14-14h90.6c7.7,0,14,6.2,14,14v52
					C371.8,96.7,365.6,102.9,357.8,102.9z"/>
			</g>
		</g>
		<g class="st33">
			<path class="st32" d="M357.8,102.8h-90.6c-7.7,0-14-6.2-14-14V36.9c0-7.7,6.2-14,14-14h90.6c7.7,0,14,6.2,14,14v52
				C371.8,96.6,365.6,102.8,357.8,102.8z"/>
		</g>
		<g class="st34">
			<path class="st32" d="M357.6,102.8h-90.4c-7.7,0-14-6.2-14-14V36.9c0-7.7,6.2-14,14-14h90.4c7.7,0,14,6.2,14,14v52
				C371.6,96.6,365.5,102.8,357.6,102.8z"/>
		</g>
		<g class="st35">
			<path class="st32" d="M357.6,102.6H267c-7.7,0-14-6.2-14-14V36.7c0-7.7,6.2-14,14-14h90.6c7.7,0,14,6.2,14,14v52
				C371.6,96.4,365.5,102.6,357.6,102.6z"/>
		</g>
		<g class="st36">
			<path class="st32" d="M357.6,102.6H267c-7.7,0-14-6.2-14-14V36.7c0-7.7,6.2-14,14-14h90.6c7.7,0,14,6.2,14,14v52
				C371.6,96.4,365.5,102.6,357.6,102.6z"/>
		</g>
		<g class="st37">
			<path class="st32" d="M357.6,102.5H267c-7.7,0-14-6.2-14-14V36.6c0-7.7,6.2-14,14-14h90.6c7.7,0,14,6.2,14,14v52
				C371.6,96.3,365.5,102.5,357.6,102.5z"/>
		</g>
		<g class="st38">
			<path class="st32" d="M357.5,102.3h-90.6c-7.7,0-14-6.2-14-14V36.4c0-7.7,6.2-14,14-14h90.6c7.7,0,14,6.2,14,14v52
				C371.5,96.1,365.3,102.3,357.5,102.3z"/>
		</g>
		<g class="st39">
			<path class="st32" d="M357.5,102.3h-90.6c-7.7,0-14-6.2-14-14V36.4c0-7.7,6.2-14,14-14h90.6c7.7,0,14,6.2,14,14v52
				C371.5,96.1,365.3,102.3,357.5,102.3z"/>
		</g>
		<g class="st40">
			<path class="st32" d="M357.5,102.2h-90.6c-7.7,0-14-6.2-14-14V36.3c0-7.7,6.2-14,14-14h90.6c7.7,0,14,6.2,14,14v52
				C371.5,96,365.3,102.2,357.5,102.2z"/>
		</g>
		<g class="st41">
			<path class="st32" d="M357.3,102.2h-90.6c-7.7,0-14-6.2-14-14V36.3c0-7.7,6.2-14,14-14h90.6c7.7,0,14,6.2,14,14v52
				C371.5,96,365.3,102.2,357.3,102.2z"/>
		</g>
		<g class="st42">
			<path class="st32" d="M357.3,102h-90.6c-7.7,0-14-6.2-14-14V36.1c0-7.7,6.2-14,14-14h90.6c7.7,0,14,6.2,14,14v52
				C371.3,95.8,365.2,102,357.3,102z"/>
		</g>
		<g>
			<g>
				<path class="st32" d="M357.3,102h-90.6c-7.7,0-14-6.2-14-14V36.1c0-7.7,6.2-14,14-14h90.6c7.7,0,14,6.2,14,14v52
					C371.3,95.8,365.2,102,357.3,102z"/>
			</g>
		</g>
	</g>
	<g>
		<g>
			<g>
				<g>
					<path class="st1" d="M357.3,102h-90.4c-7.7,0-14-6.2-14-14V36c0-7.7,6.2-14,14-14h90.4c7.7,0,14,6.2,14,14v52
						C371.3,95.7,365,102,357.3,102z"/>
				</g>
			</g>
		</g>
		<g>
			<path class="st24" d="M371.3,90H253V36c0-7.7,6.2-14,14-14h90.4c7.7,0,14,6.2,14,14L371.3,90L371.3,90z"/>
		</g>
		<g>
			<path class="st1" d="M312.1,77.3c-11.9,0-21.7-9.6-21.7-21.7s9.6-21.7,21.7-21.7c12.1,0,21.7,9.6,21.7,21.7S324,77.3,312.1,77.3z
				 M312.1,35.5c-11,0-20,8.9-20,20c0,11,8.9,20,20,20c11.2,0,20-8.9,20-20C332.1,44.6,323.1,35.5,312.1,35.5z"/>
		</g>
		<g>
			<path class="st1" d="M321.6,54.7l-13.1-7.5c-1.1-0.6-2.3,0.2-2.3,1.4v15.2c0,1.2,1.2,2,2.3,1.4l13.1-7.5
				C322.6,56.6,322.6,55.3,321.6,54.7z"/>
		</g>
		<g>
			<g>
				<rect x="258.9" y="95.1" class="st25" width="106.6" height="2"/>
			</g>
		</g>
		<g>
			<g>
				<rect x="258.9" y="95.2" class="st24" width="37.1" height="1.7"/>
			</g>
		</g>
		<g>
			<circle class="st24" cx="296" cy="96" r="2.4"/>
		</g>
	</g>
</g>
<g>
	<path class="st0" d="M528.3,380.9H443c-2.4,0-4.2-1.8-4.2-4.2v-83.2c0-3.8,3.2-6.9,7.5-6.9h36.6c2,0,4.1,0.8,5.5,2.3l12.4,12h36.4
		c4.1,0,7.5,3.1,7.5,6.9v25.8L528.3,380.9z"/>
	<g>
		<g>
			<g class="st30">
				<g class="st31">
					<path class="st32" d="M527.1,376.8h-74.4c-2.4,0-4.4-2-4.4-4.4V263.5c0-2.4,2-4.4,4.4-4.4h74.4c2.4,0,4.4,2,4.4,4.4v108.9
						C531.6,374.8,529.7,376.8,527.1,376.8z"/>
				</g>
				<g class="st33">
					<path class="st32" d="M527.1,376.8h-74.4c-2.4,0-4.4-2-4.4-4.4V263.5c0-2.4,2-4.4,4.4-4.4h74.4c2.4,0,4.4,2,4.4,4.4v108.9
						C531.6,374.8,529.7,376.8,527.1,376.8z"/>
				</g>
				<g class="st34">
					<path class="st32" d="M527.1,376.9h-74.4c-2.4,0-4.4-2-4.4-4.4V263.7c0-2.4,2-4.4,4.4-4.4h74.4c2.4,0,4.4,2,4.4,4.4v108.9
						C531.6,375,529.7,376.9,527.1,376.9z"/>
				</g>
				<g class="st35">
					<path class="st32" d="M527,376.9h-74.4c-2.4,0-4.4-2-4.4-4.4V263.7c0-2.4,2-4.4,4.4-4.4H527c2.4,0,4.4,2,4.4,4.4v108.9
						C531.5,375,529.5,376.9,527,376.9z"/>
				</g>
				<g class="st36">
					<path class="st32" d="M527,377.1h-74.4c-2.4,0-4.4-2-4.4-4.4V263.8c0-2.4,2-4.4,4.4-4.4H527c2.4,0,4.4,2,4.4,4.4v108.9
						C531.5,375.1,529.5,377.1,527,377.1z"/>
				</g>
				<g class="st37">
					<path class="st32" d="M526.8,377.1h-74.4c-2.4,0-4.4-2-4.4-4.4V263.8c0-2.4,2-4.4,4.4-4.4h74.4c2.4,0,4.4,2,4.4,4.4v108.9
						C531.4,375.1,529.4,377.1,526.8,377.1z"/>
				</g>
				<g class="st38">
					<path class="st32" d="M526.8,377.1h-74.4c-2.4,0-4.4-2-4.4-4.4V263.8c0-2.4,2-4.4,4.4-4.4h74.4c2.4,0,4.4,2,4.4,4.4v108.9
						C531.4,375.1,529.4,377.1,526.8,377.1z"/>
				</g>
				<g class="st39">
					<path class="st32" d="M526.7,377.2h-74.4c-2.4,0-4.4-2-4.4-4.4V264c0-2.4,2-4.4,4.4-4.4h74.4c2.4,0,4.4,2,4.4,4.4v108.9
						C531.2,375.2,529.2,377.2,526.7,377.2z"/>
				</g>
				<g class="st40">
					<path class="st32" d="M526.7,377.2h-74.4c-2.4,0-4.4-2-4.4-4.4V264c0-2.4,2-4.4,4.4-4.4h74.4c2.4,0,4.4,2,4.4,4.4v108.9
						C531.2,375.2,529.2,377.2,526.7,377.2z"/>
				</g>
				<g class="st41">
					<path class="st32" d="M526.7,377.4h-74.4c-2.4,0-4.4-2-4.4-4.4V264.1c0-2.4,2-4.4,4.4-4.4h74.4c2.4,0,4.4,2,4.4,4.4V373
						C531.2,375.4,529.2,377.4,526.7,377.4z"/>
				</g>
				<g class="st42">
					<path class="st32" d="M526.6,377.4h-74.4c-2.4,0-4.4-2-4.4-4.4V264.1c0-2.4,2-4.4,4.4-4.4h74.4c2.4,0,4.4,2,4.4,4.4V373
						C531.1,375.4,529.1,377.4,526.6,377.4z"/>
				</g>
				<g>
					<path class="st32" d="M526.6,377.4h-74.4c-2.4,0-4.4-2-4.4-4.4V264.1c0-2.4,2-4.4,4.4-4.4h74.4c2.4,0,4.4,2,4.4,4.4V373
						C531.1,375.4,529.1,377.4,526.6,377.4z"/>
				</g>
			</g>
			<g>
				<path class="st43" d="M526.6,377.5h-74.4c-2.4,0-4.4-2-4.4-4.4V264.2c0-2.4,2-4.4,4.4-4.4h74.4c2.4,0,4.4,2,4.4,4.4v108.9
					C531.1,375.5,529.1,377.5,526.6,377.5z"/>
			</g>
		</g>
		<g>
			<g class="st30">
				<g class="st31">
					<path class="st32" d="M526,378.1h-74.4c-2.4,0-4.4-2-4.4-4.4V264.8c0-2.4,2-4.4,4.4-4.4H526c2.4,0,4.4,2,4.4,4.4v108.9
						C530.5,376.1,528.5,378.1,526,378.1z"/>
				</g>
				<g class="st33">
					<path class="st32" d="M526,378.1h-74.4c-2.4,0-4.4-2-4.4-4.4V264.8c0-2.4,2-4.4,4.4-4.4H526c2.4,0,4.4,2,4.4,4.4v108.9
						C530.5,376.1,528.5,378.1,526,378.1z"/>
				</g>
				<g class="st34">
					<path class="st32" d="M525.9,378.2h-74.4c-2.4,0-4.4-2-4.4-4.4V264.9c0-2.4,2-4.4,4.4-4.4h74.4c2.4,0,4.4,2,4.4,4.4v108.9
						C530.4,376.2,528.4,378.2,525.9,378.2z"/>
				</g>
				<g class="st35">
					<path class="st32" d="M525.9,378.2h-74.4c-2.4,0-4.4-2-4.4-4.4V264.9c0-2.4,2-4.4,4.4-4.4h74.4c2.4,0,4.4,2,4.4,4.4v108.9
						C530.4,376.2,528.4,378.2,525.9,378.2z"/>
				</g>
				<g class="st36">
					<path class="st32" d="M525.9,378.2h-74.4c-2.4,0-4.4-2-4.4-4.4V264.9c0-2.4,2-4.4,4.4-4.4h74.4c2.4,0,4.4,2,4.4,4.4v108.9
						C530.4,376.2,528.4,378.2,525.9,378.2z"/>
				</g>
				<g class="st37">
					<path class="st32" d="M525.7,378.4h-74.4c-2.4,0-4.4-2-4.4-4.4V265.1c0-2.4,2-4.4,4.4-4.4h74.4c2.4,0,4.4,2,4.4,4.4V374
						C530.2,376.4,528.3,378.4,525.7,378.4z"/>
				</g>
				<g class="st38">
					<path class="st32" d="M525.7,378.4h-74.4c-2.4,0-4.4-2-4.4-4.4V265.1c0-2.4,2-4.4,4.4-4.4h74.4c2.4,0,4.4,2,4.4,4.4V374
						C530.2,376.4,528.3,378.4,525.7,378.4z"/>
				</g>
				<g class="st39">
					<path class="st32" d="M525.6,378.5h-74.4c-2.4,0-4.4-2-4.4-4.4V265.2c0-2.4,2-4.4,4.4-4.4h74.4c2.4,0,4.4,2,4.4,4.4v108.9
						C530.1,376.5,528.1,378.5,525.6,378.5z"/>
				</g>
				<g class="st40">
					<path class="st32" d="M525.6,378.5h-74.4c-2.4,0-4.4-2-4.4-4.4V265.2c0-2.4,2-4.4,4.4-4.4h74.4c2.4,0,4.4,2,4.4,4.4v108.9
						C530.1,376.5,528.1,378.5,525.6,378.5z"/>
				</g>
				<g class="st41">
					<path class="st32" d="M525.6,378.5h-74.4c-2.4,0-4.4-2-4.4-4.4V265.2c0-2.4,2-4.4,4.4-4.4h74.4c2.4,0,4.4,2,4.4,4.4v108.9
						C530.1,376.5,528.1,378.5,525.6,378.5z"/>
				</g>
				<g class="st42">
					<path class="st32" d="M525.4,378.6H451c-2.4,0-4.4-2-4.4-4.4V265.4c0-2.4,2-4.4,4.4-4.4h74.4c2.4,0,4.4,2,4.4,4.4v108.9
						C530,376.7,528,378.6,525.4,378.6z"/>
				</g>
				<g>
					<path class="st32" d="M525.4,378.6H451c-2.4,0-4.4-2-4.4-4.4V265.4c0-2.4,2-4.4,4.4-4.4h74.4c2.4,0,4.4,2,4.4,4.4v108.9
						C530,376.7,528,378.6,525.4,378.6z"/>
				</g>
			</g>
			<g>
				<path class="st43" d="M525.4,378.8H451c-2.4,0-4.4-2-4.4-4.4V265.5c0-2.4,2-4.4,4.4-4.4h74.4c2.4,0,4.4,2,4.4,4.4v108.9
					C530,376.8,528,378.8,525.4,378.8z"/>
			</g>
		</g>
		<g>
			<g class="st30">
				<g class="st31">
					<path class="st32" d="M524.9,379.3h-74.4c-2.4,0-4.4-2-4.4-4.4V266.1c0-2.4,2-4.4,4.4-4.4h74.4c2.4,0,4.4,2,4.4,4.4V375
						C529.4,377.4,527.4,379.3,524.9,379.3z"/>
				</g>
				<g class="st33">
					<path class="st32" d="M524.7,379.3h-74.4c-2.4,0-4.4-2-4.4-4.4V266.1c0-2.4,2-4.4,4.4-4.4h74.4c2.4,0,4.4,2,4.4,4.4V375
						C529.2,377.4,527.3,379.3,524.7,379.3z"/>
				</g>
				<g class="st34">
					<path class="st32" d="M524.7,379.3h-74.4c-2.4,0-4.4-2-4.4-4.4V266.1c0-2.4,2-4.4,4.4-4.4h74.4c2.4,0,4.4,2,4.4,4.4V375
						C529.2,377.4,527.3,379.3,524.7,379.3z"/>
				</g>
				<g class="st35">
					<path class="st32" d="M524.6,379.5h-74.4c-2.4,0-4.4-2-4.4-4.4V266.2c0-2.4,2-4.4,4.4-4.4h74.4c2.4,0,4.4,2,4.4,4.4v108.9
						C529.1,377.5,527.1,379.5,524.6,379.5z"/>
				</g>
				<g class="st36">
					<path class="st32" d="M524.6,379.5h-74.4c-2.4,0-4.4-2-4.4-4.4V266.2c0-2.4,2-4.4,4.4-4.4h74.4c2.4,0,4.4,2,4.4,4.4v108.9
						C529.1,377.5,527.1,379.5,524.6,379.5z"/>
				</g>
				<g class="st37">
					<path class="st32" d="M524.6,379.6h-74.4c-2.4,0-4.4-2-4.4-4.4V266.4c0-2.4,2-4.4,4.4-4.4h74.4c2.4,0,4.4,2,4.4,4.4v108.9
						C529.1,377.6,527.1,379.6,524.6,379.6z"/>
				</g>
				<g class="st38">
					<path class="st32" d="M524.4,379.6H450c-2.4,0-4.4-2-4.4-4.4V266.4c0-2.4,2-4.4,4.4-4.4h74.4c2.4,0,4.4,2,4.4,4.4v108.9
						C529,377.6,527,379.6,524.4,379.6z"/>
				</g>
				<g class="st39">
					<path class="st32" d="M524.4,379.6H450c-2.4,0-4.4-2-4.4-4.4V266.4c0-2.4,2-4.4,4.4-4.4h74.4c2.4,0,4.4,2,4.4,4.4v108.9
						C529,377.6,527,379.6,524.4,379.6z"/>
				</g>
				<g class="st40">
					<path class="st32" d="M524.3,379.8h-74.4c-2.4,0-4.4-2-4.4-4.4V266.5c0-2.4,2-4.4,4.4-4.4h74.4c2.4,0,4.4,2,4.4,4.4v108.9
						C528.8,377.8,526.8,379.8,524.3,379.8z"/>
				</g>
				<g class="st41">
					<path class="st32" d="M524.3,379.8h-74.4c-2.4,0-4.4-2-4.4-4.4V266.5c0-2.4,2-4.4,4.4-4.4h74.4c2.4,0,4.4,2,4.4,4.4v108.9
						C528.8,377.8,526.8,379.8,524.3,379.8z"/>
				</g>
				<g class="st42">
					<path class="st32" d="M524.3,379.9h-74.4c-2.4,0-4.4-2-4.4-4.4V266.6c0-2.4,2-4.4,4.4-4.4h74.4c2.4,0,4.4,2,4.4,4.4v108.9
						C528.8,377.9,526.8,379.9,524.3,379.9z"/>
				</g>
				<g>
					<path class="st32" d="M524.2,379.9h-74.4c-2.4,0-4.4-2-4.4-4.4V266.6c0-2.4,2-4.4,4.4-4.4h74.4c2.4,0,4.4,2,4.4,4.4v108.9
						C528.7,377.9,526.7,379.9,524.2,379.9z"/>
				</g>
			</g>
			<g>
				<path class="st43" d="M524.3,379.9h-74.4c-2.4,0-4.4-2-4.4-4.4V266.6c0-2.4,2-4.4,4.4-4.4h74.4c2.4,0,4.4,2,4.4,4.4v108.9
					C528.8,377.9,526.8,379.9,524.3,379.9z"/>
			</g>
		</g>
		<path class="st25" d="M458.3,349h-2.5c-1.6,0-2.7-1.3-2.7-2.7v-2.5c0-1.6,1.3-2.7,2.7-2.7h2.5c1.6,0,2.7,1.3,2.7,2.7v2.5
			C461.2,347.8,459.9,349,458.3,349z"/>
		<path class="st25" d="M458.3,359.4h-2.5c-1.6,0-2.7-1.3-2.7-2.7v-2.5c0-1.6,1.3-2.7,2.7-2.7h2.5c1.6,0,2.7,1.3,2.7,2.7v2.5
			C461.2,358.3,459.9,359.4,458.3,359.4z"/>
		<g>
			<path class="st0" d="M521.2,271.2h-37.7c0,0-0.1,0-0.1-0.1v-3c0,0,0-0.1,0.1-0.1h37.7c0,0,0.1,0,0.1,0.1L521.2,271.2
				C521.3,271.2,521.3,271.2,521.2,271.2z"/>
		</g>
		<g>
			<path class="st25" d="M521.2,279.8h-37.7c0,0-0.1,0-0.1-0.1v-3c0,0,0-0.1,0.1-0.1h37.7c0,0,0.1,0,0.1,0.1L521.2,279.8
				C521.3,279.6,521.3,279.8,521.2,279.8z"/>
		</g>
		<g>
			<path class="st25" d="M521.2,288.2h-37.7c0,0-0.1,0-0.1-0.1v-3c0,0,0-0.1,0.1-0.1h37.7c0,0,0.1,0,0.1,0.1L521.2,288.2
				C521.3,288.2,521.3,288.2,521.2,288.2z"/>
		</g>
		<path class="st25" d="M520.8,303.9h-71.9c-0.3,0-0.6-0.3-0.6-0.6v-2.5c0-0.3,0.3-0.6,0.6-0.6h71.9c0.3,0,0.6,0.3,0.6,0.6v2.5
			C521.3,303.6,521.1,303.9,520.8,303.9z"/>
		<path class="st25" d="M520.8,310.7h-71.9c-0.3,0-0.6-0.3-0.6-0.6v-2.5c0-0.3,0.3-0.6,0.6-0.6h71.9c0.3,0,0.6,0.3,0.6,0.6v2.5
			C521.3,310.4,521.1,310.7,520.8,310.7z"/>
		<path class="st25" d="M520.8,317.5h-71.9c-0.3,0-0.6-0.3-0.6-0.6v-2.7c0-0.3,0.3-0.6,0.6-0.6h71.9c0.3,0,0.6,0.3,0.6,0.6v2.5
			C521.3,317.2,521.1,317.5,520.8,317.5z"/>
		<path class="st25" d="M520.8,324.3h-71.9c-0.3,0-0.6-0.3-0.6-0.6v-2.5c0-0.3,0.3-0.6,0.6-0.6h71.9c0.3,0,0.6,0.3,0.6,0.6v2.5
			C521.3,324,521.1,324.3,520.8,324.3z"/>
		<path class="st25" d="M520.8,331h-71.9c-0.3,0-0.6-0.3-0.6-0.6v-2.5c0-0.3,0.3-0.6,0.6-0.6h71.9c0.3,0,0.6,0.3,0.6,0.6v2.5
			C521.3,330.8,521.1,331,520.8,331z"/>
		<path class="st25" d="M520.8,337.8h-71.9c-0.3,0-0.6-0.3-0.6-0.6v-2.5c0-0.3,0.3-0.6,0.6-0.6h71.9c0.3,0,0.6,0.3,0.6,0.6v2.5
			C521.3,337.5,521.1,337.8,520.8,337.8z"/>
		<path class="st25" d="M520.8,346H466c-0.3,0-0.6-0.3-0.6-0.6v-2.5c0-0.3,0.3-0.6,0.6-0.6h54.8c0.3,0,0.6,0.3,0.6,0.6v2.5
			C521.3,345.7,521.1,346,520.8,346z"/>
		<path class="st25" d="M520.8,356.3H466c-0.3,0-0.6-0.3-0.6-0.6v-2.5c0-0.3,0.3-0.6,0.6-0.6h54.8c0.3,0,0.6,0.3,0.6,0.6v2.5
			C521.3,356,521.1,356.3,520.8,356.3z"/>
		<path class="st25" d="M520.8,367.3H466c-0.3,0-0.6-0.3-0.6-0.6v-2.5c0-0.3,0.3-0.6,0.6-0.6h54.8c0.3,0,0.6,0.3,0.6,0.6v2.5
			C521.3,367.1,521.1,367.3,520.8,367.3z"/>
		<g>
			<path class="st24" d="M457.1,359c-0.4,0-1-0.1-1.4-0.6l-2.7-2.3c-0.8-0.7-1-2.1-0.3-3s2.1-1,3-0.3l1.1,1l4-3.7
				c0.8-0.8,2.3-0.7,3,0.1c0.8,0.8,0.7,2.3-0.1,3l-5.4,4.9C458.1,358.9,457.5,359,457.1,359z"/>
		</g>
		<path class="st25" d="M458.3,370.4h-2.5c-1.6,0-2.7-1.3-2.7-2.7v-2.5c0-1.6,1.3-2.7,2.7-2.7h2.5c1.6,0,2.7,1.3,2.7,2.7v2.5
			C461.2,369.2,459.9,370.4,458.3,370.4z"/>
		<g>
			<path class="st24" d="M457.1,370c-0.4,0-1-0.1-1.4-0.6l-2.7-2.3c-0.8-0.7-1-2.1-0.3-3s2.1-1,3-0.3l1.1,1l4-3.7
				c0.8-0.8,2.3-0.7,3,0.1c0.8,0.8,0.7,2.3-0.1,3l-5.4,4.9C458.1,369.7,457.5,370,457.1,370z"/>
		</g>
		<path class="st24" d="M476.4,288.2H453c-1.6,0-2.7-1.3-2.7-2.7v-13.3c0-1.6,1.3-2.7,2.7-2.7h23.4c1.6,0,2.7,1.3,2.7,2.7v13.3
			C479.1,287,477.8,288.2,476.4,288.2z"/>
	</g>
	<path class="st24" d="M526.7,380.9h-84.5c-1.7,0-3-1.7-2.3-3.4l27-60.6c1.6-3.7,5.4-5.9,9.6-5.9h67.4c7.3,0,12.4,6.9,9.6,13.1
		L529,379.6C528.5,380.5,527.7,380.9,526.7,380.9z"/>
</g>
</svg>