<?xml version="1.0" encoding="utf-8"?>

<svg version="1.1" id="Layer_1" xmlns="http://www.w3.org/2000/svg" xmlns:xlink="http://www.w3.org/1999/xlink" x="0px" y="0px"
	 width="600px" height="410px" viewBox="0 0 600 410" style="enable-background:new 0 0 600 410;" xml:space="preserve">
<style type="text/css">
	.st0{opacity:0.16;}
	.st1{fill:#0D185E;fill-opacity:0;}
	.st2{opacity:9.090909e-02;fill:#0D185E;enable-background:new    ;}
	.st3{opacity:0.1818;fill:#0D185E;enable-background:new    ;}
	.st4{opacity:0.2727;fill:#0D185E;enable-background:new    ;}
	.st5{opacity:0.3636;fill:#0D185E;enable-background:new    ;}
	.st6{opacity:0.4545;fill:#0D185E;enable-background:new    ;}
	.st7{opacity:0.5455;fill:#0D185E;enable-background:new    ;}
	.st8{opacity:0.6364;fill:#0D185E;enable-background:new    ;}
	.st9{opacity:0.7273;fill:#0D185E;enable-background:new    ;}
	.st10{opacity:0.8182;fill:#0D185E;enable-background:new    ;}
	.st11{opacity:0.9091;fill:#0D185E;enable-background:new    ;}
	.st12{fill:#0D185E;}
	.st13{fill:#FFFFFF;}
	.st14{fill:#E2E8ED;}
	.st15{fill:#B3B5B5;}
	.st16{fill:#383838;}
	.st17{fill:#55ACEE;}
	.st18{fill:#292F33;}
	.st19{opacity:0.37;fill:#FFFFFF;enable-background:new    ;}
	.st20{opacity:0.18;fill:#FFFFFF;enable-background:new    ;}
	.st21{fill:#13171A;}
	.st22{fill:#1284FD;}
	.st23{fill:#363F43;}
	.st24{opacity:0.17;fill:#FFFFFF;enable-background:new    ;}
	.st25{fill:#272E32;}
	.st26{fill:#3B4146;}
	.st27{fill:#466089;}
	.st28{fill:#80D6FB;}
	.st29{fill:#30363A;}
	.st30{opacity:0.11;}
	.st31{fill:#0E1789;}
	.st32{opacity:0.18;}
	.st33{fill:#CCACAB;}
	.st34{fill:#CCD6DE;}
	.st35{fill:#E5C9C6;}
	.st36{fill:#303030;}
	.st37{fill:#262626;}
	.st38{fill:#273945;}
	.st39{opacity:0.24;}
</style>
<g>
	<g class="st0">
		<path class="st1" d="M486.5,98H295.3c-3.9,0-7,3.1-7,7v130.3h-0.1c0,8.3,6.7,15.1,15.1,15.1h69.2c0,6.7,0,14.7,0,18.7
			c0,5.6-9.6,7.1-14.9,7.5c-1.9,0.2-3.4,1.8-3.4,3.7h36.7h36.7c0-1.9-1.5-3.6-3.4-3.7c-5.3-0.4-14.9-2-14.9-7.5c0-4.1,0-12.1,0-18.7
			h69.1c8.3,0,15.1-6.7,15.1-15.1V105C493.5,101.1,490.3,98,486.5,98z"/>
		<path class="st2" d="M486.1,97.7H295c-3.9,0-7,3.1-7,7V235h-0.1c0,8.3,6.7,15.1,15.1,15.1h69.2c0,6.7,0,14.7,0,18.7
			c0,5.6-9.6,7.1-14.9,7.5c-1.9,0.2-3.4,1.8-3.4,3.7h36.7h36.7c0-1.9-1.5-3.6-3.4-3.7c-5.3-0.4-14.9-2-14.9-7.5c0-4.1,0-12.1,0-18.7
			h69.2c8.3,0,15.1-6.7,15.1-15.1V104.8C493.2,100.9,490,97.7,486.1,97.7z"/>
		<path class="st3" d="M485.8,97.5H294.6c-3.9,0-7,3.1-7,7v130.3h-0.1c0,8.3,6.7,15.1,15.1,15.1h69.2c0,6.7,0,14.7,0,18.7
			c0,5.6-9.6,7.1-14.9,7.5c-1.9,0.2-3.4,1.8-3.4,3.7h36.7h36.7c0-1.9-1.5-3.6-3.4-3.7c-5.3-0.4-14.9-2-14.9-7.5c0-4.1,0-12.1,0-18.7
			h69.2c8.3,0,15.1-6.7,15.1-15.1V104.5C492.8,100.6,489.7,97.5,485.8,97.5z"/>
		<path class="st4" d="M485.5,97.2H294.3c-3.9,0-7,3.1-7,7v130.3h-0.1c0,8.3,6.7,15.1,15.1,15.1h69.2c0,6.7,0,14.7,0,18.7
			c0,5.6-9.6,7.1-14.9,7.5c-1.9,0.2-3.4,1.8-3.4,3.7h36.7h36.7c0-1.9-1.5-3.6-3.4-3.7c-5.3-0.4-14.9-2-14.9-7.5c0-4.1,0-12.1,0-18.7
			h69.1c8.3,0,15.1-6.7,15.1-15.1V104.2C492.5,100.3,489.3,97.2,485.5,97.2z"/>
		<path class="st5" d="M485.1,96.9H294c-3.9,0-7,3.1-7,7v130.3h-0.1c0,8.3,6.7,15.1,15.1,15.1h69.2c0,6.7,0,14.7,0,18.7
			c0,5.6-9.6,7.1-14.9,7.5c-1.9,0.2-3.4,1.8-3.4,3.7h36.7h36.7c0-1.9-1.5-3.6-3.4-3.7c-5.3-0.4-14.9-2-14.9-7.5c0-4.1,0-12.1,0-18.7
			h69.2c8.3,0,15.1-6.7,15.1-15.1V104C492.2,100.1,489,96.9,485.1,96.9z"/>
		<path class="st6" d="M484.8,96.7H293.6c-3.9,0-7,3.1-7,7V234h-0.1c0,8.3,6.7,15.1,15.1,15.1h69.2c0,6.7,0,14.7,0,18.7
			c0,5.6-9.6,7.1-14.9,7.5c-1.9,0.2-3.4,1.8-3.4,3.7h36.7h36.7c0-1.9-1.5-3.6-3.4-3.7c-5.3-0.4-14.9-2-14.9-7.5c0-4.1,0-12.1,0-18.7
			h69.2c8.3,0,15.1-6.7,15.1-15.1V103.7C491.8,99.8,488.7,96.7,484.8,96.7z"/>
		<path class="st7" d="M484.5,96.4H293.3c-3.9,0-7,3.1-7,7v130.3h-0.1c0,8.3,6.7,15.1,15.1,15.1h69.2c0,6.7,0,14.7,0,18.7
			c0,5.6-9.6,7.1-14.9,7.5c-1.9,0.2-3.4,1.8-3.4,3.7h36.7h36.7c0-1.9-1.5-3.6-3.4-3.7c-5.3-0.4-14.9-2-14.9-7.5c0-4.1,0-12.1,0-18.7
			h69.1c8.3,0,15.1-6.7,15.1-15.1V103.4C491.5,99.5,488.4,96.4,484.5,96.4z"/>
		<path class="st8" d="M484.1,96.1H293c-3.9,0-7,3.1-7,7v130.3h-0.1c0,8.3,6.7,15.1,15.1,15.1h69.2c0,6.7,0,14.7,0,18.7
			c0,5.6-9.6,7.1-14.9,7.5c-1.9,0.2-3.4,1.8-3.4,3.7h36.7h36.7c0-1.9-1.5-3.6-3.4-3.7c-5.3-0.4-14.9-2-14.9-7.5c0-4.1,0-12.1,0-18.7
			h69.2c8.3,0,15.1-6.7,15.1-15.1V103.2C491.2,99.3,488,96.1,484.1,96.1z"/>
		<path class="st9" d="M483.8,95.9H292.6c-3.9,0-7,3.1-7,7v130.3h-0.1c0,8.3,6.7,15.1,15.1,15.1h69.2c0,6.7,0,14.7,0,18.7
			c0,5.6-9.6,7.1-14.9,7.5c-1.9,0.2-3.4,1.8-3.4,3.7h36.7h36.7c0-1.9-1.5-3.6-3.4-3.7c-5.3-0.4-14.9-2-14.9-7.5c0-4.1,0-12.1,0-18.7
			h69.2c8.3,0,15.1-6.7,15.1-15.1V102.9C490.8,99,487.7,95.9,483.8,95.9z"/>
		<path class="st10" d="M483.5,95.6H292.3c-3.9,0-7,3.1-7,7v130.3h-0.1c0,8.3,6.7,15.1,15.1,15.1h69.2c0,6.7,0,14.7,0,18.7
			c0,5.6-9.6,7.1-14.9,7.5c-1.9,0.2-3.4,1.8-3.4,3.7h36.7h36.7c0-1.9-1.5-3.6-3.4-3.7c-5.3-0.4-14.9-2-14.9-7.5c0-4.1,0-12.1,0-18.7
			h69.2c8.3,0,15.1-6.7,15.1-15.1V102.6C490.5,98.7,487.4,95.6,483.5,95.6z"/>
		<path class="st11" d="M483.1,95.3H292c-3.9,0-7,3.1-7,7v130.3h-0.1c0,8.3,6.7,15.1,15.1,15.1h69.2c0,6.7,0,14.7,0,18.7
			c0,5.6-9.6,7.1-14.9,7.5c-1.9,0.2-3.4,1.8-3.4,3.7h36.7h36.7c0-1.9-1.5-3.6-3.4-3.7c-5.3-0.4-14.9-2-14.9-7.5c0-4.1,0-12.1,0-18.7
			h69.2c8.3,0,15.1-6.7,15.1-15.1V102.3C490.2,98.5,487,95.3,483.1,95.3z"/>
		<path class="st12" d="M482.8,95H291.7c-3.9,0-7,3.1-7,7v130.4h-0.1c0,8.3,6.7,15.1,15.1,15.1h69.2c0,6.7,0,14.7,0,18.7
			c0,5.6-9.6,7.1-14.9,7.5c-1.9,0.2-3.4,1.8-3.4,3.7h36.7H424c0-1.9-1.5-3.6-3.4-3.7c-5.3-0.4-14.9-2-14.9-7.5c0-4.1,0-12.1,0-18.7
			h69.2c8.3,0,15.1-6.7,15.1-15.1V102.1C489.8,98.2,486.7,95,482.8,95z"/>
	</g>
	<g>
		<path class="st13" d="M483.1,95.4H292c-3.9,0-7,3.1-7,7v130.3h-0.1c0,8.3,6.7,15.1,15.1,15.1h69.2c0,6.7,0,14.7,0,18.7
			c0,5.6-9.6,7.1-14.9,7.5c-1.9,0.2-3.4,1.8-3.4,3.7h36.7h36.7c0-1.9-1.5-3.6-3.4-3.7c-5.3-0.4-14.9-2-14.9-7.5c0-4.1,0-12.1,0-18.7
			h69.2c8.3,0,15.1-6.7,15.1-15.1V102.4C490.2,98.6,487,95.4,483.1,95.4z"/>
	</g>
	<g>
		<path class="st14" d="M405.9,266.5c0-7.7,0-29.6,0-29.6s-18.4-0.2-18.4,2.6c0-2.8-18.4-2.6-18.4-2.6s0,21.9,0,29.6
			c0,5.6-9.6,7.1-14.9,7.5c-1.9,0.2-3.4,1.8-3.4,3.7l0,0h36.7h36.7l0,0c0-1.9-1.5-3.6-3.4-3.7C415.5,273.6,405.9,272.1,405.9,266.5z
			"/>
	</g>
	<path class="st15" d="M406,241.9h-17.3c-0.8,0.3-1.2,0.7-1.2,1.1c0-0.4-0.4-0.8-1.2-1.1h-17.3c0,3.4,0,11.7,0,18.9H406
		C406,253.6,406,245.2,406,241.9z"/>
	<g>
		<path class="st16" d="M285,232.7V102.4c0-3.9,3.1-7,7-7h191.2c3.9,0,7,3.1,7,7v130.3H285z"/>
	</g>
	<g>
		<rect x="293.3" y="103.7" class="st17" width="188.5" height="120.7"/>
	</g>
	<g>
		<path class="st14" d="M475.1,247.8H299.9c-8.3,0-15.1-6.7-15.1-15.1l0,0h205.3l0,0C490.2,241,483.4,247.8,475.1,247.8z"/>
	</g>
	<path class="st15" d="M350.6,277.4h36.7H424c0-1.3-0.7-2.4-1.7-3.1h-70C351.3,275,350.6,276.2,350.6,277.4z"/>
	<g>
		<g>
			<path class="st18" d="M380.4,186.4c-10-0.1-18.3-20.5-18.3-31c0-17,12.8-20.8,17.7-20.8c2.2,0,4.6,0.9,6.7,1.6
				c1.5,0.5,3,1.1,3.8,1.1c0.5,0,1.7-0.5,2.7-0.9c2.2-0.9,5-2,8.2-2l0,0c2.4,0,9.7,0.5,14.2,7.1l1,1.6l-1.5,1.1
				c-2.1,1.6-6,4.5-6,10.3c0,6.9,4.4,9.5,6.5,10.8c0.9,0.6,1.9,1.1,1.9,2.4c0,0.8-6.6,18.5-16.1,18.5c-2.3,0-4-0.7-5.4-1.3
				c-1.5-0.6-2.7-1.2-4.8-1.2c-1.1,0-2.4,0.5-3.8,1C385.2,185.5,383,186.4,380.4,186.4L380.4,186.4z"/>
		</g>
		<g>
			<path class="st18" d="M402.3,118.9c0.2,9-6.2,15.2-12.6,14.8C388.6,126.6,396.1,118.9,402.3,118.9z"/>
		</g>
	</g>
	<polygon class="st19" points="437,103.7 408.5,103.7 293.3,201 293.3,224.4 294.1,224.4 	"/>
	<polygon class="st19" points="325.1,224.4 395.5,224.4 481.8,151.5 481.8,103.7 468,103.7 	"/>
	<g>
		<g>
			<path class="st15" d="M450.9,243.1c-1.6,0-2.8-1.3-2.8-2.8s1.3-2.8,2.8-2.8s2.8,1.3,2.8,2.8S452.5,243.1,450.9,243.1z
				 M450.9,238.4c-1,0-1.8,0.8-1.8,1.8s0.8,1.8,1.8,1.8s1.8-0.8,1.8-1.8S451.9,238.4,450.9,238.4z"/>
		</g>
		<g>
			<path class="st15" d="M457.5,243.1c-1.6,0-2.8-1.3-2.8-2.8s1.3-2.8,2.8-2.8c1.6,0,2.8,1.3,2.8,2.8S459,243.1,457.5,243.1z
				 M457.5,238.4c-1,0-1.8,0.8-1.8,1.8s0.8,1.8,1.8,1.8s1.8-0.8,1.8-1.8S458.5,238.4,457.5,238.4z"/>
		</g>
		<g>
			<path class="st15" d="M464.1,243.1c-1.6,0-2.8-1.3-2.8-2.8s1.3-2.8,2.8-2.8c1.6,0,2.8,1.3,2.8,2.8S465.6,243.1,464.1,243.1z
				 M464.1,238.4c-1,0-1.8,0.8-1.8,1.8s0.8,1.8,1.8,1.8s1.8-0.8,1.8-1.8S465.1,238.4,464.1,238.4z"/>
		</g>
	</g>
</g>
<g>
	<g>
		<path class="st16" d="M355.7,286h-193c-10.5,0-19.1-8.6-19.1-19.1l0,0h231.3l0,0C374.8,277.5,366.3,286,355.7,286z"/>
	</g>
	<g>
		<path class="st16" d="M156.8,265.3V135c0-3.9,3.1-7,7-7H355c3.9,0,7,3.1,7,7v130.3H156.8z"/>
	</g>
	<g>
		<rect x="165.2" y="136.3" class="st17" width="188.5" height="120.7"/>
	</g>
	<g>
		<polygon class="st16" points="224.6,171.6 224.6,195.6 253.6,195.6 253.6,167.4 		"/>
	</g>
	<g>
		<polygon class="st16" points="256.6,167.1 256.6,195.6 297.6,195.6 297.6,162 		"/>
	</g>
	<g>
		<polygon class="st16" points="224.6,221.5 224.6,197.6 253.6,197.6 253.6,225.8 		"/>
	</g>
	<g>
		<polygon class="st16" points="256.6,226.1 256.6,197.6 297.6,197.6 297.6,231.2 		"/>
	</g>
	<polygon class="st20" points="292.4,136.3 165.2,247.7 165.2,257 180.8,257 318.7,136.3 	"/>
	<polygon class="st20" points="353.7,136.3 326,136.3 188.1,257 252.9,257 353.7,168.8 	"/>
	<g>
		<circle class="st21" cx="259.4" cy="131.8" r="2.1"/>
	</g>
	<g>
		<circle class="st22" cx="259.4" cy="131.8" r="1.7"/>
	</g>
</g>
<g>
	<g>
		<g>
			<path class="st23" d="M143.5,314.2H61.2c-2.8,0-5.1-2.3-5.1-5.1V192.8c0-2.8,2.3-5.1,5.1-5.1h82.3c2.8,0,5.1,2.3,5.1,5.1v116.3
				C148.7,311.9,146.4,314.2,143.5,314.2z"/>
		</g>
	</g>
	<g>
		<g>
			<path class="st17" d="M146.1,199.1v95.3c0,2.1-1.7,3.8-3.8,3.8H62.4c-2.1,0-3.8-1.7-3.8-3.8v-95.3c0-2.1,1.7-3.8,3.8-3.8h79.9
				C144.4,195.3,146.1,197,146.1,199.1z"/>
		</g>
	</g>
	<g>
		<polygon class="st24" points="107.5,195.3 58.7,264.3 58.7,291.5 126.7,195.3 		"/>
		<path class="st24" d="M146.2,199.1c0-2.1-1.7-3.8-3.8-3.8H132L60,297.2c0.7,0.6,1.6,1,2.5,1h44.1l39.6-56V199.1z"/>
	</g>
	<g>
		<circle class="st25" cx="102.4" cy="306.9" r="4.1"/>
	</g>
	<g>
		<circle class="st26" cx="102.4" cy="306.9" r="3.4"/>
	</g>
	<g>
		<g>
			<circle class="st25" cx="102.6" cy="191.7" r="2.6"/>
		</g>
	</g>
	<g>
		<g>
			<circle class="st27" cx="102.4" cy="191.5" r="2.6"/>
		</g>
	</g>
	<g>
		<g>
			<circle class="st28" cx="102.4" cy="191.5" r="1.8"/>
		</g>
	</g>
	<g>
		<g>
			<g>
				<path class="st29" d="M113.1,241.1H91.6c-0.6,0-1.1,0.5-1.1,1.1v17.2c0,2.6,1.9,4.8,4.3,5.3v5.5c0,1.8,1.5,3.2,3.2,3.2
					s3.2-1.5,3.2-3.2v-5.4h2.2v5.4c0,1.8,1.5,3.2,3.2,3.2c1.8,0,3.2-1.5,3.2-3.2v-5.5c2.5-0.5,4.3-2.7,4.3-5.3v-17.2
					C114.2,241.6,113.7,241.1,113.1,241.1z"/>
			</g>
		</g>
		<g>
			<g>
				<path class="st29" d="M108,227.4l1.8-4.2c0.2-0.5,0-1.2-0.6-1.4c-0.5-0.2-1.2,0-1.4,0.6l-1.8,4.2c-1.2-0.4-2.4-0.6-3.7-0.6
					c-1.3,0-2.5,0.2-3.7,0.6l-1.8-4.2c-0.2-0.5-0.9-0.8-1.4-0.6s-0.8,0.9-0.6,1.4l1.8,4.2c-3.7,2-6.2,5.9-6.2,10.4
					c0,0.6,0.5,1.1,1.1,1.1H113c0.6,0,1.1-0.5,1.1-1.1C114.2,233.3,111.7,229.4,108,227.4z M98,234.6c-0.6,0-1.1-0.5-1.1-1.1
					s0.5-1.1,1.1-1.1s1.1,0.5,1.1,1.1S98.6,234.6,98,234.6z M106.7,234.6c-0.6,0-1.1-0.5-1.1-1.1s0.5-1.1,1.1-1.1s1.1,0.5,1.1,1.1
					S107.3,234.6,106.7,234.6z"/>
			</g>
		</g>
		<g>
			<g>
				<path class="st29" d="M119.6,241.1c-1.8,0-3.2,1.5-3.2,3.2v10.8c0,1.8,1.5,3.2,3.2,3.2c1.8,0,3.2-1.5,3.2-3.2v-10.8
					C122.8,242.5,121.4,241.1,119.6,241.1z"/>
			</g>
		</g>
		<g>
			<g>
				<path class="st29" d="M85.1,241.1c-1.8,0-3.2,1.5-3.2,3.2v10.8c0,1.8,1.5,3.2,3.2,3.2s3.2-1.5,3.2-3.2v-10.8
					C88.4,242.5,86.9,241.1,85.1,241.1z"/>
			</g>
		</g>
	</g>
</g>
<g>
	<g class="st30">
		<g>
			<path class="st31" d="M148.6,326.3h-41.2c-2.8,0-5.1-2.3-5.1-5.1V244c0-2.8,2.3-5.1,5.1-5.1h41.2c2.8,0,5.1,2.3,5.1,5.1v77.2
				C153.8,324,151.4,326.3,148.6,326.3z"/>
		</g>
	</g>
	<g>
		<g>
			<path class="st23" d="M151.7,326.3h-41.2c-2.8,0-5.1-2.3-5.1-5.1V244c0-2.8,2.3-5.1,5.1-5.1h41.2c2.8,0,5.1,2.3,5.1,5.1v77.2
				C156.8,324,154.5,326.3,151.7,326.3z"/>
		</g>
	</g>
	<g>
		<g>
			<path class="st17" d="M154.3,249.5v66.1c0,1.6-1.3,3-3,3h-40.4c-1.6,0-3-1.3-3-3v-66.1c0-1.6,1.3-3,3-3h40.4
				C152.9,246.5,154.3,247.9,154.3,249.5z"/>
		</g>
	</g>
	<g>
		<g>
			<g>
				<circle class="st13" cx="142.9" cy="242.4" r="1.1"/>
			</g>
		</g>
		<g>
			<g>
				<circle class="st28" cx="145.9" cy="242.4" r="1.1"/>
			</g>
		</g>
		<g>
			<path class="st25" d="M135.1,241.8H126c-0.3,0-0.6,0.3-0.6,0.6s0.3,0.6,0.6,0.6h9.1c0.3,0,0.6-0.3,0.6-0.6
				S135.4,241.8,135.1,241.8z"/>
		</g>
		<g>
			<g>
				<circle class="st28" cx="112.5" cy="242.4" r="1.1"/>
			</g>
		</g>
	</g>
	<g>
		<g>
			<g>
				<path class="st29" d="M137.9,276.1h-13.5c-0.4,0-0.7,0.3-0.7,0.7v10.8c0,1.6,1.2,3,2.7,3.3v3.5c0,1.1,0.9,2,2,2c1.1,0,2-0.9,2-2
					V291h1.4v3.4c0,1.1,0.9,2,2,2s2-0.9,2-2v-3.5c1.5-0.3,2.7-1.7,2.7-3.3v-10.8C138.6,276.4,138.3,276.1,137.9,276.1z"/>
			</g>
		</g>
		<g>
			<g>
				<path class="st29" d="M133.8,272c-0.4,0-0.7-0.3-0.7-0.7s0.3-0.7,0.7-0.7s0.7,0.3,0.7,0.7S134.2,272,133.8,272z M134.7,267.5
					l1.1-2.7c0.1-0.3,0-0.7-0.4-0.9c-0.3-0.1-0.7,0-0.9,0.4l-1.1,2.7c-0.7-0.2-1.5-0.4-2.3-0.4s-1.6,0.1-2.3,0.4l-1.1-2.7
					c-0.1-0.3-0.5-0.5-0.9-0.4c-0.3,0.1-0.5,0.5-0.4,0.9l1.1,2.7c-2.3,1.3-3.9,3.7-3.9,6.6c0,0.4,0.3,0.7,0.7,0.7h13.5
					c0.4,0,0.7-0.3,0.7-0.7C138.6,271.2,137,268.8,134.7,267.5z M128.4,272c-0.4,0-0.7-0.3-0.7-0.7s0.3-0.7,0.7-0.7s0.7,0.3,0.7,0.7
					S128.8,272,128.4,272z"/>
			</g>
		</g>
		<g>
			<g>
				<path class="st29" d="M142,276.1c-1.1,0-2,0.9-2,2v6.8c0,1.1,0.9,2,2,2s2-0.9,2-2v-6.8C144,277,143.1,276.1,142,276.1z"/>
			</g>
		</g>
		<g>
			<g>
				<path class="st29" d="M120.3,276.1c-1.1,0-2,0.9-2,2v6.8c0,1.1,0.9,2,2,2s2-0.9,2-2v-6.8C122.3,277,121.4,276.1,120.3,276.1z"/>
			</g>
		</g>
	</g>
	<g class="st32">
		<polygon class="st13" points="134.5,246.6 107.3,285 107.3,299.7 144.9,246.6 		"/>
		<path class="st13" d="M153.7,249.6c0-1.6-1.4-3-3-3h-1.3l-42.1,59.7v9.4c0,1.2,0.8,2.3,1.8,2.7l44.6-63.1V249.6z"/>
	</g>
</g>
<g>
	<g>
		<path class="st14" d="M445.8,194.3h77.7c2.6,0,4.6,2,4.6,4.6v116.4c0,2.5-2.1,4.6-4.6,4.6h-77.7c-2.6,0-4.6-2-4.6-4.6V198.9
			C441.2,196.3,443.3,194.3,445.8,194.3L445.8,194.3z"/>
	</g>
	<g>
		<rect x="445.6" y="203.9" class="st17" width="78.2" height="105.5"/>
	</g>
	<g>
		<g>
			<path image-rendering="auto" color-rendering="auto" shape-rendering="auto" class="st15" d="M484.7,311.2
				c-1.8,0-3.2,1.5-3.2,3.2s1.5,3.2,3.2,3.2c1.8,0,3.2-1.5,3.2-3.2S486.5,311.2,484.7,311.2z M484.7,312.2c1.3,0,2.3,1,2.3,2.3
				s-1,2.3-2.3,2.3s-2.3-1-2.3-2.3C482.4,313.2,483.4,312.2,484.7,312.2L484.7,312.2z"/>
		</g>
		<g>
			<path class="st15" d="M485.5,199.5c0,0.4-0.3,0.8-0.8,0.8s-0.8-0.3-0.8-0.8c0-0.4,0.3-0.8,0.8-0.8
				C485.1,198.8,485.5,199.1,485.5,199.5z"/>
		</g>
	</g>
	<g>
		<g>
			<path class="st18" d="M472.9,284.4c-9.2-0.1-16.9-18.9-16.9-28.5c0-15.7,11.8-19.1,16.3-19.1c2,0,4.2,0.8,6.1,1.5
				c1.3,0.5,2.7,1,3.5,1c0.5,0,1.6-0.4,2.5-0.8c2.1-0.8,4.6-1.8,7.6-1.8l0,0c2.2,0,9,0.5,13,6.6l0.9,1.4l-1.4,1
				c-2,1.5-5.5,4.2-5.5,9.5c0,6.3,4,8.7,6,9.9c0.9,0.5,1.7,1,1.7,2.2c0,0.8-6,17-14.8,17c-2.1,0-3.7-0.6-5-1.2
				c-1.4-0.6-2.5-1.1-4.5-1.1c-1,0-2.2,0.5-3.5,1C477.3,283.7,475.2,284.4,472.9,284.4L472.9,284.4z"/>
		</g>
		<g>
			<path class="st18" d="M493,222.4c0.2,8.3-5.7,14-11.6,13.6C480.5,229.4,487.3,222.4,493,222.4z"/>
		</g>
	</g>
	<path class="st20" d="M445.6,203.9v5.3l54.7,100.2h23.5v-1.5L467,204h-21.4V203.9z"/>
</g>
<g>
	<g class="st30">
		<path class="st31" d="M544.8,324.5v-77.2c0-3-2.4-5.5-5.5-5.5h-30.7h-1.2c-3,0-5.5,2.4-5.5,5.5v7.8v24.8V320v4.6
			c0,3,2.4,5.5,5.5,5.5h1.2c-2.2-0.8-3.7-3-3.7-5.5V320L544.8,324.5z"/>
	</g>
	<g>
		<g>
			<path class="st33" d="M505.5,260.7v5.6c0,0.3-0.2,0.5-0.5,0.5s-0.5-0.2-0.5-0.5v-5.6c0-0.3,0.2-0.5,0.5-0.5
				S505.5,260.4,505.5,260.7z"/>
		</g>
		<g>
			<path class="st33" d="M505.5,268.4v5.6c0,0.3-0.2,0.5-0.5,0.5s-0.5-0.2-0.5-0.5v-5.6c0-0.3,0.2-0.5,0.5-0.5
				S505.5,268.1,505.5,268.4z"/>
		</g>
		<g>
			<path class="st33" d="M505.5,252.6v3.5c0,0.3-0.2,0.5-0.5,0.5s-0.5-0.2-0.5-0.5v-3.5c0-0.3,0.2-0.5,0.5-0.5
				S505.5,252.3,505.5,252.6z"/>
		</g>
	</g>
	<g image-rendering="auto" color-rendering="auto" shape-rendering="auto">
		<g>
			<path class="st34" d="M510.7,241.4c-3.2,0-5.9,2.6-5.9,5.9v77.2c0,3.2,2.6,5.9,5.9,5.9h32c3.2,0,5.9-2.6,5.9-5.9v-77.2
				c0-3.2-2.6-5.9-5.9-5.9L510.7,241.4L510.7,241.4z"/>
		</g>
		<g>
			<path class="st14" d="M510.7,242.2h32c2.8,0,5.1,2.3,5.1,5.1v77.2c0,2.8-2.3,5.1-5.1,5.1h-32c-2.8,0-5.1-2.3-5.1-5.1v-77.2
				C505.6,244.4,507.9,242.2,510.7,242.2z"/>
		</g>
		<g>
			<path class="st35" d="M526.5,320.8c-1.8,0-3.3,1.5-3.3,3.3s1.5,3.3,3.3,3.3s3.3-1.5,3.3-3.3S528.3,320.8,526.5,320.8L526.5,320.8
				z M526.5,321.4c1.5,0,2.7,1.2,2.7,2.7s-1.2,2.7-2.7,2.7s-2.7-1.2-2.7-2.7S525,321.4,526.5,321.4z"/>
		</g>
	</g>
	<g>
		<rect x="507.8" y="251.7" class="st17" width="37.4" height="67.4"/>
	</g>
	<g>
		<g>
			<path class="st36" d="M522.7,247.8h11.7c0.4,0,0.7,0.3,0.7,0.7s-0.3,0.7-0.7,0.7h-11.7c-0.4,0-0.7-0.3-0.7-0.7
				S522.4,247.8,522.7,247.8z"/>
		</g>
		<g>
			<path class="st36" d="M516.8,248.5c0,0.7-0.6,1.2-1.2,1.2l0,0c-0.7,0-1.2-0.6-1.2-1.2l0,0c0-0.7,0.6-1.2,1.2-1.2l0,0
				C516.2,247.3,516.8,247.8,516.8,248.5L516.8,248.5z"/>
		</g>
		<g>
			<path class="st36" d="M529.4,246c0,0.4-0.4,0.8-0.8,0.8l0,0c-0.4,0-0.8-0.4-0.8-0.8l0,0c0-0.4,0.4-0.8,0.8-0.8l0,0
				C529,245.2,529.4,245.5,529.4,246L529.4,246z"/>
		</g>
	</g>
	<g>
		<path class="st37" d="M520.4,247.2c0,0.2-0.2,0.4-0.4,0.4s-0.4-0.2-0.4-0.4s0.2-0.4,0.4-0.4l0,0
			C520.2,246.8,520.4,247,520.4,247.2L520.4,247.2z"/>
	</g>
	<g>
		<path class="st38" d="M520.4,247.2c0,0.2-0.2,0.4-0.4,0.4l0,0c-0.2,0-0.4-0.2-0.4-0.4l0,0c0-0.2,0.2-0.4,0.4-0.4l0,0
			C520.2,246.8,520.4,247,520.4,247.2L520.4,247.2z"/>
	</g>
	<g>
		<g>
			<path class="st18" d="M522.3,299.9c-4.7,0-8.7-9.7-8.7-14.6c0-8,6-9.8,8.4-9.8c1,0,2.2,0.4,3.2,0.8c0.7,0.3,1.4,0.5,1.8,0.5
				c0.2,0,0.8-0.2,1.3-0.4c1.1-0.4,2.4-0.9,3.9-0.9l0,0c1.1,0,4.6,0.3,6.7,3.4l0.5,0.7l-0.7,0.5c-1,0.8-2.8,2.1-2.8,4.9
				c0,3.2,2.1,4.5,3.1,5.1c0.4,0.3,0.9,0.5,0.9,1.1c0,0.4-3.1,8.7-7.6,8.7c-1.1,0-1.9-0.3-2.6-0.6c-0.7-0.3-1.3-0.6-2.3-0.6
				c-0.5,0-1.1,0.2-1.8,0.5C524.6,299.5,523.5,299.9,522.3,299.9L522.3,299.9z"/>
		</g>
		<g>
			<path class="st18" d="M532.6,268.1c0.1,4.2-2.9,7.2-5.9,7C526.2,271.7,529.7,268.1,532.6,268.1z"/>
		</g>
	</g>
	<g class="st39">
		<path class="st13" d="M507.8,251.7v18.6l26.7,48.9h10.8v-9.9l-31.4-57.6L507.8,251.7L507.8,251.7z"/>
	</g>
	<g class="st39">
		<path class="st13" d="M522.8,251.7l22.4,41.1v-41.1L522.8,251.7L522.8,251.7z"/>
	</g>
</g>
</svg>
