<?xml version="1.0" encoding="UTF-8" standalone="no"?>
<svg
   xmlns:dc="http://purl.org/dc/elements/1.1/"
   xmlns:cc="http://creativecommons.org/ns#"
   xmlns:rdf="http://www.w3.org/1999/02/22-rdf-syntax-ns#"
   xmlns:svg="http://www.w3.org/2000/svg"
   xmlns="http://www.w3.org/2000/svg"
   xmlns:sodipodi="http://sodipodi.sourceforge.net/DTD/sodipodi-0.dtd"
   xmlns:inkscape="http://www.inkscape.org/namespaces/inkscape"
   inkscape:version="1.0 (4035a4fb49, 2020-05-01)"
   sodipodi:docname="share the download link.svg"
   xml:space="preserve"
   style="enable-background:new 0 0 600 410;"
   viewBox="0 0 600 410"
   height="410px"
   width="600px"
   y="0px"
   x="0px"
   id="Layer_1"
   version="1.1"><metadata
   id="metadata209"><rdf:RDF><cc:Work
       rdf:about=""><dc:format>image/svg+xml</dc:format><dc:type
         rdf:resource="http://purl.org/dc/dcmitype/StillImage" /></cc:Work></rdf:RDF></metadata><defs
   id="defs207" /><sodipodi:namedview
   inkscape:current-layer="g112"
   inkscape:window-maximized="0"
   inkscape:window-y="0"
   inkscape:window-x="0"
   inkscape:cy="205"
   inkscape:cx="300"
   inkscape:zoom="1.895"
   showgrid="false"
   id="namedview205"
   inkscape:window-height="1162"
   inkscape:window-width="2244"
   inkscape:pageshadow="2"
   inkscape:pageopacity="0"
   guidetolerance="10"
   gridtolerance="10"
   objecttolerance="10"
   borderopacity="1"
   bordercolor="#666666"
   pagecolor="#ffffff" />
<style
   id="style2"
   type="text/css">
	.st0{fill:#383838;}
	.st1{fill:#FFFFFF;}
	.st2{opacity:0.1;}
	.st3{fill:#383838;fill-opacity:0;}
	.st4{opacity:4.761905e-02;fill:#383838;enable-background:new    ;}
	.st5{opacity:9.523810e-02;fill:#383838;enable-background:new    ;}
	.st6{opacity:0.1429;fill:#383838;enable-background:new    ;}
	.st7{opacity:0.1905;fill:#383838;enable-background:new    ;}
	.st8{opacity:0.2381;fill:#383838;enable-background:new    ;}
	.st9{opacity:0.2857;fill:#383838;enable-background:new    ;}
	.st10{opacity:0.3333;fill:#383838;enable-background:new    ;}
	.st11{opacity:0.381;fill:#383838;enable-background:new    ;}
	.st12{opacity:0.4286;fill:#383838;enable-background:new    ;}
	.st13{opacity:0.4762;fill:#383838;enable-background:new    ;}
	.st14{opacity:0.5238;fill:#383838;enable-background:new    ;}
	.st15{opacity:0.5714;fill:#383838;enable-background:new    ;}
	.st16{opacity:0.619;fill:#383838;enable-background:new    ;}
	.st17{opacity:0.6667;fill:#383838;enable-background:new    ;}
	.st18{opacity:0.7143;fill:#383838;enable-background:new    ;}
	.st19{opacity:0.7619;fill:#383838;enable-background:new    ;}
	.st20{opacity:0.8095;fill:#383838;enable-background:new    ;}
	.st21{opacity:0.8571;fill:#383838;enable-background:new    ;}
	.st22{opacity:0.9048;fill:#383838;enable-background:new    ;}
	.st23{opacity:0.9524;fill:#383838;enable-background:new    ;}
	.st24{fill:#55ACEE;}
	.st25{fill:none;}
</style>
<g
   id="g112">
	<path
   id="path4"
   d="M189.8,208.9h222c4.1,0,7.5-3.9,7.5-8.1V57.6c0-4.7-3.4-8.1-7.7-8.1l-131.8,0.4c-2.1,0-3.9-0.9-5.4-2.4   L261,32.9c-1.3-1.5-3.4-2.4-5.4-2.4h-65.8c-4.1,0-7.5,3.9-7.5,8.1V201C182.3,205.3,185.5,208.9,189.8,208.9z"
   class="st0" />
	<path
   id="path6"
   d="M406.5,168.8H196.7c-3.4,0-6.2-2.8-6.2-6.2V59.7c0-3.4,2.8-6.2,6.2-6.2h210.3c3.4,0,6.2,2.8,6.2,6.2v102.9   C412.9,166,410.2,168.8,406.5,168.8z"
   class="st1" />
	<g
   id="g52"
   class="st2">
		<path
   id="path8"
   d="M406.7,169.9H196.9c-3.4,0-6.2-2.8-6.2-6.2V60.8c0-3.4,2.8-6.2,6.2-6.2h210.3c3.4,0,6.2,2.8,6.2,6.2v102.9    C412.9,167.1,410.4,169.9,406.7,169.9z"
   class="st3" />
		<path
   id="path10"
   d="M407.2,170.1H196.9c-3.4,0-6.2-2.8-6.2-6.2V61c0-3.4,2.8-6.2,6.2-6.2h210.3c3.4,0,6.2,2.8,6.2,6.2v102.9    C413.2,167.3,410.4,170.1,407.2,170.1z"
   class="st4" />
		<path
   id="path12"
   d="M407.4,170.1H197.1c-3.4,0-6.2-2.8-6.2-6.2V61c0-3.4,2.8-6.2,6.2-6.2h210.3c3.4,0,6.2,2.8,6.2,6.2v102.9    C413.6,167.5,410.6,170.1,407.4,170.1z"
   class="st5" />
		<path
   id="path14"
   d="M407.6,170.5H197.3c-3.4,0-6.2-2.8-6.2-6.2V61.5c0-3.4,2.8-6.2,6.2-6.2h210.3c3.4,0,6.2,2.8,6.2,6.2v102.9    C413.8,167.5,411,170.5,407.6,170.5z"
   class="st6" />
		<path
   id="path16"
   d="M407.6,170.8H197.8c-3.4,0-6.2-2.8-6.2-6.2V61.7c0-3.4,2.8-6.2,6.2-6.2h209.8c3.4,0,6.2,2.8,6.2,6.2v102.9    C414,168,411.2,170.8,407.6,170.8z"
   class="st7" />
		<path
   id="path18"
   d="M407.8,170.8h-210c-3.4,0-6.2-2.8-6.2-6.2V61.7c0-3.4,2.8-6.2,6.2-6.2H408c3.4,0,6.2,2.8,6.2,6.2v102.9    C414,168,411.4,170.8,407.8,170.8z"
   class="st8" />
		<path
   id="path20"
   d="M408,171H198c-3.4,0-6.2-2.8-6.2-6.2V61.9c0-3.4,2.8-6.2,6.2-6.2h210.3c3.4,0,6.2,2.8,6.2,6.2v102.9    C414.2,168.2,411.4,171,408,171z"
   class="st9" />
		<path
   id="path22"
   d="M408.4,171.2H198.2c-3.4,0-6.2-2.8-6.2-6.2V62.1c0-3.4,2.8-6.2,6.2-6.2h210.3c3.4,0,6.2,2.8,6.2,6.2V165    C414.4,168.4,411.7,171.2,408.4,171.2z"
   class="st10" />
		<path
   id="path24"
   d="M408.4,171.2h-210c-3.4,0-6.2-2.8-6.2-6.2V62.1c0-3.4,2.8-6.2,6.2-6.2h210.3c3.4,0,6.2,2.8,6.2,6.2V165    C414.9,168.6,411.9,171.2,408.4,171.2z"
   class="st11" />
		<path
   id="path26"
   d="M408.7,171.4h-210c-3.4,0-6.2-2.8-6.2-6.2V62.3c0-3.4,2.8-6.2,6.2-6.2h210.3c3.4,0,6.2,2.8,6.2,6.2v102.9    C414.9,168.6,411.9,171.4,408.7,171.4z"
   class="st12" />
		<path
   id="path28"
   d="M408.9,171.8H198.6c-3.4,0-6.2-2.8-6.2-6.2V62.7c0-3.4,2.8-6.2,6.2-6.2h210.3c3.4,0,6.2,2.8,6.2,6.2v102.7    C415.1,168.8,412.5,171.8,408.9,171.8z"
   class="st13" />
		<path
   id="path30"
   d="M409.1,171.8H199c-3.4,0-6.2-2.8-6.2-6.2V62.7c0-3.4,2.8-6.2,6.2-6.2h210.3c3.4,0,6.2,2.8,6.2,6.2v102.9    C415.3,168.8,412.5,171.8,409.1,171.8z"
   class="st14" />
		<path
   id="path32"
   d="M409.3,172h-210c-3.4,0-6.2-2.8-6.2-6.2V63c0-3.4,2.8-6.2,6.2-6.2h210.3c3.4,0,6.2,2.8,6.2,6.2v102.9    C415.5,169.3,412.7,172,409.3,172z"
   class="st15" />
		<path
   id="path34"
   d="M409.3,172.3H199.5c-3.4,0-6.2-2.8-6.2-6.2V63.2c0-3.4,2.8-6.2,6.2-6.2h210.3c3.4,0,6.2,2.8,6.2,6.2V166    C415.7,169.5,412.9,172.3,409.3,172.3z"
   class="st16" />
		<path
   id="path36"
   d="M409.7,172.3H199.5c-3.4,0-6.2-2.8-6.2-6.2V63.2c0-3.4,2.8-6.2,6.2-6.2h210.3c3.4,0,6.2,2.8,6.2,6.2V166    C415.7,169.7,412.9,172.3,409.7,172.3z"
   class="st17" />
		<path
   id="path38"
   d="M409.9,172.5H199.7c-3.4,0-6.2-2.8-6.2-6.2V63.4c0-3.4,2.8-6.2,6.2-6.2h210.3c3.4,0,6.2,2.8,6.2,6.2v102.9    C416.2,169.7,413.2,172.5,409.9,172.5z"
   class="st18" />
		<path
   id="path40"
   d="M409.9,172.7h-210c-3.4,0-6.2-2.8-6.2-6.2V63.6c0-3.4,2.8-6.2,6.2-6.2h210.3c3.4,0,6.2,2.8,6.2,6.2v102.9    C416.4,169.9,413.6,172.7,409.9,172.7z"
   class="st19" />
		<path
   id="path42"
   d="M410.4,172.7h-210c-3.4,0-6.2-2.8-6.2-6.2V63.6c0-3.4,2.8-6.2,6.2-6.2h210.3c3.4,0,6.2,2.8,6.2,6.2v102.9    C416.6,169.9,413.8,172.7,410.4,172.7z"
   class="st20" />
		<path
   id="path44"
   d="M410.4,173.1H200.5c-3.4,0-6.2-2.8-6.2-6.2V64c0-3.4,2.8-6.2,6.2-6.2h210c3.4,0,6.2,2.8,6.2,6.2v102.9    C416.6,170.1,413.8,173.1,410.4,173.1z"
   class="st21" />
		<path
   id="path46"
   d="M410.6,173.3h-210c-3.4,0-6.2-2.8-6.2-6.2V64.2c0-3.4,2.8-6.2,6.2-6.2h210c3.4,0,6.2,2.8,6.2,6.2v102.9    C416.8,170.5,414,173.3,410.6,173.3z"
   class="st22" />
		<path
   id="path48"
   d="M411,173.3H200.8c-3.4,0-6.2-2.8-6.2-6.2V64.2c0-3.4,2.8-6.2,6.2-6.2H411c3.4,0,6.2,2.8,6.2,6.2v102.9    C417,170.5,414.2,173.3,411,173.3z"
   class="st23" />
		<path
   id="path50"
   d="M411,173.5H201c-3.4,0-6.2-2.8-6.2-6.2V64.5c0-3.4,2.8-6.2,6.2-6.2h210.3c3.4,0,6.2,2.8,6.2,6.2v102.9    C417.2,170.8,414.4,173.5,411,173.5z"
   class="st0" />
	</g>
	<path
   id="path54"
   d="M410.2,173.5H199.9c-3.4,0-6.2-2.8-6.2-6.2V64.5c0-3.4,2.8-6.2,6.2-6.2h210.3c3.4,0,6.2,2.8,6.2,6.2v102.9   C416.4,170.8,413.6,173.5,410.2,173.5z"
   class="st1" />
	<g
   id="g100"
   class="st2">
		<path
   id="path56"
   d="M410.6,174.6H200.8c-3.4,0-6.2-2.8-6.2-6.2V65.5c0-3.4,2.8-6.2,6.2-6.2H411c3.4,0,6.2,2.8,6.2,6.2v102.9    C416.8,171.8,414,174.6,410.6,174.6z"
   class="st3" />
		<path
   id="path58"
   d="M411,174.8H200.8c-3.4,0-6.2-2.8-6.2-6.2V65.7c0-3.4,2.8-6.2,6.2-6.2H411c3.4,0,6.2,2.8,6.2,6.2v102.9    C417,172,414.4,174.8,411,174.8z"
   class="st4" />
		<path
   id="path60"
   d="M411.2,175H201c-3.4,0-6.2-2.8-6.2-6.2V66c0-3.4,2.8-6.2,6.2-6.2h210.3c3.4,0,6.2,2.8,6.2,6.2v102.9    C417.2,172.3,414.4,175,411.2,175z"
   class="st5" />
		<path
   id="path62"
   d="M411.4,175H201.2c-3.4,0-6.2-2.8-6.2-6.2V66c0-3.4,2.8-6.2,6.2-6.2h210.3c3.4,0,6.2,2.8,6.2,6.2v102.9    C417.7,172.3,414.9,175,411.4,175z"
   class="st6" />
		<path
   id="path64"
   d="M411.4,175.3H201.6c-3.4,0-6.2-2.8-6.2-6.2V66.2c0-3.4,2.8-6.2,6.2-6.2h210.3c3.4,0,6.2,2.8,6.2,6.2V169    C417.9,172.5,415.1,175.3,411.4,175.3z"
   class="st7" />
		<path
   id="path66"
   d="M411.7,175.3h-210c-3.4,0-6.2-2.8-6.2-6.2V66.2c0-3.4,2.8-6.2,6.2-6.2h210.3c3.4,0,6.2,2.8,6.2,6.2V169    C417.9,172.7,415.1,175.3,411.7,175.3z"
   class="st8" />
		<path
   id="path68"
   d="M411.9,175.7h-210c-3.4,0-6.2-2.8-6.2-6.2V66.6c0-3.4,2.8-6.2,6.2-6.2h210.3c3.4,0,6.2,2.8,6.2,6.2v102.9    C418.1,172.7,415.3,175.7,411.9,175.7z"
   class="st9" />
		<path
   id="path70"
   d="M411.9,175.9H202c-3.4,0-6.2-2.8-6.2-6.2V66.8c0-3.4,2.8-6.2,6.2-6.2h210.3c3.4,0,6.2,2.8,6.2,6.2v102.9    C418.3,173.1,415.5,175.9,411.9,175.9z"
   class="st10" />
		<path
   id="path72"
   d="M412.5,176.1H202.3c-3.4,0-6.2-2.8-6.2-6.2V67c0-3.4,2.8-6.2,6.2-6.2h210.3c3.4,0,6.2,2.8,6.2,6.2v102.9    C418.5,173.3,415.7,176.1,412.5,176.1z"
   class="st11" />
		<path
   id="path74"
   d="M412.5,176.1h-210c-3.4,0-6.2-2.8-6.2-6.2V67c0-3.4,2.8-6.2,6.2-6.2h210.3c3.4,0,6.2,2.8,6.2,6.2v102.9    C418.5,173.3,415.7,176.1,412.5,176.1z"
   class="st12" />
		<path
   id="path76"
   d="M412.7,176.3H202.5c-3.4,0-6.2-2.8-6.2-6.2V67.2c0-3.4,2.8-6.2,6.2-6.2h210.3c3.4,0,6.2,2.8,6.2,6.2v102.9    C418.9,173.5,416.2,176.3,412.7,176.3z"
   class="st13" />
		<path
   id="path78"
   d="M412.9,176.3h-210c-3.4,0-6.2-2.8-6.2-6.2V67.2c0-3.4,2.8-6.2,6.2-6.2h210.3c3.4,0,6.2,2.8,6.2,6.2v102.9    C419.2,173.8,416.4,176.3,412.9,176.3z"
   class="st14" />
		<path
   id="path80"
   d="M412.9,176.5H203.1c-3.4,0-6.2-2.8-6.2-6.2V67.5c0-3.4,2.8-6.2,6.2-6.2h210.3c3.4,0,6.2,2.8,6.2,6.2v102.9    C419.4,173.8,416.6,176.5,412.9,176.5z"
   class="st15" />
		<path
   id="path82"
   d="M413.2,177H203.3c-3.4,0-6.2-2.8-6.2-6.2V67.9c0-3.4,2.8-6.2,6.2-6.2h210.3c3.4,0,6.2,2.8,6.2,6.2v102.9    C419.6,174,416.8,177,413.2,177z"
   class="st16" />
		<path
   id="path84"
   d="M413.6,177.2H203.3c-3.4,0-6.2-2.8-6.2-6.2V67.9c0-3.4,2.8-6.2,6.2-6.2h210.3c3.4,0,6.2,2.8,6.2,6.2v102.9    C419.6,174.4,416.8,177.2,413.6,177.2z"
   class="st17" />
		<path
   id="path86"
   d="M413.8,177.2H203.6c-3.4,0-6.2-2.8-6.2-6.2V68.1c0-3.4,2.8-6.2,6.2-6.2h210.3c3.4,0,6.2,2.8,6.2,6.2V171    C419.8,174.4,417,177.2,413.8,177.2z"
   class="st18" />
		<path
   id="path88"
   d="M413.8,177.4h-210c-3.4,0-6.2-2.8-6.2-6.2V68.3c0-3.4,2.8-6.2,6.2-6.2H414c3.4,0,6.2,2.8,6.2,6.2v102.9    C420.2,174.6,417.2,177.4,413.8,177.4z"
   class="st19" />
		<path
   id="path90"
   d="M414,177.4H204.2c-3.4,0-6.2-2.8-6.2-6.2V68.3c0-3.4,2.8-6.2,6.2-6.2h210.3c3.4,0,6.2,2.8,6.2,6.2v102.9    C420.2,174.8,417.7,177.4,414,177.4z"
   class="st20" />
		<path
   id="path92"
   d="M414.2,177.6H204.4c-3.4,0-6.2-2.8-6.2-6.2V68.5c0-3.4,2.8-6.2,6.2-6.2h210.3c3.4,0,6.2,2.8,6.2,6.2v102.9    C420.4,174.8,417.7,177.6,414.2,177.6z"
   class="st21" />
		<path
   id="path94"
   d="M414.4,177.8h-210c-3.4,0-6.2-2.8-6.2-6.2V68.7c0-3.4,2.8-6.2,6.2-6.2h210.3c3.4,0,6.2,2.8,6.2,6.2v102.9    C420.7,175,417.9,177.8,414.4,177.8z"
   class="st22" />
		<path
   id="path96"
   d="M414.9,177.8H204.6c-3.4,0-6.2-2.8-6.2-6.2V68.7c0-3.4,2.8-6.2,6.2-6.2h210.3c3.4,0,6.2,2.8,6.2,6.2v102.9    C420.9,175,418.1,177.8,414.9,177.8z"
   class="st23" />
		<path
   id="path98"
   d="M414.9,178.3h-210c-3.4,0-6.2-2.8-6.2-6.2V69.2c0-3.4,2.8-6.2,6.2-6.2h210.3c3.4,0,6.2,2.8,6.2,6.2V172    C421.1,175.3,418.3,178.3,414.9,178.3z"
   class="st0" />
	</g>
	<path
   id="path102"
   d="M414.9,178.3h-210c-3.4,0-6.2-2.8-6.2-6.2V69.2c0-3.4,2.8-6.2,6.2-6.2h210.3c3.4,0,6.2,2.8,6.2,6.2V172   C421.1,175.3,418.3,178.3,414.9,178.3z"
   class="st1" />
	<g
   id="g106">
		<path
   id="path104"
   d="M417.9,236.1H182.3c-4.3,0-7.9-3.6-7.9-8.1V86.5c0-4.3,3.6-8.1,8.1-8.1h118.3c2.1,0,2.8-0.2,4.3-1.7    l14.4-14.4c1.5-1.5,3.6-2.4,5.6-2.4h92.6c4.3,0,7.9,3.6,7.9,8.1V228C425.8,232.5,422.2,236.1,417.9,236.1z"
   class="st24" />
	</g>
	
</g>
<rect
   id="rect114"
   height="72.5"
   width="31.1"
   class="st0"
   y="196.5"
   x="284.5" />
<path
   id="path116"
   d="M323.9,253.8c-15.8,3.1-32,3.2-47.8,0.3l24.8,54.5L323.9,253.8z"
   class="st0" />
<g
   id="g128">
	<g
   id="g122">
		<circle
   id="circle118"
   r="37.5"
   cy="336.6"
   cx="438.7"
   class="st0" />
		<path
   id="path120"
   d="M438.7,300.6c19.9,0,36,16.1,36,36s-16.1,36-36,36s-36-16.1-36-36S418.8,300.6,438.7,300.6 M438.7,297.6    c-21.5,0-39,17.5-39,39c0,21.5,17.5,39,39,39s39-17.5,39-39C477.7,315.1,460.2,297.6,438.7,297.6L438.7,297.6z"
   class="st24" />
	</g>
	<path
   id="path124"
   d="M438.7,341.4c7.5,0,13.3-5.9,13.3-13.3c0-7.5-5.9-13.3-13.3-13.3c-7.5,0-13.3,5.9-13.3,13.3   C425.3,335.5,431.5,341.4,438.7,341.4z"
   class="st24" />
	<path
   id="path126"
   d="M438.6,367.1c8.8,0,16.7-3.6,22.4-9.7c-1.6-7.5-8.4-13.3-16.5-13.3h-11.3c-8.1,0-14.9,5.7-16.7,13.3   C421.8,363.3,429.8,367.1,438.6,367.1z"
   class="st24" />
</g>
<g
   id="g136">
	<path
   id="path130"
   d="M346.2,372.2c-20.5,0-37.2-16.7-37.2-37.2c0-20.5,16.7-37.2,37.2-37.2c20.5,0,37.2,16.7,37.2,37.2   C383.3,355.5,366.7,372.2,346.2,372.2z"
   class="st0" />
	<path
   id="path132"
   d="M346.2,299c19.9,0,36,16.1,36,36s-16.1,36-36,36c-19.9,0-36-16.1-36-36S326.3,299,346.2,299 M346.2,296.7   c-21.2,0-38.4,17.2-38.4,38.4c0,21.2,17.2,38.4,38.4,38.4c21.2,0,38.4-17.2,38.4-38.4C384.5,313.9,367.3,296.7,346.2,296.7   L346.2,296.7z"
   class="st24" />
	<path
   id="path134"
   d="M356.4,340l1-7.9h-7.8v-5c0-2.3,0.6-3.8,3.9-3.8l4.2,0v-7.1c-0.7-0.1-3.2-0.3-6.1-0.3   c-6,0-10.1,3.7-10.1,10.4v5.8h-6.8v7.9h6.8v20c1.5,0.3,3.1,0.4,4.7,0.4c1.2,0,2.3-0.1,3.4-0.2V340H356.4z"
   class="st24" />
</g>
<g
   id="g150">
	
		<ellipse
   id="ellipse138"
   ry="37.2"
   rx="37.2"
   cy="333.6"
   cx="253.6"
   class="st0"
   transform="matrix(0.1602 -0.9871 0.9871 0.1602 -116.2889 530.5167)" />
	<path
   id="path140"
   d="M253.6,297.6c19.9,0,36,16.1,36,36s-16.1,36-36,36c-19.9,0-36-16.1-36-36S233.7,297.6,253.6,297.6    M253.6,295.2c-21.2,0-38.4,17.2-38.4,38.4c0,21.2,17.2,38.4,38.4,38.4s38.4-17.2,38.4-38.4C292,312.4,274.8,295.2,253.6,295.2   L253.6,295.2z"
   class="st24" />
	<g
   id="g148">
		<path
   id="path142"
   d="M266.8,317.4c-1.6,0-3,1.3-3,3c0,1.6,1.3,3,3,3c1.6,0,3-1.3,3-3C269.8,318.8,268.5,317.4,266.8,317.4z"
   class="st24" />
		<path
   id="path144"
   d="M277.1,317.4c-0.6-1.7-1.6-3.1-2.9-4.4c-1.2-1.3-2.7-2.2-4.4-2.9c-1.6-0.6-3.4-1-6-1.1    c-2.6-0.1-3.5-0.1-10.2-0.1c-6.7,0-7.6,0-10.2,0.1c-2.6,0.1-4.4,0.5-6,1.1c-1.7,0.6-3.1,1.6-4.4,2.9c-1.3,1.2-2.2,2.7-2.9,4.4    c-0.6,1.6-1,3.4-1.1,6c-0.1,2.6-0.1,3.5-0.1,10.2c0,6.7,0,7.6,0.1,10.2c0.1,2.6,0.5,4.4,1.1,6c0.6,1.7,1.6,3.1,2.9,4.4    c1.2,1.3,2.7,2.2,4.4,2.9c1.6,0.6,3.4,1,6,1.1c2.6,0.1,3.5,0.1,10.2,0.1c6.7,0,7.6,0,10.2-0.1c2.6-0.1,4.4-0.5,6-1.1    c3.3-1.3,5.9-3.9,7.2-7.2c0.6-1.6,1-3.4,1.1-6c0.1-2.6,0.1-3.5,0.1-10.2c0-6.7,0-7.6-0.1-10.2C278.1,320.8,277.7,319,277.1,317.4z     M273.8,343.6c-0.1,2.4-0.5,3.7-0.9,4.6c-0.8,2.2-2.5,3.9-4.7,4.7c-0.9,0.3-2.2,0.7-4.6,0.9c-2.6,0.1-3.4,0.1-10,0.1    c-6.6,0-7.4,0-10-0.1c-2.4-0.1-3.7-0.5-4.6-0.9c-1.1-0.4-2-1-2.8-1.9c-0.8-0.8-1.5-1.8-1.9-2.8c-0.3-0.9-0.7-2.2-0.9-4.6    c-0.1-2.6-0.1-3.4-0.1-10c0-6.6,0-7.4,0.1-10c0.1-2.4,0.5-3.7,0.9-4.6c0.4-1.1,1-2,1.9-2.8c0.8-0.8,1.8-1.5,2.8-1.9    c0.9-0.3,2.2-0.7,4.6-0.9c2.6-0.1,3.4-0.1,10-0.1c6.6,0,7.4,0,10,0.1c2.4,0.1,3.7,0.5,4.6,0.9c1.1,0.4,2,1,2.8,1.9    c0.8,0.8,1.5,1.8,1.9,2.8c0.3,0.9,0.7,2.2,0.9,4.6c0.1,2.6,0.1,3.4,0.1,10C273.9,340.2,273.9,341,273.8,343.6z"
   class="st24" />
		<path
   id="path146"
   d="M253.6,320.9c-7,0-12.7,5.7-12.7,12.7c0,7,5.7,12.7,12.7,12.7c7,0,12.7-5.7,12.7-12.7    C266.3,326.6,260.6,320.9,253.6,320.9z M253.6,341.8c-4.6,0-8.2-3.7-8.2-8.2c0-4.6,3.7-8.2,8.2-8.2c4.6,0,8.2,3.7,8.2,8.2    C261.9,338.2,258.2,341.8,253.6,341.8z"
   class="st24" />
	</g>
</g>
<g
   id="g202">
	<g
   id="g156">
		<circle
   id="circle152"
   r="37.5"
   cy="331.2"
   cx="161.1"
   class="st0" />
		<path
   id="path154"
   d="M161.1,295.2c19.9,0,36,16.1,36,36s-16.1,36-36,36s-36-16.1-36-36S141.2,295.2,161.1,295.2 M161.1,292.2    c-21.5,0-39,17.5-39,39c0,21.5,17.5,39,39,39c21.5,0,39-17.5,39-39C200.1,309.7,182.6,292.2,161.1,292.2L161.1,292.2z"
   class="st24" />
	</g>
	<path
   id="path158"
   d="M152.4,311.2c-2,0.9-3.9,2.1-5.6,3.6c0.8,0.7,1.7,1.4,2.6,1.9C150.1,314.8,151.1,312.9,152.4,311.2z"
   class="st25" />
	<path
   id="path160"
   d="M159.5,320.2v-10.6c-3.6,1-6.1,5.2-7.4,8.7C154.4,319.4,156.9,320,159.5,320.2z"
   class="st25" />
	<path
   id="path162"
   d="M162.7,309.6v10.6c2.6-0.2,5.1-0.8,7.4-1.9C168.8,314.8,166.3,310.7,162.7,309.6z"
   class="st25" />
	<path
   id="path164"
   d="M177.7,345.3c1.9-2.2,3.3-4.8,4.2-7.5H175c-0.3,1.6-0.6,3.2-1,4.8C175.3,343.4,176.6,344.3,177.7,345.3z"
   class="st25" />
	<path
   id="path166"
   d="M174,319.9c0.4,1.5,0.8,3.1,1,4.8h6.9c-0.9-2.7-2.3-5.3-4.2-7.5C176.6,318.2,175.3,319.1,174,319.9z"
   class="st25" />
	<path
   id="path168"
   d="M151.1,321.4c-0.3,1-0.5,2.1-0.7,3.3h9.1v-1.2C156.6,323.2,153.7,322.5,151.1,321.4z"
   class="st25" />
	<path
   id="path170"
   d="M144.5,317.1c-1.9,2.2-3.3,4.8-4.2,7.5h6.9c0.3-1.6,0.6-3.2,1-4.8C146.9,319.1,145.6,318.2,144.5,317.1z"
   class="st25" />
	<path
   id="path172"
   d="M171.1,341.1c0.3-1,0.5-2.1,0.7-3.3h-9.1v1.2C165.6,339.2,168.5,339.9,171.1,341.1z"
   class="st25" />
	<path
   id="path174"
   d="M162.7,323.4v1.2h9.1c-0.2-1.1-0.4-2.2-0.7-3.3C168.5,322.5,165.6,323.2,162.7,323.4z"
   class="st25" />
	<path
   id="path176"
   d="M175.5,314.8c-1.7-1.5-3.6-2.7-5.6-3.6c1.3,1.7,2.3,3.6,3.1,5.6C173.8,316.2,174.7,315.6,175.5,314.8z"
   class="st25" />
	<path
   id="path178"
   d="M148.2,342.6c-0.4-1.5-0.8-3.1-1-4.8h-6.9c0.9,2.7,2.3,5.3,4.2,7.5C145.6,344.3,146.9,343.4,148.2,342.6z"
   class="st25" />
	<path
   id="path180"
   d="M146.7,347.6c1.7,1.5,3.6,2.7,5.6,3.6c-1.3-1.7-2.3-3.6-3.1-5.6C148.4,346.2,147.5,346.9,146.7,347.6z"
   class="st25" />
	<path
   id="path182"
   d="M159.5,339v-1.2h-9.1c0.2,1.1,0.4,2.2,0.7,3.3C153.7,339.9,156.6,339.2,159.5,339z"
   class="st25" />
	<path
   id="path184"
   d="M159.5,352.8v-10.6c-2.6,0.2-5.1,0.8-7.4,1.9C153.4,347.6,155.9,351.8,159.5,352.8z"
   class="st25" />
	<path
   id="path186"
   d="M169.8,351.2c2-0.9,3.9-2.1,5.6-3.6c-0.8-0.7-1.7-1.4-2.6-1.9C172.1,347.6,171.1,349.5,169.8,351.2z"
   class="st25" />
	<path
   id="path188"
   d="M162.7,342.2v10.6c3.6-1,6.1-5.2,7.4-8.7C167.8,343.1,165.3,342.4,162.7,342.2z"
   class="st25" />
	<path
   id="path190"
   d="M144.5,317.1c1.2,1,2.4,2,3.7,2.8c-0.4,1.5-0.8,3.1-1,4.8h3.2c0.2-1.1,0.4-2.2,0.7-3.3c2.6,1.2,5.5,1.8,8.4,2   v1.2h3.2v-1.2c2.9-0.2,5.8-0.9,8.4-2c0.3,1,0.5,2.1,0.7,3.3h3.2c-0.3-1.6-0.6-3.2-1-4.8c1.3-0.8,2.6-1.7,3.7-2.8   c1.9,2.2,3.3,4.8,4.2,7.5h3.3c-1.1-4.1-3.2-7.9-6.4-11.1c-9.8-9.8-25.6-9.8-35.3,0c-3.2,3.2-5.3,7-6.4,11.1h3.3   C141.2,321.9,142.6,319.3,144.5,317.1z M175.5,314.8c-0.8,0.7-1.7,1.4-2.6,1.9c-0.8-2-1.8-3.9-3.1-5.6   C171.9,312.1,173.8,313.3,175.5,314.8z M162.7,309.6c3.6,1,6.1,5.2,7.4,8.7c-2.3,1.1-4.8,1.7-7.4,1.9V309.6z M159.5,309.6v10.6   c-2.6-0.2-5.1-0.8-7.4-1.9C153.4,314.8,155.9,310.7,159.5,309.6z M152.4,311.2c-1.3,1.7-2.3,3.6-3.1,5.6c-0.9-0.6-1.8-1.2-2.6-1.9   C148.4,313.3,150.3,312.1,152.4,311.2z"
   class="st24" />
	<path
   id="path192"
   d="M177.7,345.3c-1.2-1-2.4-2-3.7-2.8c0.4-1.5,0.8-3.1,1-4.8h-3.2c-0.2,1.1-0.4,2.2-0.7,3.3   c-2.6-1.2-5.5-1.8-8.4-2v-1.2h-3.2v1.2c-2.9,0.2-5.8,0.9-8.4,2c-0.3-1-0.5-2.1-0.7-3.3h-3.2c0.3,1.6,0.6,3.2,1,4.8   c-1.3,0.8-2.6,1.7-3.7,2.8c-1.9-2.2-3.3-4.8-4.2-7.5H137c1.1,4.1,3.2,7.9,6.4,11.1c9.8,9.8,25.6,9.8,35.3,0c3.2-3.2,5.3-7,6.4-11.1   h-3.3C181,340.6,179.6,343.1,177.7,345.3z M146.7,347.6c0.8-0.7,1.7-1.4,2.6-1.9c0.8,2,1.8,3.9,3.1,5.6   C150.3,350.3,148.4,349.1,146.7,347.6z M159.5,352.8c-3.6-1-6.1-5.2-7.4-8.7c2.3-1.1,4.8-1.7,7.4-1.9V352.8z M162.7,352.8v-10.6   c2.6,0.2,5.1,0.8,7.4,1.9C168.8,347.6,166.3,351.8,162.7,352.8z M169.8,351.2c1.3-1.7,2.3-3.6,3.1-5.5c0.9,0.6,1.8,1.2,2.6,1.9   C173.8,349.1,171.9,350.3,169.8,351.2z"
   class="st24" />
	<g
   id="g200">
		<path
   id="path194"
   d="M142.7,336l-3-9.5h2.4l1.8,6.2l1.6-6.2h2.4l1.6,6.2l1.8-6.2h2.5l-3.1,9.5h-2.4l-1.6-6.1l-1.6,6.1H142.7z"
   class="st24" />
		<path
   id="path196"
   d="M157,336l-3-9.5h2.4l1.8,6.2l1.6-6.2h2.4l1.6,6.2l1.8-6.2h2.5l-3.1,9.5h-2.4l-1.6-6.1l-1.6,6.1H157z"
   class="st24" />
		<path
   id="path198"
   d="M171.3,336l-3-9.5h2.4l1.8,6.2l1.6-6.2h2.4l1.6,6.2l1.8-6.2h2.5l-3.1,9.5H177l-1.6-6.1l-1.6,6.1H171.3z"
   class="st24" />
	</g>
</g>
</svg>